<svg viewBox="0 0 1159.2222900390625 400" xmlns="http://www.w3.org/2000/svg"><g><g><g><g><g><line x1="40" y1="320.11899137115034" x2="35" y2="320.11899137115034" style="visibility: inherit;" fill="rgb(0, 0, 0)" stroke="rgb(204, 204, 204)" stroke-width="1px"></line><line x1="40" y1="271.5937885122235" x2="35" y2="271.5937885122235" style="visibility: inherit;" fill="rgb(0, 0, 0)" stroke="rgb(204, 204, 204)" stroke-width="1px"></line><line x1="40" y1="223.0685856532967" x2="35" y2="223.0685856532967" style="visibility: inherit;" fill="rgb(0, 0, 0)" stroke="rgb(204, 204, 204)" stroke-width="1px"></line><line x1="40" y1="174.54338279436988" x2="35" y2="174.54338279436988" style="visibility: inherit;" fill="rgb(0, 0, 0)" stroke="rgb(204, 204, 204)" stroke-width="1px"></line><line x1="40" y1="126.01817993544307" x2="35" y2="126.01817993544307" style="visibility: inherit;" fill="rgb(0, 0, 0)" stroke="rgb(204, 204, 204)" stroke-width="1px"></line><line x1="40" y1="77.4929770765163" x2="35" y2="77.4929770765163" style="visibility: inherit;" fill="rgb(0, 0, 0)" stroke="rgb(204, 204, 204)" stroke-width="1px"></line><line x1="40" y1="28.967774217589408" x2="35" y2="28.967774217589408" style="visibility: inherit;" fill="rgb(0, 0, 0)" stroke="rgb(204, 204, 204)" stroke-width="1px"></line></g><g transform="translate(30, 0)"><text x="0" y="320.11899137115034" dx="0em" dy="0.3em" style="text-anchor: end; visibility: inherit; font-family: &quot;Helvetica Neue&quot;, sans-serif; font-size: 12px; font-weight: 200;" fill="rgb(50, 49, 63)" stroke="none" stroke-width="1px">0.5</text><text x="0" y="271.5937885122235" dx="0em" dy="0.3em" style="text-anchor: end; visibility: inherit; font-family: &quot;Helvetica Neue&quot;, sans-serif; font-size: 12px; font-weight: 200;" fill="rgb(50, 49, 63)" stroke="none" stroke-width="1px">1</text><text x="0" y="223.0685856532967" dx="0em" dy="0.3em" style="text-anchor: end; visibility: inherit; font-family: &quot;Helvetica Neue&quot;, sans-serif; font-size: 12px; font-weight: 200;" fill="rgb(50, 49, 63)" stroke="none" stroke-width="1px">1.5</text><text x="0" y="174.54338279436988" dx="0em" dy="0.3em" style="text-anchor: end; visibility: inherit; font-family: &quot;Helvetica Neue&quot;, sans-serif; font-size: 12px; font-weight: 200;" fill="rgb(50, 49, 63)" stroke="none" stroke-width="1px">2</text><text x="0" y="126.01817993544307" dx="0em" dy="0.3em" style="text-anchor: end; visibility: inherit; font-family: &quot;Helvetica Neue&quot;, sans-serif; font-size: 12px; font-weight: 200;" fill="rgb(50, 49, 63)" stroke="none" stroke-width="1px">2.5</text><text x="0" y="77.4929770765163" dx="0em" dy="0.3em" style="text-anchor: end; visibility: inherit; font-family: &quot;Helvetica Neue&quot;, sans-serif; font-size: 12px; font-weight: 200;" fill="rgb(50, 49, 63)" stroke="none" stroke-width="1px">3</text><text x="0" y="28.967774217589408" dx="0em" dy="0.3em" style="text-anchor: end; visibility: inherit; font-family: &quot;Helvetica Neue&quot;, sans-serif; font-size: 12px; font-weight: 200;" fill="rgb(50, 49, 63)" stroke="none" stroke-width="1px">3.5</text></g><line x1="40" y1="0" x2="40" y2="366" fill="rgb(0, 0, 0)" stroke="rgb(204, 204, 204)" stroke-width="1px"></line></g></g><g transform="translate(40, 0)" clip-path="url(#clip_0)"><clipPath id="clip_0"><rect width="1119" height="366"></rect></clipPath><g><g><g><line x1="123.28300215144976" y1="0" x2="123.28300215144976" y2="366" fill="rgb(0, 0, 0)" stroke="rgb(60, 60, 60)" stroke-width="1px" opacity="0.25"></line><line x1="261.63534105643" y1="0" x2="261.63534105643" y2="366" fill="rgb(0, 0, 0)" stroke="rgb(60, 60, 60)" stroke-width="1px" opacity="0.25"></line><line x1="399.98767996141015" y1="0" x2="399.98767996141015" y2="366" fill="rgb(0, 0, 0)" stroke="rgb(60, 60, 60)" stroke-width="1px" opacity="0.25"></line><line x1="538.3400188663903" y1="0" x2="538.3400188663903" y2="366" fill="rgb(0, 0, 0)" stroke="rgb(60, 60, 60)" stroke-width="1px" opacity="0.25"></line><line x1="676.6923577713706" y1="0" x2="676.6923577713706" y2="366" fill="rgb(0, 0, 0)" stroke="rgb(60, 60, 60)" stroke-width="1px" opacity="0.25"></line><line x1="815.0446966763507" y1="0" x2="815.0446966763507" y2="366" fill="rgb(0, 0, 0)" stroke="rgb(60, 60, 60)" stroke-width="1px" opacity="0.25"></line><line x1="953.397035581331" y1="0" x2="953.397035581331" y2="366" fill="rgb(0, 0, 0)" stroke="rgb(60, 60, 60)" stroke-width="1px" opacity="0.25"></line><line x1="1091.7493744863111" y1="0" x2="1091.7493744863111" y2="366" fill="rgb(0, 0, 0)" stroke="rgb(60, 60, 60)" stroke-width="1px" opacity="0.25"></line></g><g><line x1="0" y1="320.11899137115034" x2="1119.22" y2="320.11899137115034" fill="rgb(0, 0, 0)" stroke="rgb(60, 60, 60)" stroke-width="1px" opacity="0.25"></line><line x1="0" y1="271.5937885122235" x2="1119.22" y2="271.5937885122235" fill="rgb(0, 0, 0)" stroke="rgb(60, 60, 60)" stroke-width="1px" opacity="0.25"></line><line x1="0" y1="223.0685856532967" x2="1119.22" y2="223.0685856532967" fill="rgb(0, 0, 0)" stroke="rgb(60, 60, 60)" stroke-width="1px" opacity="0.25"></line><line x1="0" y1="174.54338279436988" x2="1119.22" y2="174.54338279436988" fill="rgb(0, 0, 0)" stroke="rgb(60, 60, 60)" stroke-width="1px" opacity="0.25"></line><line x1="0" y1="126.01817993544307" x2="1119.22" y2="126.01817993544307" fill="rgb(0, 0, 0)" stroke="rgb(60, 60, 60)" stroke-width="1px" opacity="0.25"></line><line x1="0" y1="77.4929770765163" x2="1119.22" y2="77.4929770765163" fill="rgb(0, 0, 0)" stroke="rgb(60, 60, 60)" stroke-width="1px" opacity="0.25"></line><line x1="0" y1="28.967774217589408" x2="1119.22" y2="28.967774217589408" fill="rgb(0, 0, 0)" stroke="rgb(60, 60, 60)" stroke-width="1px" opacity="0.25"></line></g></g></g><g><g><line x1="0" y1="368.6441942300772" x2="1119.22" y2="368.6441942300772" fill="rgb(0, 0, 0)" stroke="rgb(153, 153, 153)" stroke-width="1.5px"></line></g></g><g><g><line x1="-245609589.65338615" y1="0" x2="-245609589.65338615" y2="366" fill="rgb(0, 0, 0)" stroke="rgb(153, 153, 153)" stroke-width="1.5px"></line></g></g><g><g><g><g><g><path stroke="rgb(0, 153, 136)" stroke-width="2px" d="M26.384405928463746,31.557494826480365L27.39791367335323,67.41708311351391L27.904590683387468,78.59372359346202L28.90610789223852,85.35266247782812L29.917770939275936,98.51785116734618L30.417530332364922,101.23960266941299L31.432882775106474,103.43869258431084L31.936177839078592,93.96585706332513L32.44316229875484,92.68105097237776L32.948763235042044,94.57730962087646L33.448368903310026,93.96177699661854L33.94659104818896,91.14740950411039L34.456803729106326,89.39355795861297L34.96055996754146,86.38866462561498L36.976968444671044,90.58133079133353L37.48057095828517,90.47677656214546L39.98152007122419,92.53761603031359L40.48281671252324,92.65424470572185L41.48894566600446,92.21793736790062L41.989012508735456,94.24005122143814L43.00190535434092,96.8707312863391L44.52255128372766,97.06927034875173L45.02046597896458,97.51337545491504L46.03520352242211,91.77427581131934L46.536807613363166,96.32797135083308L47.04563677089148,92.53090216935044L47.54770203629555,91.3722517753634L48.55229374156671,89.49274785588386L49.555348198627826,83.45547447026627L50.05925816188396,83.78619819283676L51.57652214520858,84.98423064540907L52.07397566598248,79.05887792203396L52.581882474584766,69.68015734119462L53.0857924378409,68.81605263781199L53.58878005217101,77.47987348668642L55.10296953907552,73.81408244663737L55.60611087822662,58.4152516227345L56.62084842168416,58.85439074362694L57.6306667708695,59.22130417638647L58.13565280787268,63.19359308852728L58.636641999529715,62.480529546950095L59.13932216421781,64.61264777702178L60.64813128238712,80.40696587577673L61.15526946688438,83.58259302825195L61.6614853024556,88.45435053503758L62.171697983372965,90.69303844900463L63.17982535952726,85.29763622809236L64.18533941372445,90.44755419568656L64.69063290036964,91.4292013094942L67.20987526700833,85.79821432735412L67.71624482740056,84.53729715180106L68.21892499208865,78.68193386645413L68.71960673410366,76.34594505920313L69.22966569020002,75.69385415174781L69.73434427756119,71.76412434344593L72.2598893618611,71.74371839940659L76.31222936838799,70.31291191520552L77.3155912750911,69.29311344821377L88.41452335169062,68.54651180108664L88.92012428797783,63.657407141407305L92.47747037086685,69.0161360600382L94.00718606469293,81.22083564999247L95.01838793726733,91.05348488498419L95.5261410210486,100.23648809157436L96.02820628645269,101.069320158827L98.05552922587366,85.5673740942027L98.55959291395081,63.733830330836554L99.06719227291107,61.370118602236005L100.57984451160551,67.93611457794253L101.08590662235574,75.64326516780164L102.60931959852059,75.64226261827872L104.63141589402737,69.88155724918488L105.64968910836801,71.41664501169697L106.66934584609773,72.91826314506352L107.18755221770738,79.00439844731238L107.70837191127413,80.55400658297322L108.21812341772848,88.44578845844268L108.73417764184406,85.68028967776024L109.23639663206913,89.17850313027037L110.25128790034766,90.18876019809318L111.26187487363804,90.88831940489848L112.76146050254702,85.94689111356053L113.25952892260494,74.94155061187547L113.75698244337886,62.965531891077774L114.74481814316042,52.44392956143548L115.24826693195354,47.326646025709636L115.75063964699962,41.97897143089574L116.74293336659034,62.974827690641234L117.23977198808022,79.00581408187861L118.26127342366199,93.09884906594112L118.77486805064149,102.61436498445562L119.80497807619956,97.06678662481198L120.30950293873971,92.30418763884904L121.87826473710119,75.22736361400439L123.95493334406494,79.41916801845696L124.47360089013762,80.52689947596019L124.99933977797653,82.74302169637906L125.52461749135244,80.80326609074677L126.54704127586025,82.37041406435867L127.05402573553651,80.72615152455643L128.07721814414933,80.79623675592421L129.09410783510094,85.04388427669528L129.60816363654345,88.015372925353L130.1188374919238,86.45882535907674L130.6315097699773,85.18831254785528L131.66038999696733,70.72482430763495L132.16783563110658,59.109234525565284L135.73471265289797,74.76236704032857L137.77602455103045,91.03824988644908L139.81810507326796,92.10224095346251L140.3241671840182,91.0036957632675L140.83653201242961,87.78476013422949L153.39385146590863,72.12343727948377L153.91159666305526,61.44755601931024L154.4345685041161,69.19566869209183L154.96399678765917,79.01168719339165L156.54951459151025,92.31251144076822L157.08063384808435,97.14418328408931L158.1291908521631,88.29398012898884L158.63648276148137,74.9148266469719L159.14731034168275,76.2421910556688L160.16696707941244,72.11009064899832L160.67487388801473,74.00781772301912L161.18416422000607,78.28667539650428L162.1956735422225,84.66587010044287L162.70865326991793,90.31245220611538L163.21394675656316,93.72088867997923L163.72569668569056,98.8867405925651L164.23344976947183,101.49319414117588L164.74304755110515,101.47141916835358L166.27383931867828,92.16866581475944L166.7882025697628,81.21457204864237L167.81108752873362,76.06930225595067L169.87115385502878,85.71608626816527L170.37936811327307,85.85643225639308L171.3970264283297,86.7114748938169L172.40622987823104,84.60677394145421L172.91705745843242,77.51168080200472L175.4750384799645,81.10075265237055L177.00121850290745,88.15614421916013L177.50681943919463,98.27827351658385L178.01795446903805,107.18212948319581L178.5230942308622,112.15139979509826L179.5422897941289,112.38069750149981L181.58621501421848,101.7550256245907L182.60833134908427,99.22431750436664L183.62768063717198,100.3029205523876L184.14527210949757,97.97187366073092L184.6513342202478,99.21579691618672L186.69326101766433,82.38191769389448L187.2045497723287,70.53990562086187L188.2209782888173,72.61286855453886L189.24002012726297,72.04696891412118L190.25552629482553,79.30268759246843L192.8073583235174,79.91473983864933L193.82901348392016,95.18797543666409L194.33630539323843,109.99941474319684L195.8657136374225,108.48733160224123L196.8833719524791,100.16204698083988L197.39296973411246,90.23162931777216L197.90687181073395,88.2397324298434L198.92898814559976,96.52113889924834L199.43750985348606,105.03236274011294L199.94833743368744,112.6175057177818L201.99487597573412,104.33266513183429L202.51031530056565,94.48398266757113L203.52413049509718,87.41108805101305L205.05476853784927,75.07404126834183L217.50248219395132,75.76990118818986L218.01161880112167,81.62860145157896L218.52306128060707,95.19609549222696L219.03727080687057,102.69983136405017L220.05600519567426,98.07233899978303L221.07212626252084,74.45858301339024L221.58433736611127,65.51051693868862L222.09593357041769,54.70498149004732L222.60091960742085,58.252960183572384L224.1214118119866,74.80801410441057L224.63193194254598,85.73858388470927L225.64590086189847,94.31102774802656L227.66999558007834,86.2246790704931L228.6913432908391,74.21742876716019L229.7188399944401,77.50780560795579L230.23504794337666,77.59545632665169L230.74203240305292,79.79440760239294L231.26069994912558,89.39299895690772L231.77306477753703,90.99525243803015L232.79349013937176,93.08566800794301L233.30216557207908,90.15864858960725L234.85878310958108,93.68828388479261L235.87982337069985,100.95617323208899L236.39249564875328,109.01393990763L237.40661829292682,100.923392163975L238.43088677528667,89.73354804276971L238.93787123496296,80.22116155853246L239.45346428461548,73.2649006456245L240.47250612306118,73.69820473792015L240.98025920684245,80.19601043990014L241.49692833024204,86.03386816995356L242.00406651473932,88.08459749797976L243.02249345390095,86.2535676558025L243.5316300610713,83.41611542103391L244.5568208923572,90.5931965449609L245.06365162721244,91.89825894975746L246.08376953940515,102.6510835845034L247.10465607570293,111.1024551367068L248.13030808145183,122.45607879482267L248.64728465449343,130.21476132051276L249.1682580728812,133.91024686774907L250.22265662015815,124.23940484088541L250.7290261805504,115.92733324928534L252.2601253977655,95.05912416462155L252.7688008304728,69.11611916218766L253.28131938370524,79.84748104679852L253.79214696390665,90.43751399341829L254.81718407037152,89.09033462437327L255.3267818520049,95.06241447854336L255.83699453292223,86.34502125542843L256.3499742606177,99.09320160389933L258.9191771940832,96.62590458849775L260.96310241417274,87.69671858581091L261.47961781275137,72.2498376343421L262.49758357745,74.58213670434117L264.04928192067985,84.58343822320273L267.66904028089715,92.12118257016436L268.1757172909314,91.86753721794878L269.720190567574,81.44313605124853L280.6629382260319,80.35168148910202L281.17837755086344,77.67576001422833L281.68628435946573,78.7367692166556L282.70932304325754,80.13244380445946L283.7466581354029,96.0959293431136L284.7755383623929,114.62540314810946L285.80534093830903,108.25879366648371L288.39083870280103,94.84233988467042L290.44967523052816,97.51790507589499L290.9677278773168,101.58586598502552L291.48470445035844,102.02854598425563L291.999528875906,99.84770562099169L293.0370176928723,100.96153720147458L293.5498436957468,95.62055783530184L295.08524720795003,90.21002479250916L296.6341785044018,103.89163372496972L298.1728102378462,111.17527997163825L299.71251804503765,111.01219736589499L300.23656595984545,109.80907225139327L300.74416531880576,107.04790382115908L301.2588360195323,105.99265765914623L301.76889497562865,105.47631797012235L302.80515399402697,105.65702302752516L303.3236678152786,104.81327751215667L303.83895341528915,108.04956319297276L304.87060068905726,101.95056348025508L305.38311924228975,98.6294094515419L305.9033240365725,94.92945319740431L306.93358778695153,82.10211544440898L307.96754093303474,67.95685744154656L308.47775361395213,68.47019336951149L310.54842695289665,91.93127983597117L312.6164869698841,99.20195599747831L314.1624974947368,95.24990898102465L314.6771681954633,86.75943775976015L315.70727822102134,95.23052177867788L316.2268681160201,108.28729968005786L317.25436481962106,121.39792797329417L318.28416739553717,132.84841608912853L319.8303316452108,125.64106741270714L323.4427112140198,111.48351355491155L324.9980989529538,110.68634062709503L325.5115398551123,108.20402551569072L327.057857829607,99.53788767130652L327.57544930193257,97.64331547633554L328.0962689954993,101.28986636099836L329.12484177284733,107.44892580013624L329.63889757428984,110.30781830737007L330.15464434876344,109.82781848801693L330.6722358210891,113.21812651241538L331.70372937003617,110.09722221725494L334.27785149777384,102.88182310518619L345.2673315018174,109.26908954763883L348.367038792573,106.26108678135074L349.4005307641932,111.58838825538822L349.9198132095499,122.45386043640619L350.4452446477468,127.6878299800778L350.9671404150606,126.48924831883016L351.48673031005933,127.04567808161872L352.0038606079219,125.13239034764729L352.5228356036366,133.72949940622485L353.04457764612937,133.87160408812773L353.5643212659491,136.11126032983603L354.0782233425706,139.31366185899932L355.11033179080175,137.64159368535024L356.6634136574206,121.40070007402582L357.1811588545673,109.62309086177288L357.69721307868286,103.36963440185366L358.73039760066104,99.44172151223904L359.2484502474497,100.57724261614061L359.7651193708493,107.99687205521093L360.80875718065585,115.15290301897562L361.8382523069299,122.64579646443934L362.87481877497027,122.22390466704795L363.3841091069616,119.6297092345531L364.9384207721485,114.92855448617269L365.4543212714431,120.31208741548625L365.9739111664418,128.8314962324526L367.01770270106937,134.54069765814296L367.5291451805548,133.0426363093549L368.0475052769854,127.57778441631484L369.07684667843847,123.71631254336029L370.11725626700394,116.45798419735257L370.6357700882556,104.65003534471009L372.1783986670461,89.3173518923087L372.6933768174146,77.41311366256213L373.2089698670672,86.41093586174759L373.72610016492985,108.97355783845046L374.23954106708834,124.00219744676485L374.75528784156194,135.96067842667873L375.27118834085644,138.3090686578664L375.78632021604597,137.49283010878744L376.8204270869502,132.4425243519799L377.3458585251471,122.6615456929593L377.86037550105266,112.67826044329763L379.41991381015384,113.0926406207441L379.9395037051525,114.35118141566744L380.4564802781941,116.71514073024159L381.4935079206974,126.58526387752175L382.01048449373906,140.3661795278273L382.52530891928654,144.31876188857427L383.0442839150013,138.26082447602948L384.0702433703922,120.33672324314412L385.1406292990537,104.43724506164045L385.65529999978025,95.6939867978769L386.1731989217479,100.81152917061729L387.2159143826284,117.27501153273113L388.2444871599764,125.02863654629104L389.2735211117875,112.89885819004664L389.7941870805332,100.15368266440521L390.31808127052005,89.19691837485357L391.87823447890526,99.87437792756043L393.93538003360135,133.01790402163297L394.454201304495,144.9380976485968L395.48630975272613,137.0684178920954L396.0023639768417,127.0815143367308L397.0363171229249,106.7844648645289L399.10652928740643,113.49987507586232L410.16441683679744,125.74319363246181L411.206517398394,141.2779836843218L412.2426226919713,147.11245749351957L414.3156019032309,142.08123318736367L415.8865158490865,129.68908082640476L416.402570073202,123.374951878985L417.4452855340826,117.96950054388674L417.96456797943927,116.84581791030467L418.4889233438891,124.96087147095852L419.012202634592,137.2784508205613L419.5325611536957,143.85449259398516L420.0460020558542,145.30344761658455L420.5651307763899,140.16887205184707L421.08441322174656,124.04367690873505L421.59862274801014,109.66390991060399L423.66806628838657,107.17074614715364L424.18658010963827,110.88591380629452L425.2268359733827,119.95212173165217L426.264324790349,124.95268860153297L427.31011474764966,133.37362854340543L427.8312418908584,140.8081322712728L428.87518715030706,147.6103216258568L429.39016530067556,150.91331636525945L429.90914029639026,148.14943473576642L431.47867071885673,138.9761587426126L431.9990292379604,137.73788481456083L432.5173893343911,132.52911055859218L433.0374404038529,129.61773962341195L433.55533932582046,117.92869487219735L434.59866968598504,113.88047081222405L435.11103451439647,119.57231222040016L435.6310855838582,122.4638542399799L436.67441594402277,129.93633727199318L437.1972340602626,136.91937494773398L437.72035962614444,133.59169347945456L438.23856599775405,127.93948935450476L438.7592319664998,124.88820610115064L439.2788218614985,124.94454236828926L439.8021011522014,126.55701270019426L440.32691769111426,121.59044430961919L440.8508118811011,119.78542126728237L442.40543099593003,133.3362263279159L443.4479927319896,136.2172035402561L444.49393641411126,126.97028790243215L446.04701828073013,130.31660075689035L446.5607666325306,132.52615014634665L447.07835810485625,132.62550441296273L447.59717937574993,127.79646522489472L448.1216884650208,121.5175391443627L448.64619755429175,114.07137005796326L449.1688619457105,106.63194431939866L449.6852236194681,107.81977059481147L450.7228661612554,128.74113690003725L451.2461454519583,149.50418186136878L451.7738827624703,162.62028402867378L453.85670036227424,160.77785497808216L455.9465893038445,130.4582373179884L456.4698685945473,109.15191865026526L457.51980912201515,101.93189547593079L458.043703312002,105.30618926652147L458.5560681404134,112.34873974910423L459.0744282368441,122.96963524588509L459.5978612523679,131.98935281034878L460.1209868182498,144.02251978210705L461.67637455718375,156.57749109216732L462.19519582807743,166.0909617790237L462.71770649467527,169.78356923232835L475.84273171212766,154.74562491590473L476.89390203816356,137.19864490868764L477.4236377713486,142.56728234337714L477.9435351159893,145.9333127872596L478.46420108473507,153.52530053407102L479.5075314448996,168.6656391898311L481.0652250561487,153.39049588585553L481.58850434685155,146.84838605625387L482.6346017537942,141.87823381757332L483.158034769318,137.9412652022241L483.6756262416436,137.47740298548342L484.1976757337784,140.40173276624273L484.7183417025242,137.84986502520982L485.240698644301,131.2535095769336L486.2721921932481,114.15566541356691L487.82542778468803,119.16153301836829L488.34609375343376,130.13232371220553L489.3872719661042,141.92409788025296L490.43536779571997,143.14273052641406L490.95880081124386,138.18006345939946L491.48653812175576,134.74837526704619L492.0108934862057,130.37058249385197L493.06068028885244,130.99127114225053L493.57980900938816,127.61452720859006L494.10308830009103,130.9434901359939L494.62144839652166,137.7568240981857L495.1421143652674,140.73335725040099L495.66493248150726,145.66998821441774L496.1888266714941,147.64077135259157L496.7125671366599,161.16979852581426L498.27056819755103,170.18155545225363L498.78877456916064,171.29287921150583L500.86636552505047,144.0722860949706L501.3871852186172,118.79314597527974L502.43835554465306,112.92347529978366L503.492292917467,119.27674731630248L504.53977384779864,124.39479943792492L505.05951746761843,136.52522627328332L505.57587914137594,137.8601335869418L506.09562276119567,149.71492680146068L506.6182871526145,158.11264087361806L507.1446409397374,157.90721696430057L508.186280326871,145.61894478129426L509.2282271636464,149.6038742950239L510.2687904770329,146.1018380396131L511.8307883832701,134.70103874824574L512.3549900228991,133.21729682280935L512.8687383746995,134.13346981868796L513.3904804171923,141.90020527308545L513.9179102780622,151.54918871109805L514.9617018126899,163.4450387964933L515.4894391232018,168.73113017590947L516.0119497897996,177.63046759525133L517.0583546463843,176.873799841624L517.5744088705,164.6642350080545L518.6140498349603,144.17649202765145L520.1660556278322,139.5568961527109L521.2089248135337,141.78113418740205L521.7343562517307,146.04409112627212L522.2508716503093,148.72877399319304L523.8108711338734,143.0111008553813L525.3959277632614,130.99857127362412L525.9202831277113,128.8389376986996L526.966226809833,134.42346112716297L528.0129391160597,144.75365285372203L529.0455087387538,152.58864570480935L529.5666358819625,156.54170047855155L542.1531630514327,148.36270377682592L543.190036969115,132.4087515827138L543.7114715619657,118.63255296437012L544.2304465576805,105.57380630578524L544.7526497746362,97.16032102055107L545.799208356042,107.43482246577003L546.3192594255037,120.39639754522864L546.8343913006931,134.88663422713057L547.3533662964078,148.13608661866542L549.441410540126,157.08276984451834L550.4813589542284,151.25065772098608L551.0046382449312,146.81647347345546L551.527148911529,133.9967940909463L552.0531952490101,122.32423824945053L552.5737074929348,114.69066602071538L554.6463792545524,129.03311379043137L555.1699659948972,144.8086518215496L555.6887872657909,155.50469256672338L556.2059175636534,159.51345048499596L557.7688378188168,161.1833549190576L558.2927320088036,155.3708125005669L558.8090936825612,145.39751169847673L559.3289910272019,142.03525392074786L559.8496569959476,133.20997781713902L560.8912963830811,136.75626034165842L561.4076580568387,146.3428222078823L561.9247883547014,153.08728476062046L562.4463766723732,165.2504829063777L563.498161897693,169.08684594219048L565.0706130917586,157.04411644895896L565.5957370803135,157.51227445718405L566.1194775454794,160.38126672721918L566.6358392192369,158.40180361195303L567.6742503851293,167.40649282914143L568.194762629054,166.67457776835744L568.7183493693989,170.0257399864317L569.7747463393489,160.61493522343835L570.2972570059467,158.97162373406988L571.3430469632474,162.59913820655265L571.8592549121839,172.25154134205113L573.9494513033962,159.9283662535056L574.4659667019747,138.61584889975086L575.5051464919721,156.2707175064158L576.028118333033,169.26835874618666L576.5487843017788,187.46711696244887L577.0728322165866,201.3972646444392L577.5984173796046,211.9993421083267L578.1229264688754,211.05817952618133L578.6472818333253,191.75356833555725L579.6821573283345,171.31104330795938L580.2029770219013,166.10682394704025L580.725180238857,159.26841653244878L582.2939420372186,169.6271591216114L582.808766462766,184.88392806970597L583.3271265591967,188.43150318178286L583.8476388031214,180.55092989226756L584.890507988823,155.14559073198518L588.0191155459277,166.5902226340455L588.5453156082295,172.41573005132383L589.0679799996484,174.62196280415654L590.1053150917937,172.51936461307974L592.1938205099749,175.69332363599838L593.7556646913911,182.14051579041242L605.8522708563166,174.31217733052634L607.4165746348689,167.8716868339204L607.9400076503928,157.98062671175015L608.9779576418221,158.9637961885099L609.4990847850308,166.02330679610597L610.0202119282396,175.2410038386606L610.5422614203744,183.3962488394757L611.587129028749,182.11608240821053L612.116864761934,182.9612965098349L612.644294622804,178.64920403443588L613.1675739135069,177.70374534951426L613.6916218283147,175.25839919704939L614.2058313545783,171.5977952666276L614.7288031956391,170.05719786568434L615.2485468154588,172.53354168618407L615.7756692266869,169.14316704438056L616.8225352577344,164.12510425848632L617.3456608236163,157.32715459417412L618.3992907467882,150.01988995246202L619.4400077849957,149.31521260571344L619.9579067069634,153.21463492418823L620.9981625707077,166.84384060244358L622.0268890728768,181.77360002974933L622.5486311153696,186.86863451579262L623.0728327549984,184.78369200355985L623.5911928514291,175.04547740744846L625.1722526354711,163.67868926969544L625.6952244765318,162.8463272688039L626.2080504794063,167.87939415358258L626.7230286297748,172.56689628883942L627.7722005331376,184.2324885565041L628.2919441529573,184.7567306147133L632.4458962661689,178.63167204709058L632.9673308590196,175.04568999498971L634.0114298432892,177.84286334461177L634.5268691681207,182.9136203028389L635.5665101325812,194.13583379973014L636.0896356984631,198.63231574404958L636.6066122715047,199.60179628983727L637.1265096161453,200.54759566493826L638.6931192670128,179.41343895827816L639.2185507052096,176.92596354127073L640.2594214682381,168.83850220636853L640.7816246851938,171.32587309422783L641.2979863589516,179.57149613322338L641.8183448780553,183.63733843955956L643.3806502339345,186.45215433689148L647.5409050648072,174.06784020200055L648.0606486846269,178.02519499844763L648.5843891497927,185.40897895171443L649.6312551808404,188.2409489228048L650.671818494227,184.60710483625158L651.1924844629726,184.29117114384647L651.7185308004537,178.5120285496778L652.7633984088283,184.1566952116828L653.2894447463092,194.43935242525626L653.813185211475,200.26757397675198L654.3307766838007,212.09184160912451L654.8468309079161,216.34292058199657L656.4074452907644,193.93207860498148L656.9227308907749,176.57136452666654L657.4418596113106,164.61903405563987L660.0516458975216,170.71997854720254L671.1218314325931,179.80521018960988L671.6398840793817,185.1391489285357L672.1610112225904,183.3259343222248L673.1997298381249,176.56030928916047L673.7150154381353,165.13439020377515L674.7628038181091,168.76499905427127L677.9035556360732,183.4747153492108L678.427911000523,188.45377228552513L679.4640162941004,192.83145345634395L679.9857583365931,193.94025148888352L680.5122658485371,188.557001939651L682.5917015022789,178.99489586456616L683.1108302228146,165.9687357872699L683.6331871645915,164.0772868073675L684.1550829319052,171.89944052963952L684.6691387333477,180.50517709564446L685.1942627219026,189.90555429986318L685.7156973147534,193.60664211640844L686.7610260975911,196.70018957936588L687.2846128379359,200.99592777790727L687.8100442761328,198.5988771350231L688.3347070902247,190.9971408906662L688.8526060121924,196.78877820711642L689.369428860413,186.43184812005902L689.8907097284426,184.92781981417252L691.9776778984138,191.1841144349019L693.0142443664541,188.1133317394974L693.5382922812619,183.75621125760745L696.1646808481414,187.4800467077914L696.6862691658132,184.17329129681391L697.7199148622545,190.62689340661464L698.7584797529679,192.08988115676266L699.2839111911647,188.75851767272147L699.8113410520347,182.6318788452905L700.8578996334404,179.08836213887426L702.4195900900356,182.27383476552177L702.9401023339603,187.73189383008906L704.4950288984314,191.21777595419715L705.538359258596,183.1575159695372L707.0980512925181,188.18556141471268L708.6629699703544,201.83456026039303L709.1845582880262,209.7467740782272L710.2291184467588,211.12154245772894L710.7579318310178,216.57654455277236L711.2867452152768,217.66067667206133L711.8107931300847,215.8068573785883L712.3362245682816,206.12408286426907L712.8602724830895,205.7228718003682L713.3794012036252,205.15237460893331L714.4191958929066,213.72002074102886L714.9417065595044,219.62804467335906L715.4654470246703,225.16657856628802L717.0314417762536,202.43940939053743L717.5458050273381,190.4031913392292L718.5905189108918,177.63082790703126L719.1139519264156,174.6106009471968L722.7595360565618,185.42621995032113L723.2858898436848,198.41796059115904L723.8108601074188,204.52483012310134L724.3332170491955,208.6466932903494L724.8569575143614,212.559839487253L736.433512609825,214.47495860909652L736.9570993501699,215.65189275727266L737.4831456876508,210.62141335106122L738.0045802805016,201.62944209685756L739.0618995993776,189.05473094225124L739.5810283199133,183.1074649437989L740.097851168134,173.55511301984475L741.1421038772245,176.21770267242175L741.6670741409584,185.35159196971853L742.7200891648464,200.5469846810509L747.935511167101,198.21371197325195L749.5151874277539,197.06845831435086L750.0370831950677,197.8432906591032L750.5555970163193,199.2055003776051L751.0754943609601,204.32456787049568L752.1222066671868,204.20049223611196L752.6437949848586,203.58989740368293L753.1661519266354,207.4501683340236L754.2222414469434,207.87189915694736L755.7905420708418,215.0907528963455L756.3072111942414,219.4744523870718L756.8263399147771,220.18742026142078L757.3434702126398,218.28969810040576L757.8670569529846,217.38491034003826L758.3909511429714,207.23763156492544L758.9122320110012,200.15596703932547L759.4275176110118,198.43449808898433L760.4688495485033,199.7864972293472L761.5224794716752,206.6371253159123L762.043452890063,212.98606078624948L763.0921636189627,216.46805200080706L764.1225810941627,206.2449816329498L765.1697545748525,193.23647376307213L765.6953397378703,191.76829381671288L766.2215398001723,185.2003266419056L766.7497382851474,191.4104835502148L767.2714803276401,181.56633703256193L767.796911765837,181.9959648681851L769.8738878224428,197.49993710433057L772.4779862902765,188.6385464783866L772.9998820575903,179.62800049102736L774.0501300347,171.6817896793332L774.572486976477,162.1899293899701L775.100531736631,155.33509070546845L776.6779021249687,163.5697766406153L777.2070229588697,171.54455715345213L777.7306096992146,180.24691633574716L778.2552725133065,185.5494391494845L778.7790129784723,189.89747200410002L779.8307982037923,195.779598376891L780.3539237696741,200.3397896651666L781.9137695284172,205.7556842183465L782.9574073382238,206.8969471627647L784.0035047451664,202.3377952459587L784.521249942313,200.34792790956092L785.5611983564155,189.38740611693984L786.0883207676435,186.75768353891627L787.6613868609932,201.41623417645278L788.185588500622,210.3088952836977L788.7080991672198,215.8646181958729L789.2333768805956,222.3045807630332L789.7621902648547,224.32314228766526L790.2854695555575,222.8469662351825L790.8101323696494,219.20329114217722L802.3816145460199,208.0109502744623L802.9059699104698,195.55405072032752L803.4286343018887,190.30793361006303L803.9526822166965,188.65766689134986L804.4724258365162,194.89361706397128L804.9898635840208,201.10441907621865L806.0335013938275,204.5267624351602L807.632546981927,203.9696563275144L808.1470639578324,204.12235027581497L809.1883958953239,208.26154279721837L811.2850487290184,205.45656174036552L811.8060221474061,218.62273630988L812.8442795884777,222.64238626991934L813.3646381075813,219.06543925751382L814.9332461811217,216.9631367563373L815.9845702319786,218.22150622837327L816.5026228787673,208.16758426175258L817.0199069014509,201.13820740722556L818.0603164900164,197.63067061098175L818.5829808814351,192.9068963976889L819.1079511451691,186.38937832460468L819.6246202685686,190.58578348990716L820.6665671053441,199.58360020436206L822.2368661519156,216.0286906236875L822.7624513149336,222.99951759767623L823.8136216409695,225.6720858137608L824.3402828777344,228.2210505001576L824.8650994166472,224.24396597220803L825.9174995412511,210.44152811707897L826.4420086305221,202.16105260636658L828.0013932148022,196.09707584247073L829.0445698501456,193.09702263938905L829.5692326642376,195.82614769184502L830.6134853733281,202.21904644838747L831.1375332881361,210.03307986054372L831.6589678809868,211.80620818762324L832.1765593533125,211.45876005639866L832.6963029731322,215.24428220794263L833.218198740446,217.246238501212L833.7427078297169,219.6032322537003L835.3080876820162,218.04293071733977L835.8310595230771,214.19760397016708L836.3534164648538,204.02349617832095L836.8734675343155,198.10928963256322L837.3998213214385,193.29116371478398L837.9257139340983,200.90753250829516L838.4486857751593,211.33695367571858L839.5012396245841,220.5952225479417L840.023750291182,225.47117612574885L840.5505652527678,226.54586257238822L841.0772264895328,232.1656826798685L841.5989685320257,232.05301031158146L842.1268595673587,227.69278279676232L843.7002331103503,216.98683829679166L845.2597714194515,209.96625254148768L846.3081746987092,204.194728723924L847.3551944545778,203.4395251118369L847.8786274701017,202.9414279820671L848.4043663579406,205.10443567444017L848.9253397763284,206.88297678590982L849.4406253763389,214.30703514256342L851.5262100229211,217.3143342100453L853.6065680255889,226.621593111105L854.6472850637963,232.7681525265878L855.1684122070052,234.69925221057136L855.6844664311207,233.45477361575175L867.2570246812382,230.25192927062804L867.7770757507,223.29062061360915L868.2988177931927,221.85308286678804L869.8692705645853,229.15821545897543L871.4294237729705,235.8529940047616L871.9510120906423,240.62522161831816L872.474137656524,230.96606015937093L873.5228483854238,217.92031204241206L874.0435143541696,209.40579133654788L874.5637191484523,200.35758597210102L875.6058197100488,192.68568288897472L876.1274080277204,189.46622424882673L877.1756575821572,194.1553291967339L877.6992443225022,195.54976085844828L878.2260592840881,200.41584387368954L878.752720520853,201.86993394357776L879.275538637093,205.85783523771678L879.8018924242158,212.73021927353767L880.8529090254306,223.1243464883045L881.3758808664916,234.1366547874179L882.9335744777405,240.54911249765104L885.5555050248109,228.0115125315043L887.6570770527775,221.3535637488758L891.836701211097,224.36840027939095L892.363669897504,222.75847887663568L892.8892550605219,221.86448069478104L893.4113045526567,217.1786766061108L893.9378120646007,214.46854463007892L895.504114265826,220.94461026234205L896.0240116104668,227.19376423655845L897.0664196217052,231.60698253529137L897.589698912408,228.40757633812837L898.6399468895179,231.5716340044617L899.1629187305788,235.02603252633432L899.6888113432386,233.60136682779483L900.2071714396693,240.92768029057373L901.2431230084256,247.77214390082665L901.7630203530663,241.89976351917016L902.2839937714541,243.70856875164608L902.8111161826821,237.64887419791089L903.3348566478479,234.39348156094673L904.3804928803276,233.04001559282761L904.8980843526532,229.69098870361395L905.4175205228308,219.7409233610373L906.4705355467188,225.3665332848262L907.5226282216806,237.81057804934193L908.0448314386365,240.0703966736861L910.6689141332009,243.26722543444845L911.7143966408596,237.71042951487655L913.8012110860097,216.3330696358825L914.3243366518915,207.67574874401532L914.8502292645514,213.54211780848942L916.9519550173391,227.37180674047679L919.5789584835027,226.12686487045733L920.1065420691937,221.97570702089524L932.7534830933189,225.1608167114691L934.3368487496759,236.3388897843974L934.8632025367989,243.5127570896915L936.4344239322965,249.42440488805033L936.9607777194193,254.11656517073737L937.9996500597747,249.84332281264687L938.5236979745827,246.72706898190532L939.0442102185073,244.41815478342096L939.5693342070622,241.04104404979142L940.616507687752,242.4117620567891L941.1422465755909,241.09104006087364L941.6675242889668,241.1113053532952L942.7183871653606,241.37316719645406L943.2416664560635,241.79640778986126L943.7695574913963,238.35879239236533L944.2957575536984,237.6911641884641L944.8204203677903,235.70755092614468L946.89954857189,233.14967197608303L948.4603166795592,237.11225450863526L948.979906574558,240.11826926693212L949.4973443220626,242.6320715997958L950.0172416667033,243.7635714586342L951.0670284693501,247.71329232870278L951.5936897061151,252.76096780746445L952.1212732918061,252.37730557135723L952.6443988576879,255.35805831000852L953.1722898930209,256.4535058750199L953.7001809283539,256.6700910077083L954.2225378701306,253.91991473387338L954.7455097111915,250.15184188334027L955.2746305450925,252.8637945854918L956.8344763038357,259.94513639995057L957.8747321675802,268.1412831395606L958.4007785050611,269.3457493678485L960.5011207344597,260.5706969847756L961.0277819712247,244.8853105052405L961.5565953554838,236.26517551266613L962.6069970574144,227.78504603713154L964.7033424414669,231.09621991922577L966.2624195761051,237.549793082076L967.3045201377015,239.81401733840136L969.3831871673384,242.54950527805568L969.9047754850103,236.5952649736859L970.4318978962382,237.0866133615318L970.9585591330032,238.11485138895662L972.534392273131,236.81711281051707L973.5826418275676,238.6515156002549L974.1073046416594,241.10705587610846L974.6238200402381,239.4645949358649L975.1420264118477,239.0663794824507L975.6660743266556,235.52614224898244L976.7104807605671,231.77713496764116L977.2365270980481,232.44223599126292L978.8126676878178,236.76400679287687L979.3361007033417,239.74731854212445L979.8638380138536,242.00739423678255L980.3900380761556,245.79380330655607L980.9188514604148,248.22676188118857L981.4447440730746,246.99675435503644L984.0748220356584,244.86822833502805L984.6024056213492,239.49323167428997L985.123532764558,238.43674019081658L998.292984455281,244.32571378183528L999.3298583729634,253.60784115060196L999.8528302140243,256.45190363530565L1000.3801063500732,249.10778032452225L1000.901848392566,253.21192425923556L1001.9505591214657,247.09600438219826L1002.4713788150325,247.00368763893357L1002.9960416291244,244.1484824605114L1003.511634678777,239.0473809487534L1004.0298410503866,240.62263698933384L1004.5540426900154,239.04050364132956L1005.0790129537494,243.8012873834164L1006.1284923067541,252.2955145306677L1007.1756657874439,261.05524473368666L1007.7035568227768,261.60967991541327L1008.2308329588259,260.0965855131733L1009.2812346607566,257.1458772461379L1009.8032841528915,251.2858168350262L1010.8484592109081,247.43848523433326L1011.8882539001895,248.85097666544885L1012.4072288959042,254.13631225627614L1012.9280485894709,250.49349354029673L1013.4480996589326,247.55588865431545L1013.9653836816162,248.25772463166567L1016.0580396699646,249.28735472750026L1016.5833173833405,247.6616554764276L1017.1116695931364,249.74233758606965L1017.6346414341973,252.19629832469064L1018.1594579731102,250.61609756962395L1018.6875027332642,251.251259177601L1019.2100133998621,253.32169009826092L1020.2664103698121,262.6429144234685L1020.7890747612308,264.23890204104885L1021.3154285483538,264.42282364008076L1021.8408599865508,264.40765046094987L1023.9296728543738,254.0880448022941L1024.9696212684764,246.82930600741963L1025.4925931095372,245.89386664041314L1026.015718675419,243.9460412572946L1027.0656592028868,243.88309044431458L1028.1151385558917,242.28770954222642L1028.6439519401506,244.49810252245715L1029.1706131769156,246.8191525995018L1029.6997340108167,249.8257359088728L1030.2223984022355,256.35280954059283L1030.7489059141794,261.06979447596746L1031.2738761779133,264.5895110424607L1032.3119798941636,265.79699042536515L1032.8304937154153,265.8181504660894L1033.353004382013,266.15616790406386L1033.875976223074,264.9421349144777L1034.4003315875239,260.69308595896274L1034.9253018512577,258.05736931612023L1035.4471976185716,252.2310389073778L1035.9752423787254,246.9730724025263L1036.4960620722923,237.50091471751995L1038.0517572608683,241.38119646125523L1038.574575377108,250.93275770293056L1039.6200578847668,257.56131516006246L1040.1393403301233,257.2579939270505L1041.6988786392246,241.7775195534698L1042.2216967554643,237.35895297751074L1042.7489728915134,233.92948417407567L1043.2734819807843,231.0103629875955L1043.7986059693392,234.97354421084978L1044.8499300201959,244.43716707774286L1045.3755151832138,257.0183260148125L1046.4274541333548,264.25081910812634L1046.9544228197617,270.909681288474L1048.0062080450816,263.24645406214125L1048.5287187116794,267.22457598583753L1049.0523054520243,263.3630628233586L1049.5669761527506,257.62548341916624L1050.6063096675691,257.6315256844151L1051.1258995625678,256.52314320800826L1052.160467607935,261.6091444453111L1052.6788277043659,267.60349879883603L1063.7580830038767,270.7002971767678L1064.8031043370722,269.4284290792299L1065.325461278849,266.70542628320703L1065.852122515614,265.8406304479381L1066.3734033836438,262.7109849063421L1067.408125153832,259.8015975504253L1068.4559135338056,266.30669478930014L1069.5000125180752,270.5897582833361L1070.0249827818093,272.56891688682316L1071.0723099873198,270.10015500460383" style="fill: none;" fill="none"></path></g></g></g></g><g opacity="0.2"><g><g><g><path stroke="rgb(0, 153, 136)" stroke-width="2px" d="M26.384405928463746,31.557494826480365L27.39791367335323,89.47072991003961L27.904590683387468,89.69464233415852L28.90610789223852,93.63799534186938L29.917770939275936,116.5395137369268L30.417530332364922,105.20482942578775L31.432882775106474,106.76145693639802L31.936177839078592,79.33744901784263L32.44316229875484,90.67069873455205L32.948763235042044,97.56827502937495L33.448368903310026,92.98613414394879L33.94659104818896,86.67313194057368L34.456803729106326,86.60015273362205L34.96055996754146,81.59728232378188L36.976968444671044,97.27129084382506L37.48057095828517,90.30987509688435L39.98152007122419,95.82822767935255L40.48281671252324,92.84049967072309L41.48894566600446,91.52108929063542L41.989012508735456,97.46986647922739L43.00190535434092,101.07273469610334L44.52255128372766,97.38640547749162L45.02046597896458,98.2227740299565L46.03520352242211,82.60675089121355L46.536807613363166,103.60199409137198L47.04563677089148,86.46548596619698L47.54770203629555,89.52142662609259L48.55229374156671,86.49042939837642L49.555348198627826,73.81153010668925L50.05925816188396,84.31449672794975L51.57652214520858,86.89796990948594L52.07397566598248,69.59370679052546L52.581882474584766,54.69856735266342L53.0857924378409,67.43572968908882L53.58878005217101,91.319482496035L55.10296953907552,67.95833855662522L55.60611087822662,33.817119884841134L56.62084842168416,59.55587270513746L57.6306667708695,59.807412641336384L58.13565280787268,69.53893767738197L58.636641999529715,61.34147999761001L59.13932216421781,68.01849896818965L60.64813128238712,105.63685059668L61.15526946688438,88.65534808576285L61.6614853024556,96.23650862629665L62.171697983372965,94.26912433642019L63.17982535952726,76.67900670804926L64.18533941372445,98.67404653254937L64.69063290036964,92.997286958708L67.20987526700833,76.80326109654965L67.71624482740056,82.52310478051913L68.21892499208865,69.32856134586507L68.71960673410366,72.61443047103597L69.22966569020002,74.6522024424429L69.73434427756119,65.48676374059892L72.2598893618611,71.71112189139575L76.31222936838799,68.02733792096569L77.3155912750911,67.66408472821558L88.41452335169062,67.3538883907413L88.92012428797783,55.847538659065094L92.47747037086685,77.57618355343385L94.00718606469293,100.71665447550129L95.01838793726733,106.76018431230727L95.5261410210486,114.90544126573718L96.02820628645269,102.39968826625642L98.05552922587366,60.804525185777436L98.55959291395081,28.856870812732325L99.06719227291107,57.594319347458736L100.57984451160551,78.42465360407112L101.08590662235574,87.95468753861547L102.60931959852059,75.64066114306667L104.63141589402737,60.679391529723375L105.64968910836801,73.86879819077461L106.66934584609773,75.31695185161027L107.18755221770738,88.72640678726833L107.70837191127413,83.02935464383398L108.21812341772848,101.0521413244524L108.73417764184406,81.26267474238432L109.23639663206913,94.76655838557883L110.25128790034766,91.80254746227769L111.26187487363804,92.0057970988862L112.76146050254702,78.05344072609859L113.25952892260494,57.36159110918362L113.75698244337886,43.83500847993349L114.74481814316042,35.6366946712277L115.24826693195354,39.15228401409553L115.75063964699962,33.43658214307612L116.74293336659034,96.51366301465015L117.23977198808022,104.61375338216703L118.26127342366199,115.61109975476833L118.77486805064149,117.81447482831632L119.80497807619956,88.20507054382273L120.30950293873971,84.69639964828485L121.87826473710119,47.948800561330415L123.95493334406494,86.11516726193327L124.47360089013762,82.29639258340046L124.99933977797653,86.28306108743772L125.52461749135244,77.70469544798345L126.54704127586025,84.87378030792064L127.05402573553651,78.09960227266441L128.07721814414933,80.90819108655074L129.09410783510094,91.82908745922555L129.60816363654345,92.76203661087118L130.1188374919238,83.97239223372657L130.6315097699773,83.15879208317682L131.66038999696733,47.620810625205024L132.16783563110658,40.55446123732406L135.73471265289797,99.76672157689859L137.77602455103045,117.03738741986228L139.81810507326796,93.80186304752306L140.3241671840182,89.24887682308577L140.83653201242961,82.64282399953237L153.39385146590863,47.105999472552185L153.91159666305526,44.39387556474742L154.4345685041161,81.57252400056115L154.96399678765917,94.69182064351992L156.54951459151025,113.5592826411231L157.08063384808435,104.86230843640755L158.1291908521631,74.15664262149068L158.63648276148137,53.542932123750006L159.14731034168275,78.36252640982087L160.16696707941244,65.50946272665465L160.67487388801473,77.03925188022112L161.18416422000607,85.12173375804554L162.1956735422225,94.85601228985121L162.70865326991793,99.3323171281636L163.21394675656316,99.16553395641108L163.72569668569056,107.138685855527L164.23344976947183,105.65674980973597L164.74304755110515,101.43663577020874L166.27383931867828,77.3084234447324L166.7882025697628,63.7164742144555L167.81108752873362,67.8502349247679L169.87115385502878,101.12588410585852L170.37936811327307,86.08062130252335L171.3970264283297,88.0773222237276L172.40622987823104,81.24471917339434L172.91705745843242,66.1779605922348L175.4750384799645,86.83394534840943L177.00121850290745,99.42644503364215L177.50681943919463,114.44738914753336L178.01795446903805,121.40517213116036L178.5230942308622,120.08932509852681L179.5422897941289,112.746978253284L181.58621501421848,84.7815497692684L182.60833134908427,95.18175777985289L183.62768063717198,102.02588386286271L184.14527210949757,94.24825330133126L184.6513342202478,101.20284315542136L186.69326101766433,55.491435299843204L187.2045497723287,51.6234447769267L188.2209782888173,75.92422492911373L189.24002012726297,71.14299935864886L190.25552629482553,90.8929914552827L192.8073583235174,80.89243368644486L193.82901348392016,119.58548165167457L194.33630539323843,133.6592463627232L195.8657136374225,106.07192606539013L196.8833719524791,86.86321570249754L197.39296973411246,74.36875434949502L197.90687181073395,85.0578711673079L198.92898814559976,109.74987910362245L199.43750985348606,118.62821381058504L199.94833743368744,124.73403281198006L201.99487597573412,91.09843926077531L202.51031530056565,78.75167171816355L203.52413049509718,76.11282781936825L205.05476853784927,55.366810693425464L217.50248219395132,76.88146963158346L218.01161880112167,90.9873044697199L218.52306128060707,116.86884571300251L219.03727080687057,114.68631853592359L220.05600519567426,90.68037067764209L221.07212626252084,36.73790786629513L221.58433736611127,51.21685294923037L222.09593357041769,37.444191098061765L222.60091960742085,63.92051056413834L224.1214118119866,101.25310023769748L224.63193194254598,103.1991044428488L225.64590086189847,108.00467184137744L227.66999558007834,73.30752468949811L228.6913432908391,55.03701594495311L229.7188399944401,82.76386211987608L230.23504794337666,77.73546981236069L230.74203240305292,83.30701808182374L231.26069994912558,104.72581371801573L231.77306477753703,93.55469631047248L232.79349013937176,96.42490326897274L233.30216557207908,85.48302016810987L234.85878310958108,99.32653247320553L235.87982337069985,112.56591855309489L236.39249564875328,121.88543732440334L237.40661829292682,87.99953018385082L238.43088677528667,71.85886197902619L238.93787123496296,65.02605068111438L239.45346428461548,62.15295139513512L240.47250612306118,74.3903658204186L240.98025920684245,90.57562214566042L241.49692833024204,95.3592772712077L242.00406651473932,91.36043785313848L243.02249345390095,83.32867582998693L243.5316300610713,78.8835618512087L244.5568208923572,102.05788457409102L245.06365162721244,93.98296902495184L246.08376953940515,119.82767358546116L247.10465607570293,124.60269800581088L248.13030808145183,140.59238671622862L248.64728465449343,142.60850093947232L249.1682580728812,139.81342507956813L250.22265662015815,108.79117666810328L250.7290261805504,102.64960849906709L252.2601253977655,61.72419276963922L252.7688008304728,27.674695586871053L253.28131938370524,96.98978639494305L253.79214696390665,107.35406012892776L254.81718407037152,86.93834680109359L255.3267818520049,104.60223034949047L255.83699453292223,72.41983467824485L256.3499742606177,119.45717800470345L258.9191771940832,92.68463792753153L260.96310241417274,73.43321367242817L261.47961781275137,47.574949880697034L262.49758357745,78.30775729667738L264.04928192067985,100.5595432468387L267.66904028089715,104.16199496855768L268.1757172909314,91.46236347350055L269.720190567574,64.79117055119491L280.6629382260319,78.60818913658233L281.17837755086344,73.4012360998197L281.68628435946573,80.43162807248098L282.70932304325754,82.3618980161462L283.7466581354029,121.5960426061585L284.7755383623929,144.2244327327133L285.80534093830903,98.08875514388677L288.39083870280103,73.41086176567L290.44967523052816,101.79185986187701L290.9677278773168,108.08403730740281L291.48470445035844,102.73568416484386L291.999528875906,96.36402556019345L293.0370176928723,102.74077466120701L293.5498436957468,87.0888635231039L295.08524720795003,81.56722525661951L296.6341785044018,125.74667137032876L298.1728102378462,122.81019540462827L299.71251804503765,110.75168878788955L300.23656595984545,107.88719706848792L300.74416531880576,102.63720619883685L301.2588360195323,104.30700469904781L301.76889497562865,104.65151560973362L302.80515399402697,105.94568175558413L303.3236678152786,103.46547623436032L303.83895341528915,113.21921434544515L304.87060068905726,92.20800549760224L305.38311924228975,93.32418937970135L305.9033240365725,89.01913346676912L306.93358778695153,61.611692800013714L307.96754093303474,45.361185566844256L308.47775361395213,69.29019751418281L310.54842695289665,129.40808029538084L312.6164869698841,110.81615298274284L314.1624974947368,88.93689881188442L314.6771681954633,73.19673697774022L315.70727822102134,108.76225339331268L316.2268681160201,129.14423061343106L317.25436481962106,142.34087966248984L318.28416739553717,151.13945554688985L319.8303316452108,114.1280299166055L323.4427112140198,88.86820024960184L324.9980989529538,109.41293452162188L325.5115398551123,104.23876890916182L327.057857829607,85.69457656923822L327.57544930193257,94.61692093112214L328.0962689954993,107.11487621571933L329.12484177284733,117.28742334577205L329.63889757428984,114.87462062412033L330.15464434876344,109.0610655298293L330.6722358210891,118.63381335658448L331.70372937003617,105.11188158992064L334.27785149777384,91.35592582227116L345.2673315018174,119.47212555311526L348.367038792573,101.4560953494879L349.4005307641932,120.09823346716237L349.9198132095499,139.8103939203701L350.4452446477468,136.04858652386486L350.9671404150606,124.57463085995411L351.48673031005933,127.93452042996913L352.0038606079219,122.07609955182298L352.5228356036366,147.46254374654995L353.04457764612937,134.09860247610237L353.5643212659491,139.68889302762972L354.0782233425706,144.4291863796109L355.11033179080175,134.97062764172907L356.6634136574206,95.45745443515688L357.1811588545673,90.80950731492709L357.69721307868286,93.38034681003472L358.73039760066104,93.16726325999747L359.2484502474497,102.39112697691843L359.7651193708493,119.8490073929467L360.80875718065585,126.58396546758689L361.8382523069299,134.614963916284L362.87481877497027,121.54997361407206L363.3841091069616,115.48573471251595L364.9384207721485,107.41891768031815L365.4543212714431,128.91175689997414L365.9739111664418,142.44042200500917L367.01770270106937,143.66059084463538L367.5291451805548,130.64962921973228L368.0475052769854,118.84821580795224L369.07684667843847,117.54798734370561L370.11725626700394,104.86351164463883L370.6357700882556,85.78798717750198L372.1783986670461,64.82488352029083L372.6933768174146,58.39725259426564L373.2089698670672,100.78408041369312L373.72610016492985,145.01514878824864L374.23954106708834,148.00898539251384L374.75528784156194,155.0631870049828L375.27118834085644,142.0603933128805L375.78632021604597,136.1889685303885L376.8204270869502,124.3751528183783L377.3458585251471,107.03738497790039L377.86037550105266,96.7309346548771L379.41991381015384,113.75457259250922L379.9395037051525,116.36157775041502L380.4564802781941,120.49133547949637L381.4935079206974,142.35182422967063L382.01048449373906,162.37984998221154L382.52530891928654,150.6326272180792L383.0442839150013,128.58385951832804L384.0702433703922,91.70471737762597L385.1406292990537,79.03937731716059L385.65529999978025,81.7274833375792L386.1731989217479,108.98630464915055L387.2159143826284,143.5738210202636L388.2444871599764,137.41429728223736L389.2735211117875,93.52271873786401L389.7941870805332,79.79450617539362L390.31808127052005,71.69455463959571L391.87823447890526,116.93057955071555L393.93538003360135,185.96145869138522L394.454201304495,163.97944590985077L395.48630975272613,124.49737100833343L396.0023639768417,111.12840865738215L397.0363171229249,74.36190531802464L399.10652928740643,124.22708879007021L410.16441683679744,145.30070249560129L411.206517398394,166.0932976632669L412.2426226919713,156.43246111080953L414.3156019032309,134.0443424125952L415.8865158490865,109.89382445760032L416.402570073202,113.28874589804175L417.4452855340826,109.33481854106742L417.96456797943927,115.05084435276447L418.4889233438891,137.9238791068081L419.012202634592,156.95458406732942L419.5325611536957,154.3590788034804L420.0460020558542,147.6180121332044L420.5651307763899,131.96688770817556L421.08441322174656,98.2852483035042L421.59862274801014,86.69363275774526L423.66806628838657,103.18815987566802L424.18658010963827,116.82053227479227L425.2268359733827,134.4345058202105L426.264324790349,132.940607107966L427.31011474764966,146.82525987912382L427.8312418908584,152.68402783656745L428.87518715030706,158.47615656889354L429.39016530067556,156.18952874118827L429.90914029639026,143.73440304190098L431.47867071885673,124.3227438444577L431.9990292379604,135.75986282559518L432.5173893343911,124.2086010328241L433.0374404038529,124.96710812955263L433.55533932582046,99.25658442545188L434.59866968598504,107.413827183955L435.11103451439647,128.6644744698244L435.6310855838582,127.08281097255534L436.67441594402277,141.87290107637793L437.1972340602626,148.07409746872244L437.72035962614444,128.27604645869656L438.23856599775405,118.91064380426027L438.7592319664998,120.0140783068316L439.2788218614985,125.03453406774446L439.8021011522014,129.13277699661398L440.32691769111426,113.65683506233682L440.8508118811011,116.90207277108195L442.40543099593003,154.98231752866826L443.4479927319896,140.81928402230588L444.49393641411126,112.19924084460956L446.04701828073013,135.6620096023236L446.5607666325306,136.05569008015343L447.07835810485625,132.78421317651828L447.59717937574993,120.08254548291592L448.1216884650208,111.48756631442194L448.64619755429175,102.17684021864977L449.1688619457105,94.74818632143183L449.6852236194681,109.71720737241901L450.7228661612554,162.1609817772161L451.2461454519583,182.67112381258661L451.7738827624703,183.5719796985246L453.85670036227424,157.83475402713714L455.9465893038445,82.02560131550092L456.4698685945473,75.11714986935681L457.51980912201515,90.39861170394192L458.043703312002,110.6962949320106L458.5560681404134,123.59852818232088L459.0744282368441,139.9354812991845L459.5978612523679,146.3974730756609L460.1209868182498,163.24433195777286L461.67637455718375,176.63283487317264L462.19519582807743,181.28780456452156L462.71770649467527,175.6821499694254L475.84273171212766,130.72397360525403L476.89390203816356,109.16905346858749L477.4236377713486,151.14315772606304L477.9435351159893,151.31021856125358L478.46420108473507,165.6527614802763L479.5075314448996,192.8508554840973L481.0652250561487,128.98994229638808L481.58850434685155,136.39800282195515L482.6346017537942,133.9388997220186L483.158034769318,131.6523413101728L483.6756262416436,136.736428275625L484.1976757337784,145.07306475368935L484.7183417025242,133.773504867456L485.240698644301,120.7164742504664L486.2721921932481,86.84352473702006L487.82542778468803,127.15791893253157L488.34609375343376,147.65709326210148L489.3872719661042,160.76030856427673L490.43536779571997,145.08937748067126L490.95880081124386,130.25268619650603L491.48653812175576,129.26658763510522L492.0108934862057,123.37748494706122L493.06068028885244,131.98276080138064L493.57980900938816,122.22050767819752L494.10308830009103,136.26118416288568L494.62144839652166,148.64046146636207L495.1421143652674,145.48807903900476L495.66493248150726,153.55577533875615L496.1888266714941,150.78890545642776L496.7125671366599,182.78110167265038L498.27056819755103,184.57695937370872L498.78877456916064,173.06811067109058L500.86636552505047,100.59003994777794L501.3871852186172,78.41218188798138L502.43835554465306,103.54724811684832L503.492292917467,129.42548053749488L504.53977384779864,132.57038919064632L505.05951746761843,155.902401607687L505.57587914137594,139.99251799707156L506.09562276119567,168.6518042740038L506.6182871526145,171.52717114472668L507.1446409397374,157.57907227798825L508.186280326871,125.9896268785698L509.2282271636464,155.96941105072187L510.2687904770329,140.5076762290219L511.8307883832701,116.48937234774982L512.3549900228991,130.84716361724216L512.8687383746995,135.59696694197447L513.3904804171923,154.30680866127884L513.9179102780622,166.96249991727404L514.9617018126899,182.44750062121557L515.4894391232018,177.17514627549645L516.0119497897996,191.84629230407015L517.0583546463843,175.66509680660891L517.5744088705,145.1606444297553L518.6140498349603,111.44931817583884L520.1660556278322,132.1775417031305L521.2089248135337,145.33413780125926L521.7343562517307,152.85374961303867L522.2508716503093,153.01729337801464L523.8108711338734,133.87767493394185L525.3959277632614,111.80972531834956L525.9202831277113,125.38913341667723L526.966226809833,143.34419335704604L528.0129391160597,161.2551279493943L529.0455087387538,165.10428363576716L529.5666358819625,162.856320441802L542.1531630514327,135.29755320134217L543.190036969115,106.92386690900224L543.7114715619657,96.62641750909381L544.2304465576805,84.71373047453937L544.7526497746362,83.72059777270948L545.799208356042,123.84733776137955L546.3192594255037,141.1012512435845L546.8343913006931,158.03337593977918L547.3533662964078,169.3007962830652L549.441410540126,171.37422486763398L550.4813589542284,141.9344266665125L551.0046382449312,139.73329603908826L551.527148911529,113.51860494745762L552.0531952490101,103.67846722991834L552.5737074929348,102.49677791507355L554.6463792545524,151.94377711088669L555.1699659948972,170.00853724788132L555.6887872657909,172.59057583498785L556.2059175636534,165.91705079600288L557.7688378188168,163.85086459944168L558.2927320088036,146.08584214375705L558.8090936825612,129.46613509254053L559.3289910272019,136.66437461346663L559.8496569959476,119.11245884643918L560.8912963830811,142.42110125744907L561.4076580568387,161.65642103314903L561.9247883547014,163.86090676044898L562.4463766723732,184.68000721713267L563.498161897693,175.2150622201771L565.0706130917586,137.80702907665406L565.5957370803135,158.26011127551766L566.1194775454794,164.96420243130132L566.6358392192369,155.2398040901641L567.6742503851293,181.79060677348136L568.194762629054,165.50541474918305L568.7183493693989,175.37889521790095L569.7747463393489,145.58209125138413L570.2972570059467,156.34659369261115L571.3430469632474,168.39373924701212L571.8592549121839,187.6703151818734L573.9494513033962,140.24329435881597L574.4659667019747,104.57117832167523L575.5051464919721,184.47265047550388L576.028118333033,190.0308246227038L576.5487843017788,216.5378606066079L577.0728322165866,223.6493187338523L577.5984173796046,228.93512818700407L578.1229264688754,209.5547639728842L578.6472818333253,160.91633227780716L579.6821573283345,138.65610073140692L580.2029770219013,157.79359042245517L580.725180238857,148.34472676628317L582.2939420372186,186.1742414393647L582.808766462766,209.25513041536348L583.3271265591967,194.09840888029524L583.8476388031214,167.96248165057435L584.890507988823,114.56303596945614L588.0191155459277,184.87190736071335L588.5453156082295,181.72141073087232L589.0679799996484,178.14620473400615L590.1053150917937,169.16066880135972L592.1938205099749,180.76341402325806L593.7556646913911,192.43927728382704L605.8522708563166,161.80716914135766L607.4165746348689,157.58363058609524L607.9400076503928,142.1806215815301L608.9779576418221,160.53431366437286L609.4990847850308,177.30018737707115L610.0202119282396,189.96537703650762L610.5422614203744,196.42345838623234L611.587129028749,180.07114122579998L612.116864761934,184.311443711131L612.644294622804,171.7610563139934L613.1675739135069,176.1934671904836L613.6916218283147,171.35219690155344L614.2058313545783,165.75033704010988L614.7288031956391,167.59624357586583L615.2485468154588,176.4892597371121L615.7756692266869,163.7273737853957L616.8225352577344,156.10923773036959L617.3456608236163,146.46809214338964L618.3992907467882,138.347246433883L619.4400077849957,148.18955918168652L619.9579067069634,159.44358226408957L620.9981625707077,188.61516915342284L622.0268890728768,205.62243651752348L622.5486311153696,195.00745583765394L623.0728327549984,181.45319941908414L623.5911928514291,159.48962811755618L625.1722526354711,145.52135237432384L625.6952244765318,161.5167100466005L626.2080504794063,175.91922826822903L626.7230286297748,180.05472437502883L627.7722005331376,202.86713594511133L628.2919441529573,185.5941562401644L632.4458962661689,168.8474875819271L632.9673308590196,169.31743295072476L634.0114298432892,182.3110753186833L634.5268691681207,191.01366063870822L635.5665101325812,212.06222678827064L636.0896356984631,205.8150076810793L636.6066122715047,201.15044703180985L637.1265096161453,202.0584180433463L638.6931192670128,145.6536821411458L639.2185507052096,172.95246384916786L640.2594214682381,155.91957046360275L640.7816246851938,175.29920581119788L641.2979863589516,192.74307579291758L641.8183448780553,190.13212550033037L643.3806502339345,190.94854856249964L647.5409050648072,154.28510463587594L648.0606486846269,184.34668382913586L648.5843891497927,197.2038546173224L649.6312551808404,192.76474511039072L650.671818494227,178.80239285383547L651.1924844629726,183.7864978429915L651.7185308004537,169.2804111589928L652.7633984088283,193.1735003990414L653.2894447463092,210.8648957664191L653.813185211475,209.57759022134894L654.3307766838007,230.9799574374599L654.8468309079161,223.13360517502596L656.4074452907644,158.13294142091837L656.9227308907749,148.83931476520243L657.4418596113106,145.52635031620767L660.0516458975216,180.46564312463386L671.1218314325931,194.31798281319556L671.6398840793817,193.65959652448217L672.1610112225904,180.4295006004555L673.1997298381249,165.75288228829146L673.7150154381353,146.8825973790687L674.7628038181091,174.5645430622067L677.9035556360732,206.9720543658025L678.427911000523,196.4073307682091L679.4640162941004,199.82437272921038L679.9857583365931,195.71144834605715L680.5122658485371,179.95778512724067L682.5917015022789,163.72036278358647L683.1108302228146,145.1607138456148L683.6331871645915,161.05588129401684L684.1550829319052,184.39456920287918L684.6691387333477,194.25200303874325L685.1942627219026,204.9217412624464L685.7156973147534,199.51876940777288L686.7610260975911,201.64183033188232L687.2846128379359,207.8579511340188L687.8100442761328,194.76982221197434L688.3347070902247,178.85410766916104L688.8526060121924,206.04035469962784L689.369428860413,169.88766109787642L689.8907097284426,182.5252810917825L691.9776778984138,201.1779357121708L693.0142443664541,183.20805548579932L693.5382922812619,176.7961356826404L696.1646808481414,193.42851112821518L696.6862691658132,178.89107161434347L697.7199148622545,200.93589417941317L698.7584797529679,194.4268615888173L699.2839111911647,183.4369889904219L699.8113410520347,172.84517006900464L700.8578996334404,173.42793934810547L702.4195900900356,187.36231701328325L702.9401023339603,196.45061155660576L704.4950288984314,196.78613311348664L705.538359258596,170.28203573430125L707.0980512925181,196.21737426869433L708.6629699703544,223.63750646842783L709.1845582880262,222.3857649820402L710.2291184467588,213.31760103797197L710.7579318310178,225.29037906823135L711.2867452152768,219.39247213534105L711.8107931300847,212.84556162407944L712.3362245682816,190.6567937050319L712.8602724830895,205.08197620478632L713.3794012036252,204.2410609135244L714.4191958929066,227.40600092606465L714.9417065595044,229.06553744837993L715.4654470246703,234.01384699265512L717.0314417762536,166.13497031758519L717.5458050273381,171.17650536116545L718.5905189108918,157.22822138546834L719.1139519264156,169.78608255681183L722.7595360565618,202.7031178384288L723.2858898436848,219.17100083561448L723.8108601074188,214.27995937542468L724.3332170491955,215.23096821984956L724.8569575143614,218.81070938620292L736.433512609825,217.5341748686648L736.9570993501699,217.53193042254105L737.4831456876508,202.5857124813988L738.0045802805016,187.26564385962317L739.0618995993776,168.96785468229567L739.5810283199133,173.60728679042705L740.097851168134,158.2961612452167L741.1421038772245,180.4709302992656L741.6670741409584,199.9420904576081L742.7200891648464,224.82014446668575L747.935511167101,194.48653608936527L749.5151874277539,195.23902714493738L750.0370831950677,199.08100985916218L750.5555970163193,201.38149772014708L751.0754943609601,212.50177957991835L752.1222066671868,204.00229349547303L752.6437949848586,202.61453163240014L753.1661519266354,213.61657514482746L754.2222414469434,208.54557306889055L755.7905420708418,226.62216860992945L756.3072111942414,226.47698533979056L756.8263399147771,221.32631699577038L757.3434702126398,215.25827179125187L757.8670569529846,215.9396000215292L758.3909511429714,191.02834209299195L758.9122320110012,188.84369773219834L759.4275176110118,195.68461911636138L760.4688495485033,201.94618416784886L761.5224794716752,217.5803364152306L762.043452890063,223.12786679730755L763.0921636189627,222.03019381107447L764.1225810941627,189.91462247390507L765.1697545748525,172.45664950339744L765.6953397378703,189.42301935694417L766.2215398001723,174.70863881721345L766.7497382851474,201.33060432582553L767.2714803276401,165.8412718160515L767.796911765837,182.68225348872602L769.8738878224428,222.26602262440713L772.4779862902765,174.48333807590458L772.9998820575903,165.2345309268042L774.0501300347,158.98849188922432L774.572486976477,147.02760710955883L775.100531736631,144.3851535860697L776.6779021249687,176.7238853422135L777.2070229588697,184.28349225837334L777.7306096992146,194.14808749707558L778.2552725133065,194.01970286493506L778.7790129784723,196.8430309796547L779.8307982037923,205.17572232303763L780.3539237696741,207.62425107371072L781.9137695284172,214.4070482448546L782.9574073382238,208.7200035544977L784.0035047451664,195.05499413209975L784.521249942313,197.16930865791252L785.5611983564155,171.87904013651922L786.0883207676435,182.55695786233315L787.6613868609932,224.83184103901107L788.185588500622,224.5140552342318L788.7080991672198,224.73934440623074L789.2333768805956,232.5917936949905L789.7621902648547,227.5475977101295L790.2854695555575,220.488918774723L790.8101323696494,213.3828750845194L802.3816145460199,190.1322759013593L802.9059699104698,175.65536701696934L803.4286343018887,181.92777251184833L803.9526822166965,186.02152654847032L804.4724258365162,204.85494006699003L804.9898635840208,211.02557034253581L806.0335013938275,209.99362260593693L807.632546981927,203.07973358413216L808.1470639578324,204.36626398543794L809.1883958953239,214.87349968205757L811.2850487290184,200.9758777144837L811.8060221474061,239.65441776507845L812.8442795884777,229.0633855567355L813.3646381075813,213.35161480912572L814.9332461811217,213.60491328043187L815.9845702319786,220.23162889149572L816.5026228787673,192.1074231981896L817.0199069014509,189.90946256168243L818.0603164900164,192.0277222221766L818.5829808814351,185.36112719983151L819.1079511451691,175.97827802604152L819.6246202685686,197.28913200071503L820.6665671053441,213.95673599498474L822.2368661519156,242.29812077403855L822.7624513149336,234.1347347119699L823.8136216409695,229.94125322386992L824.3402828777344,232.29277331089537L824.8650994166472,217.89096081717173L825.9174995412511,188.39347803680786L826.4420086305221,188.93379951782603L828.0013932148022,186.41046360923448L829.0445698501456,188.30472986044037L829.5692326642376,200.18565913927472L830.6134853733281,212.43107952702022L831.1375332881361,222.51523712931285L831.6589678809868,214.63860798282812L832.1765593533125,210.9037455091178L832.6963029731322,221.29128512534402L833.218198740446,220.44416868396698L833.7427078297169,223.36830019598685L835.3080876820162,215.5505009904262L835.8310595230771,208.0550690363717L836.3534164648538,187.77134996537194L836.8734675343155,188.6619207347944L837.3998213214385,185.59467685911062L837.9257139340983,213.07393980182601L838.4486857751593,227.99693813796637L839.5012396245841,235.38440529188253L840.023750291182,233.26003703575256L840.5505652527678,228.26256949364327L841.0772264895328,241.14279791649287L841.5989685320257,231.87302717782424L842.1268595673587,220.72774403932397L843.7002331103503,199.88513474489045L845.2597714194515,198.7515506206774L846.3081746987092,194.97528158677687L847.3551944545778,202.2331609003212L847.8786274701017,202.1457663332139L848.4043663579406,208.55962978043877L848.9253397763284,209.7240229769588L849.4406253763389,226.16624524475026L851.5262100229211,222.1182015516073L853.6065680255889,241.4890326543562L854.6472850637963,242.58668250196942L855.1684122070052,237.78399586160995L855.6844664311207,231.46684027597496L867.2570246812382,225.1356973946512L867.7770757507,212.17060808356598L868.2988177931927,219.55675633615166L869.8692705645853,240.8274532361059L871.4294237729705,246.54725064283565L871.9510120906423,248.24839040360973L872.474137656524,215.53649055611763L873.5228483854238,197.08100011532187L874.0435143541696,195.8046738453622L874.5637191484523,185.9039592211015L875.6058197100488,180.43056497696784L876.1274080277204,184.32345265482405L877.1756575821572,201.64571762001418L877.6992443225022,197.77722961677128L878.2260592840881,208.18893752141253L878.752720520853,204.1927011980745L879.275538637093,212.22811912315962L879.8018924242158,223.70818338270615L880.8529090254306,239.72795229890608L881.3758808664916,251.72774466781988L882.9335744777405,250.79238909971167L885.5555050248109,207.98391778038683L887.6570770527775,210.71813907013157L891.836701211097,229.18430798398006L892.363669897504,220.1867862462604L892.8892550605219,220.4364056770132L893.4113045526567,209.69356098394934L893.9378120646007,210.13937277226174L895.504114265826,231.2894943242689L896.0240116104668,237.17617902654044L897.0664196217052,238.656668908592L897.589698912408,223.29683656863423L898.6399468895179,236.6259079389943L899.1629187305788,240.54409769763737L899.6888113432386,231.3256021405175L900.2071714396693,252.63075244540227L901.2431230084256,258.70550784967224L901.7630203530663,232.51920784457602L902.2839937714541,246.59795892819855L902.8111161826821,227.96910237830792L903.3348566478479,229.1933089070949L904.3804928803276,230.87798553985814L904.8980843526532,224.34124445201292L905.4175205228308,203.84666313847976L906.4705355467188,234.35289718906046L907.5226282216806,257.6887274783735L908.0448314386365,243.68023681387228L910.6689141332009,248.37384800034147L911.7143966408596,228.8339892797163L913.8012110860097,182.18481943956738L914.3243366518915,193.84652186479886L914.8502292645514,222.9130709894026L916.9519550173391,249.46338776170342L919.5789584835027,224.13819149367296L920.1065420691937,215.34463668977662L932.7534830933189,230.24871920420392L934.3368487496759,254.19477274504908L934.8632025367989,254.97231135658984L936.4344239322965,258.8676864360781L936.9607777194193,261.61183419373094L937.9996500597747,243.0172343705023L938.5236979745827,241.74915701851296L939.0442102185073,240.72988924558226L939.5693342070622,235.64643859217546L940.616507687752,244.60135056147362L941.1422465755909,238.98131531415157L941.6675242889668,241.1436771840465L942.7183871653606,241.79146598487665L943.2416664560635,242.47249341309612L943.7695574913963,232.86753662753418L944.2957575536984,236.62469316145308L944.8204203677903,232.53892194867328L946.89954857189,229.06370949741316L948.4603166795592,243.4420941385564L948.979906574558,244.92008504966606L949.4973443220626,246.64762597566897L950.0172416667033,245.5710322721033L951.0670284693501,254.0225867055657L951.5936897061151,260.82413772808377L952.1212732918061,251.7644425188742L952.6443988576879,260.119520476945L953.1722898930209,258.2033766606876L953.7001809283539,257.0160646612235L954.2225378701306,249.52677601073447L954.7455097111915,244.13271252469647L955.2746305450925,257.1958748759417L956.8344763038357,271.2568902074626L957.8747321675802,281.2338292301065L958.4007785050611,271.2697668493994L960.5011207344597,246.55340551571112L961.0277819712247,219.82943340156754L961.5565953554838,222.49534948556683L962.6069970574144,214.2388651866022L964.7033424414669,236.38549767893483L966.2624195761051,247.85874761494068L967.3045201377015,243.4308950465575L969.3831871673384,246.91918081802297L969.9047754850103,227.08394604592627L970.4318978962382,237.87149455250648L970.9585591330032,239.75736148471316L972.534392273131,234.74410183456823L973.5826418275676,241.5817953812646L974.1073046416594,245.02954229078358L974.6238200402381,236.8409235637876L975.1420264118477,238.43026908284105L975.6660743266556,229.87095809681884L976.7104807605671,225.78846099874534L977.2365270980481,233.50467009393145L978.8126676878178,243.66761469675367L979.3361007033417,244.5128684792342L979.8638380138536,245.61764502175583L980.3900380761556,251.8422229894411L980.9188514604148,252.11317622767945L981.4447440730746,245.03193713793627L984.0748220356584,241.46811534202763L984.6024056213492,230.90719804739666L985.123532764558,236.74909795098242L998.292984455281,253.73277549216385L999.3298583729634,268.43513551889157L999.8528302140243,260.99501643554663L1000.3801063500732,237.3762586722319L1000.901848392566,259.7678944406607L1001.9505591214657,237.32641808511272L1002.4713788150325,246.8562206334588L1002.9960416291244,239.58757029238245L1003.511634678777,230.89886814425697L1004.0298410503866,243.1389550801311L1004.5540426900154,236.51319972179027L1005.0790129537494,251.40617569869798L1006.1284923067541,265.86421503861453L1007.1756657874439,275.04806051253524L1007.7035568227768,262.49533611479455L1008.2308329588259,257.67956458491983L1009.2812346607566,252.43240819619825L1009.8032841528915,241.9249411133803L1010.8484592109081,241.29274774231726L1011.8882539001895,251.10729414632183L1012.4072288959042,262.579121057208L1012.9280485894709,244.6744454615244L1013.4480996589326,242.8633509793064L1013.9653836816162,249.3788392448355L1016.0580396699646,250.93208851695027L1016.5833173833405,245.06475927016862L1017.1116695931364,253.06602459238098L1017.6346414341973,256.1162615824879L1018.1594579731102,248.09188077906285L1018.6875027332642,252.26586797995395L1019.2100133998621,256.6290018286657L1020.2664103698121,277.53266237152724L1020.7890747612308,266.78833680679406L1021.3154285483538,264.7166204800929L1021.8408599865508,264.3834127851953L1023.9296728543738,237.60347991898686L1024.9696212684764,235.23417780262014L1025.4925931095372,244.39959336584428L1026.015718675419,240.83457993101433L1027.0656592028868,243.7825326521517L1028.1151385558917,239.73924394538432L1028.6439519401506,248.02899001035814L1029.1706131769156,250.52680402127447L1029.6997340108167,254.62845989656927L1030.2223984022355,266.7791739133404L1030.7489059141794,268.60471846364385L1031.2738761779133,270.211915427898L1032.3119798941636,267.7258211279269L1032.8304937154153,265.8519515701033L1033.353004382013,266.6961178374517L1033.875976223074,263.00283546358037L1034.4003315875239,253.90564412093232L1034.9253018512577,253.8470687048264L1035.4471976185716,242.924043579127L1035.9752423787254,238.5739830506206L1036.4960620722923,222.37006542848385L1038.0517572608683,247.57956859735188L1038.574575377108,266.1904464396327L1039.6200578847668,268.14979005911744L1040.1393403301233,256.7734678015898L1041.6988786392246,217.04896958008757L1042.2216967554643,230.3007232522774L1042.7489728915134,228.4512417997573L1043.2734819807843,226.34735122217907L1043.7986059693392,241.30434019085334L1044.8499300201959,259.5543828261565L1045.3755151832138,277.11550197922236L1046.4274541333548,275.8040223610823L1046.9544228197617,281.5465650311073L1048.0062080450816,251.00519498631098L1048.5287187116794,273.57923827953425L1049.0523054520243,257.1946716677104L1049.5669761527506,248.46025917610586L1050.6063096675691,257.64117761461773L1051.1258995625678,254.75261016128042L1052.160467607935,269.7335360321714L1052.6788277043659,277.1788960129084L1063.7580830038767,275.6471309493081L1064.8031043370722,267.3967436766693L1065.325461278849,262.3556945441056L1065.852122515614,264.45920333445656L1066.3734033836438,257.7116809892473L1067.408125153832,255.1541346312335L1068.4559135338056,276.69795401503535L1069.5000125180752,277.4315350335494L1070.0249827818093,275.730429980705L1071.0723099873198,266.1565483615781" style="fill: none;" fill="none"></path></g></g></g></g></g></g><g transform="translate(40, 366)" clip-path="url(#clip_1)"><clipPath id="clip_1"><rect width="1119" height="34"></rect></clipPath><g><g visibility="inherit"><g><g transform="translate(0,0)" style="visibility: inherit;"><text transform="translate(3,14)" style="text-anchor: start; font-family: &quot;Helvetica Neue&quot;, sans-serif; font-size: 12px; font-weight: 200;" fill="rgb(50, 49, 63)" stroke="none" stroke-width="1px">08:46 AM</text></g><g transform="translate(123.28300215144976,0)" style="visibility: inherit;"><text transform="translate(3,14)" style="text-anchor: start; font-family: &quot;Helvetica Neue&quot;, sans-serif; font-size: 12px; font-weight: 200;" fill="rgb(50, 49, 63)" stroke="none" stroke-width="1px">09:00 AM</text></g><g transform="translate(261.63534105643,0)" style="visibility: inherit;"><text transform="translate(3,14)" style="text-anchor: start; font-family: &quot;Helvetica Neue&quot;, sans-serif; font-size: 12px; font-weight: 200;" fill="rgb(50, 49, 63)" stroke="none" stroke-width="1px">09:15 AM</text></g><g transform="translate(399.98767996141015,0)" style="visibility: inherit;"><text transform="translate(3,14)" style="text-anchor: start; font-family: &quot;Helvetica Neue&quot;, sans-serif; font-size: 12px; font-weight: 200;" fill="rgb(50, 49, 63)" stroke="none" stroke-width="1px">09:30 AM</text></g><g transform="translate(538.3400188663903,0)" style="visibility: inherit;"><text transform="translate(3,14)" style="text-anchor: start; font-family: &quot;Helvetica Neue&quot;, sans-serif; font-size: 12px; font-weight: 200;" fill="rgb(50, 49, 63)" stroke="none" stroke-width="1px">09:45 AM</text></g><g transform="translate(676.6923577713706,0)" style="visibility: inherit;"><text transform="translate(3,14)" style="text-anchor: start; font-family: &quot;Helvetica Neue&quot;, sans-serif; font-size: 12px; font-weight: 200;" fill="rgb(50, 49, 63)" stroke="none" stroke-width="1px">10:00 AM</text></g><g transform="translate(815.0446966763507,0)" style="visibility: inherit;"><text transform="translate(3,14)" style="text-anchor: start; font-family: &quot;Helvetica Neue&quot;, sans-serif; font-size: 12px; font-weight: 200;" fill="rgb(50, 49, 63)" stroke="none" stroke-width="1px">10:15 AM</text></g><g transform="translate(953.397035581331,0)" style="visibility: inherit;"><text transform="translate(3,14)" style="text-anchor: start; font-family: &quot;Helvetica Neue&quot;, sans-serif; font-size: 12px; font-weight: 200;" fill="rgb(50, 49, 63)" stroke="none" stroke-width="1px">10:30 AM</text></g><g transform="translate(1091.7493744863111,0)" style="visibility: hidden;"><text transform="translate(3,14)" style="text-anchor: start; font-family: &quot;Helvetica Neue&quot;, sans-serif; font-size: 12px; font-weight: 200;" fill="rgb(50, 49, 63)" stroke="none" stroke-width="1px">10:45 AM</text></g><g transform="translate(1119.22,0)" style="visibility: hidden;"><text transform="translate(3,14)" style="text-anchor: start; font-family: &quot;Helvetica Neue&quot;, sans-serif; font-size: 12px; font-weight: 200;" fill="rgb(50, 49, 63)" stroke="none" stroke-width="1px">10:47 AM</text></g></g><g><line x1="0" y1="0" x2="0" y2="17" fill="rgb(0, 0, 0)" stroke="rgb(204, 204, 204)" stroke-width="1px"></line><line x1="123.28300215144976" y1="0" x2="123.28300215144976" y2="17" fill="rgb(0, 0, 0)" stroke="rgb(204, 204, 204)" stroke-width="1px"></line><line x1="261.63534105643" y1="0" x2="261.63534105643" y2="17" fill="rgb(0, 0, 0)" stroke="rgb(204, 204, 204)" stroke-width="1px"></line><line x1="399.98767996141015" y1="0" x2="399.98767996141015" y2="17" fill="rgb(0, 0, 0)" stroke="rgb(204, 204, 204)" stroke-width="1px"></line><line x1="538.3400188663903" y1="0" x2="538.3400188663903" y2="17" fill="rgb(0, 0, 0)" stroke="rgb(204, 204, 204)" stroke-width="1px"></line><line x1="676.6923577713706" y1="0" x2="676.6923577713706" y2="17" fill="rgb(0, 0, 0)" stroke="rgb(204, 204, 204)" stroke-width="1px"></line><line x1="815.0446966763507" y1="0" x2="815.0446966763507" y2="17" fill="rgb(0, 0, 0)" stroke="rgb(204, 204, 204)" stroke-width="1px"></line><line x1="953.397035581331" y1="0" x2="953.397035581331" y2="17" fill="rgb(0, 0, 0)" stroke="rgb(204, 204, 204)" stroke-width="1px"></line><line x1="1091.7493744863111" y1="0" x2="1091.7493744863111" y2="17" fill="rgb(0, 0, 0)" stroke="rgb(204, 204, 204)" stroke-width="1px"></line><line x1="1119.22" y1="0" x2="1119.22" y2="17" fill="rgb(0, 0, 0)" stroke="rgb(204, 204, 204)" stroke-width="1px"></line></g><line x1="0" y1="0" x2="1119.22" y2="0" style="visibility: inherit;" fill="rgb(0, 0, 0)" stroke="rgb(204, 204, 204)" stroke-width="1px"></line></g><g visibility="inherit"><g><g transform="translate(61.64150107572488,0)" style="visibility: inherit;"><text transform="translate(0,31)" style="text-anchor: middle; font-family: &quot;Helvetica Neue&quot;, sans-serif; font-size: 12px; font-weight: 200;" fill="rgb(50, 49, 63)" stroke="none" stroke-width="1px">August 18, 2020</text></g><g transform="translate(192.45917160393986,0)" style="visibility: inherit;"><text transform="translate(0,31)" style="text-anchor: middle; font-family: &quot;Helvetica Neue&quot;, sans-serif; font-size: 12px; font-weight: 200;" fill="rgb(50, 49, 63)" stroke="none" stroke-width="1px">August 18, 2020</text></g><g transform="translate(330.8115105089201,0)" style="visibility: inherit;"><text transform="translate(0,31)" style="text-anchor: middle; font-family: &quot;Helvetica Neue&quot;, sans-serif; font-size: 12px; font-weight: 200;" fill="rgb(50, 49, 63)" stroke="none" stroke-width="1px">August 18, 2020</text></g><g transform="translate(469.16384941390027,0)" style="visibility: inherit;"><text transform="translate(0,31)" style="text-anchor: middle; font-family: &quot;Helvetica Neue&quot;, sans-serif; font-size: 12px; font-weight: 200;" fill="rgb(50, 49, 63)" stroke="none" stroke-width="1px">August 18, 2020</text></g><g transform="translate(607.5161883188805,0)" style="visibility: inherit;"><text transform="translate(0,31)" style="text-anchor: middle; font-family: &quot;Helvetica Neue&quot;, sans-serif; font-size: 12px; font-weight: 200;" fill="rgb(50, 49, 63)" stroke="none" stroke-width="1px">August 18, 2020</text></g><g transform="translate(745.8685272238606,0)" style="visibility: inherit;"><text transform="translate(0,31)" style="text-anchor: middle; font-family: &quot;Helvetica Neue&quot;, sans-serif; font-size: 12px; font-weight: 200;" fill="rgb(50, 49, 63)" stroke="none" stroke-width="1px">August 18, 2020</text></g><g transform="translate(884.220866128841,0)" style="visibility: inherit;"><text transform="translate(0,31)" style="text-anchor: middle; font-family: &quot;Helvetica Neue&quot;, sans-serif; font-size: 12px; font-weight: 200;" fill="rgb(50, 49, 63)" stroke="none" stroke-width="1px">August 18, 2020</text></g><g transform="translate(1022.5732050338211,0)" style="visibility: inherit;"><text transform="translate(0,31)" style="text-anchor: middle; font-family: &quot;Helvetica Neue&quot;, sans-serif; font-size: 12px; font-weight: 200;" fill="rgb(50, 49, 63)" stroke="none" stroke-width="1px">August 18, 2020</text></g><g transform="translate(1105.4846872431556,0)" style="visibility: hidden;"><text transform="translate(0,31)" style="text-anchor: middle; font-family: &quot;Helvetica Neue&quot;, sans-serif; font-size: 12px; font-weight: 200;" fill="rgb(50, 49, 63)" stroke="none" stroke-width="1px">August 18, 2020</text></g></g><g><line x1="0" y1="17" x2="0" y2="34" fill="rgb(0, 0, 0)" stroke="rgb(204, 204, 204)" stroke-width="1px"></line><line x1="123.28300215144976" y1="17" x2="123.28300215144976" y2="34" fill="rgb(0, 0, 0)" stroke="rgb(204, 204, 204)" stroke-width="1px"></line><line x1="261.63534105643" y1="17" x2="261.63534105643" y2="34" fill="rgb(0, 0, 0)" stroke="rgb(204, 204, 204)" stroke-width="1px"></line><line x1="399.98767996141015" y1="17" x2="399.98767996141015" y2="34" fill="rgb(0, 0, 0)" stroke="rgb(204, 204, 204)" stroke-width="1px"></line><line x1="538.3400188663903" y1="17" x2="538.3400188663903" y2="34" fill="rgb(0, 0, 0)" stroke="rgb(204, 204, 204)" stroke-width="1px"></line><line x1="676.6923577713706" y1="17" x2="676.6923577713706" y2="34" fill="rgb(0, 0, 0)" stroke="rgb(204, 204, 204)" stroke-width="1px"></line><line x1="815.0446966763507" y1="17" x2="815.0446966763507" y2="34" fill="rgb(0, 0, 0)" stroke="rgb(204, 204, 204)" stroke-width="1px"></line><line x1="953.397035581331" y1="17" x2="953.397035581331" y2="34" fill="rgb(0, 0, 0)" stroke="rgb(204, 204, 204)" stroke-width="1px"></line><line x1="1091.7493744863111" y1="17" x2="1091.7493744863111" y2="34" fill="rgb(0, 0, 0)" stroke="rgb(204, 204, 204)" stroke-width="1px"></line><line x1="1119.22" y1="17" x2="1119.22" y2="34" fill="rgb(0, 0, 0)" stroke="rgb(204, 204, 204)" stroke-width="1px"></line></g><line x1="0" y1="17" x2="1119.22" y2="17" style="visibility: inherit;" fill="rgb(0, 0, 0)" stroke="rgb(204, 204, 204)" stroke-width="1px"></line></g></g></g></g></g></svg>