<svg viewBox="0 0 1159.2222900390625 400" xmlns="http://www.w3.org/2000/svg"><g><g><g><g><g><line x1="40" y1="328.77011654734434" x2="35" y2="328.77011654734434" style="visibility: inherit;" fill="rgb(0, 0, 0)" stroke="rgb(204, 204, 204)" stroke-width="1px"></line><line x1="40" y1="284.47249749972525" x2="35" y2="284.47249749972525" style="visibility: inherit;" fill="rgb(0, 0, 0)" stroke="rgb(204, 204, 204)" stroke-width="1px"></line><line x1="40" y1="240.1748784521062" x2="35" y2="240.1748784521062" style="visibility: inherit;" fill="rgb(0, 0, 0)" stroke="rgb(204, 204, 204)" stroke-width="1px"></line><line x1="40" y1="195.87725940448715" x2="35" y2="195.87725940448715" style="visibility: inherit;" fill="rgb(0, 0, 0)" stroke="rgb(204, 204, 204)" stroke-width="1px"></line><line x1="40" y1="151.57964035686808" x2="35" y2="151.57964035686808" style="visibility: inherit;" fill="rgb(0, 0, 0)" stroke="rgb(204, 204, 204)" stroke-width="1px"></line><line x1="40" y1="107.28202130924905" x2="35" y2="107.28202130924905" style="visibility: inherit;" fill="rgb(0, 0, 0)" stroke="rgb(204, 204, 204)" stroke-width="1px"></line><line x1="40" y1="62.98440226163001" x2="35" y2="62.98440226163001" style="visibility: inherit;" fill="rgb(0, 0, 0)" stroke="rgb(204, 204, 204)" stroke-width="1px"></line><line x1="40" y1="18.686783214010916" x2="35" y2="18.686783214010916" style="visibility: inherit;" fill="rgb(0, 0, 0)" stroke="rgb(204, 204, 204)" stroke-width="1px"></line></g><g transform="translate(30, 0)"><text x="0" y="328.77011654734434" dx="0em" dy="0.3em" style="text-anchor: end; visibility: inherit; font-family: &quot;Helvetica Neue&quot;, sans-serif; font-size: 12px; font-weight: 200;" fill="rgb(50, 49, 63)" stroke="none" stroke-width="1px">0.2</text><text x="0" y="284.47249749972525" dx="0em" dy="0.3em" style="text-anchor: end; visibility: inherit; font-family: &quot;Helvetica Neue&quot;, sans-serif; font-size: 12px; font-weight: 200;" fill="rgb(50, 49, 63)" stroke="none" stroke-width="1px">0.4</text><text x="0" y="240.1748784521062" dx="0em" dy="0.3em" style="text-anchor: end; visibility: inherit; font-family: &quot;Helvetica Neue&quot;, sans-serif; font-size: 12px; font-weight: 200;" fill="rgb(50, 49, 63)" stroke="none" stroke-width="1px">0.6</text><text x="0" y="195.87725940448715" dx="0em" dy="0.3em" style="text-anchor: end; visibility: inherit; font-family: &quot;Helvetica Neue&quot;, sans-serif; font-size: 12px; font-weight: 200;" fill="rgb(50, 49, 63)" stroke="none" stroke-width="1px">0.8</text><text x="0" y="151.57964035686808" dx="0em" dy="0.3em" style="text-anchor: end; visibility: inherit; font-family: &quot;Helvetica Neue&quot;, sans-serif; font-size: 12px; font-weight: 200;" fill="rgb(50, 49, 63)" stroke="none" stroke-width="1px">1</text><text x="0" y="107.28202130924905" dx="0em" dy="0.3em" style="text-anchor: end; visibility: inherit; font-family: &quot;Helvetica Neue&quot;, sans-serif; font-size: 12px; font-weight: 200;" fill="rgb(50, 49, 63)" stroke="none" stroke-width="1px">1.2</text><text x="0" y="62.98440226163001" dx="0em" dy="0.3em" style="text-anchor: end; visibility: inherit; font-family: &quot;Helvetica Neue&quot;, sans-serif; font-size: 12px; font-weight: 200;" fill="rgb(50, 49, 63)" stroke="none" stroke-width="1px">1.4</text><text x="0" y="18.686783214010916" dx="0em" dy="0.3em" style="text-anchor: end; visibility: inherit; font-family: &quot;Helvetica Neue&quot;, sans-serif; font-size: 12px; font-weight: 200;" fill="rgb(50, 49, 63)" stroke="none" stroke-width="1px">1.6</text></g><line x1="40" y1="0" x2="40" y2="366" fill="rgb(0, 0, 0)" stroke="rgb(204, 204, 204)" stroke-width="1px"></line></g></g><g transform="translate(40, 0)" clip-path="url(#clip_0)"><clipPath id="clip_0"><rect width="1119" height="366"></rect></clipPath><g><g><g><line x1="109.29823304771806" y1="0" x2="109.29823304771806" y2="366" fill="rgb(0, 0, 0)" stroke="rgb(60, 60, 60)" stroke-width="1px" opacity="0.25"></line><line x1="248.35077438877084" y1="0" x2="248.35077438877084" y2="366" fill="rgb(0, 0, 0)" stroke="rgb(60, 60, 60)" stroke-width="1px" opacity="0.25"></line><line x1="387.4033157298237" y1="0" x2="387.4033157298237" y2="366" fill="rgb(0, 0, 0)" stroke="rgb(60, 60, 60)" stroke-width="1px" opacity="0.25"></line><line x1="526.4558570708765" y1="0" x2="526.4558570708765" y2="366" fill="rgb(0, 0, 0)" stroke="rgb(60, 60, 60)" stroke-width="1px" opacity="0.25"></line><line x1="665.5083984119293" y1="0" x2="665.5083984119293" y2="366" fill="rgb(0, 0, 0)" stroke="rgb(60, 60, 60)" stroke-width="1px" opacity="0.25"></line><line x1="804.5609397529821" y1="0" x2="804.5609397529821" y2="366" fill="rgb(0, 0, 0)" stroke="rgb(60, 60, 60)" stroke-width="1px" opacity="0.25"></line><line x1="943.6134810940349" y1="0" x2="943.6134810940349" y2="366" fill="rgb(0, 0, 0)" stroke="rgb(60, 60, 60)" stroke-width="1px" opacity="0.25"></line><line x1="1082.6660224350878" y1="0" x2="1082.6660224350878" y2="366" fill="rgb(0, 0, 0)" stroke="rgb(60, 60, 60)" stroke-width="1px" opacity="0.25"></line></g><g><line x1="0" y1="328.77011654734434" x2="1119.22" y2="328.77011654734434" fill="rgb(0, 0, 0)" stroke="rgb(60, 60, 60)" stroke-width="1px" opacity="0.25"></line><line x1="0" y1="284.47249749972525" x2="1119.22" y2="284.47249749972525" fill="rgb(0, 0, 0)" stroke="rgb(60, 60, 60)" stroke-width="1px" opacity="0.25"></line><line x1="0" y1="240.1748784521062" x2="1119.22" y2="240.1748784521062" fill="rgb(0, 0, 0)" stroke="rgb(60, 60, 60)" stroke-width="1px" opacity="0.25"></line><line x1="0" y1="195.87725940448715" x2="1119.22" y2="195.87725940448715" fill="rgb(0, 0, 0)" stroke="rgb(60, 60, 60)" stroke-width="1px" opacity="0.25"></line><line x1="0" y1="151.57964035686808" x2="1119.22" y2="151.57964035686808" fill="rgb(0, 0, 0)" stroke="rgb(60, 60, 60)" stroke-width="1px" opacity="0.25"></line><line x1="0" y1="107.28202130924905" x2="1119.22" y2="107.28202130924905" fill="rgb(0, 0, 0)" stroke="rgb(60, 60, 60)" stroke-width="1px" opacity="0.25"></line><line x1="0" y1="62.98440226163001" x2="1119.22" y2="62.98440226163001" fill="rgb(0, 0, 0)" stroke="rgb(60, 60, 60)" stroke-width="1px" opacity="0.25"></line><line x1="0" y1="18.686783214010916" x2="1119.22" y2="18.686783214010916" fill="rgb(0, 0, 0)" stroke="rgb(60, 60, 60)" stroke-width="1px" opacity="0.25"></line></g></g></g><g><g><line x1="0" y1="373.0677355949634" x2="1119.22" y2="373.0677355949634" fill="rgb(0, 0, 0)" stroke="rgb(153, 153, 153)" stroke-width="1.5px"></line></g></g><g><g><line x1="-246852636.61238828" y1="0" x2="-246852636.61238828" y2="366" fill="rgb(0, 0, 0)" stroke="rgb(153, 153, 153)" stroke-width="1.5px"></line></g></g><g><g><g><g><g><path stroke="rgb(0, 153, 136)" stroke-width="2px" d="M11.909077651742612,41.91491249589507L12.927869271301393,69.5450400108486L13.43695607543336,8.165611887453906L14.443541971918869,29.66000070209219L15.4604795575931,22.640785916113146L15.962613734658014,19.451496296173616L16.98310488527763,16.164449508468863L17.488947130111637,45.452008272077194L17.99865194553845,48.757044804069665M19.008791406969344,51.131410171663674L19.509535058620845,58.68233106845844L20.02232993052191,65.46710712652674L20.52863568382705,78.77717560120527M23.061400472942474,74.65936004697488ZM26.07884062004332,61.145947444811384L27.090061601240198,52.52377418218663L27.592659286776247,50.97457129773204L28.610678392216467,46.153429342013965L30.13917482720206,54.331893882864904L30.639454970382427,52.53298171765647L31.659328109707193,72.23071780243708L32.16362532630408,61.58095375738435L32.67487516996801,69.93755806110488L33.179481392212324,79.81031073538423L34.18915734517208,75.31182813227781L35.19728826989472,72.60438762371098L35.703903028847286,75.64958182697393L37.22869139606378,82.14510998589634L37.72881703642044,95.3471546653131L38.2391398631421,113.18027191072011L38.74560011927096,113.87922058389603L39.25128786128125,100.0909752964871L40.77298617202351,102.26742456385284L41.2786739140338,114.0916863985934L42.29854705335857,108.9063273876323L43.313630605148255,99.33464672851147L43.8211723810431,106.36803755926326M44.82961231141315,100.1511662520229L46.34636653179662,88.84885670160918L46.85591684439972,79.49622612964112L47.36469464288426,74.20337354657647L47.87748951478532,75.69520097898163L48.890719032690455,93.76346688700687L49.90132200259249,76.82083394911984L50.409327286958465,65.69681023706983L52.94116505913162,67.52584529849412L53.45009736043987,85.97088884318663L53.95532159397903,106.18326639182288L54.45853729080993,108.09797308139093L54.971332162710986,110.36081849242737L55.47841043013469,109.90849901097641L58.01673732090375,104.82974835879196L62.08958625678319,103.67026743388607L63.098026187153245,111.56624006427325L74.25313005917992,107.22608105991895M78.33679419271922,115.19028975167197L79.87425179148013,92.52412835821889L80.89057136585953,75.36840511032693L81.40089419258118,56.73943545391319L81.90534591200178,65.50068578150234L83.94292915111934,77.18851937215419L84.44954391007191,114.01331497228918L84.95986673679357,150.42108864931L86.4800200192987,129.31688853932735L86.98864331495955,116.08098873085768L88.51976629794824,131.01051298986425L90.55209644105958,127.64475543950019L91.57567764815344,96.95319666680427L92.60034037501329,97.41225259277047L93.1211693937474,103.80646276493684M94.15695632391453,103.18351546016055L94.67577680594036,110.95742464753843L95.18053753100838,102.72653051372009M97.21611223341769,90.1368135429446L98.72328727873098,107.10329515972956L99.22387642755878,99.36942173884961L99.72384756509172,114.81248255143785L100.71668271026682,145.96090516627055L101.22267945792454,149.63694203526143L101.72759468581629,168.71418464680218L102.72491041287905,137.23725696014216L103.22426353911715,133.474372756111L104.25108930550897,80.62150253355117L104.76712873670799,74.96775499092331L105.8026066612277,87.26579867388017L106.30953042582769,103.7336752319776L107.88623174181151,135.522209729074L109.9734103873407,119.6007590975525L110.49470291454595,101.9372028429749M111.55119322309052,115.80811735162237L112.5786370007772,111.06564283369505L113.0881873133803,110.51189969905832L114.11655810800923,121.41052612737448L115.13859428686597,102.94726533205352L115.65525172935985,105.64374473615305L116.16851010973204,87.14352070900475L116.6837770268125,92.79974323651516L117.71786442591879,127.55585245362363L118.22787824699303,152.00339990211987L121.81280726558909,132.69907988510442M126.42564357034296,128.49901824724384L126.94044697895227,118.26091208474367M140.081839152624,154.86966054581796ZM141.1395654837583,137.78058476904621L142.73295310470306,121.78442542419009L143.266760360629,104.06019375670559L144.32062412117045,125.96520739173314L144.830483439421,137.20429760928369L145.3440508254406,138.3717204647711L146.36871355230045,157.8373635108208L146.87919088184583,155.8475613571046L147.3910587368046,143.2544977703401M148.9232632395593,112.0965629130362L149.43111402110156,133.7197960079664L149.94560842406347,121.64843489273784L150.45577674796144,99.32091243042879L150.96810811139136,118.41791143709165L152.50649272709452,136.2650333487111L153.0234591752358,115.62672411436546L154.05167546704104,141.23994019082065L156.1220133047856,140.37312579574007L156.6327996399784,158.43371335957394L157.6556083329537,141.80529529845023L158.66991937062483,151.83647371072712M161.75441374321682,127.41095645079113ZM164.31004495024166,84.51551849501061L164.8175867261365,90.77937909604526L165.84209495017265,103.49811309445897L167.89636449425112,128.52751180252892L168.92365376911405,130.35465733615789L169.94831649597393,149.00425956008928L170.46837300058945,138.76870961139358L170.9769962962503,125.8115134960575L173.02941180644422,139.50489896446894L173.54313369528754,165.10829501705317L174.56470636567317,171.72697491565393L175.58890558406185,161.23830000492677L176.6095512375052,164.7239928457952L179.17429811112908,166.83602895924943M180.7109831957714,121.8569082245933L182.24813178888488,126.50876824749142M184.29962028213657,148.98655157750343L185.3269095569995,137.54582797443678L185.83800489783974,105.5231425605948L186.35141778103562,93.46972287324417L188.40831387311724,86.66648423463448L188.92636184102452,106.07582276131302L189.9454624662307,101.53821523904668L191.4836925791102,138.91159422690913L203.99440422638844,137.39730397774878M205.02014847301427,107.54931857562764L205.53711492115556,70.97291825847026L206.56085063107312,97.55666626285307L207.58211429581132,135.92097736741965L208.09691770442063,148.82327834129075L208.6112576045588,157.94201147293813L209.11864487762992,162.10262238703197L210.6468323069681,164.3261355544982L211.1599361845166,149.46507346210433L212.1790368097228,144.7322389751645L214.2133754895424,158.0863434141115L215.2398922502868,176.92309578563504L216.27258912397969,166.62605625507783L216.79140960600554,163.52829810636067L217.3009599186086,172.7970278475282L217.82225244581386,163.50378455140347L218.33721035724687,162.9316922437568L219.36280010104903,121.80521177634355L219.87404994471294,129.72924830214336L221.4385455376235,148.30079254008993L222.46490779554418,142.71379442513575L222.98002020980093,110.78107403891676L223.99927533783085,93.87724839765451L225.0288821550495,111.71831699309229L225.53827796482886,144.52519163036823L226.05648043555988,163.53965008692828L227.08067965394858,169.28371193491628L227.59100248067026,168.1905387086839L228.11028647116723,151.81364543885022L228.61999128659403,132.09808453305854L229.64372699651162,149.1452575502383L230.15544034864666,147.54551473594395M231.69506098693955,132.71989708897064L232.72034172509427,112.49106719066535M234.77723781717586,33.347464175482344L235.29683081332024,19.80447055845758L235.82044088288117,20.27355625285054M237.38910805203196,72.03405943261919L238.92795617620627,113.5108453927352L239.43920601987023,155.9676114996443L239.95431843412695,169.0661051132041L240.46788582014656,132.18392318998514M242.01028750926628,136.73138668697175ZM243.03865830389523,131.07032401809695L245.62086399659856,156.06941564531164L247.67497903785335,145.64273019283925L248.19410852552662,162.93850692276385L249.21738072697306,135.52840183909265L250.77693222952482,110.37720802507675L254.41485571665416,121.27268618071955L254.92409702360987,131.34523299013907L256.47638689344717,177.86608021207013L267.47467039940585,181.73304755043642L267.9925638644894,152.83694792180063L268.5030411940348,160.581404094161L269.53125748584006,158.67701205719615L270.5738425402505,117.9507723114553L271.6079299393568,82.36228746000683L272.64294435540535,110.631493751716M277.3109381682245,153.71189888119181L277.8314581813112,128.20039384212302L278.3510511774556,157.88767506611296L278.868481134068,142.2217970327802L279.9113751941259,145.88064372137262L280.4266421112063,161.45517493827143L281.96997081726835,161.5384994405108L283.52658676616954,174.0398514168337L285.0730055287058,201.56942099477163L286.620505811008,188.71843181767957L287.14720593704317,158.77340870724765L287.6573742609411,165.37255660141426M288.6872900838072,132.76918230258576L289.7287936184517,144.72539282009967L290.2500861456569,144.13603557692565L290.76782510791674,146.5052778448729L291.8048480606736,132.0820421511913L292.31980597210656,120.40504530265619L292.842643527549,136.81719534073537M294.9173074443575,174.81937100366954L295.4301023162585,184.46312538525356L297.51125535166295,151.93210345258493M302.6962156126234,170.61419847166428L303.21843515677097,148.4029954816043M305.28614644651236,157.83690175460913L306.84013584741047,161.6435856769335L310.4707977018254,178.73840330467738M312.5500967033452,181.2738988594372L314.1042406070671,197.81618910643863L314.62460611733,195.24000286012168M316.18184007752615,157.89229578880796L316.69834301719624,167.23055262914448L317.21669999075095,180.06490539576598L317.73691099819024,167.05277454316726L318.7736249452996,142.06546079071853L321.3607747283618,176.3407385786654L332.4058725899053,165.25368171992162L335.52142203006343,183.4987743123156L336.5599900110574,153.8304467562416L337.08190054955753,145.35614778494377L337.6099912010061,157.7915780421623L338.1345282875093,135.04977632279372L338.6569023344805,146.6946088705397M339.6980968634776,83.1031586232109L340.2226339499808,143.34769951918543L340.7448534941282,134.4709965344777L341.26151093662213,105.16020319667524L342.2988428950264,110.90122262056545L343.85963042016783,142.4948710833519M344.89866190963295,165.16254936538024L345.9372298906269,189.7956131062844L346.45774990371353,199.68879890119484L346.97703389421054,179.05475402881638L348.0259535643932,153.89085609252888M350.1024715150863,152.9471414874389L350.61433937004506,127.76986528769586M352.69502889697833,140.23497638983855L353.2172484411259,158.72431952856755L354.2663226141322,150.2383016904467M355.30133703018083,174.89875378405267L356.33588793775823,163.4357784018376L357.38156304864293,162.13836640287042L357.90270107302445,179.87804418350973L359.4531369089772,191.7254582553123L359.97087587123707,222.25646310924213L360.4889238391443,175.5553417433296L361.00867133811244,154.79647743610383L361.52471076931147,118.28067217561457L362.0430677428662,102.66260047971838M363.07931818150445,124.85923433318342L364.118658676617,114.25447152926037L364.64674932806554,154.45344817719598L365.16387027903056,151.21749848062598L366.73145592841536,133.24121821189357L367.25352096973916,143.27653506633797M368.8155445174703,129.49527957996108L369.334983010791,118.0753502559181L369.8525674702271,121.56429904520854L370.37416900307977,154.12803137154918L371.40516634571185,188.5255365156703M372.99824496100916,197.47727300952872ZM374.56691213015995,161.32267970007254ZM376.6347779227251,198.69126942405015L377.1582334894623,203.31826553301124L377.6847791126738,220.3786554308885L379.25282827052973,227.31214915333464L381.3202305546238,111.50109471474852M382.87900954305695,134.10327569728406L383.39767552225914,173.92480644431708M397.6314026595767,154.16541362310878L398.6789318043459,144.357287072394L399.72012633334305,163.11341611556344L401.8035969111031,140.63527724426976L403.3824612666189,165.59330450661935L403.90112724582104,153.56875837979533M405.4711849403852,150.91256366326692L405.9980395692441,149.50089260080867L406.52412168398445,152.55012573550414L407.04695923942677,131.1489777938122L407.5629986706258,44.973745827718915L408.08475470630214,108.43752127585276L408.6066652448023,132.0257725814826M411.2035487057583,152.81104756944964L411.724068718845,148.3564589549103L412.7702073382008,139.28191814817853L413.81279239261124,182.58932493205586L414.86387510232595,186.31307316974895L415.38779417753426,176.60191571881901L416.43702285336434,159.82937510460022L416.9544528099768,170.17010404583226L417.47605434282946,195.0828117807768L419.05352817293186,156.808306034276L419.57652023119795,118.73246202707764L420.09765825557946,142.62810161318805L420.6201868053744,178.73025198680642L421.1408613212848,212.88772399134496L422.18947198582003,190.45117228848108L422.7042753944293,212.40649011666363L423.226958447048,216.55654163802092L424.2755691115832,163.62563206097335L424.80118771785243,167.15231689447313M426.3709364067692,191.59836747707956L426.89284694526924,163.17196988794885L427.4190835628333,170.98403945913654L427.94655620298704,181.89288151011107L428.47325632902215,200.73259837928268L430.0355888824008,151.4917189557729L431.0834270328175,169.41096292729384M433.6957607761447,164.67547808471897L434.21210921299115,183.5080023830179L434.73216571760673,167.5001774796699L435.25361274763566,164.28679039394345L435.78077638214194,146.6602636776721L436.3079400166483,153.44284990508376L436.83324961727004,202.71889441144344L437.3522246021195,219.60563511384163L438.3952731650012,217.58702889114716L438.92104627409407,161.77342128702043M441.544813226376,140.2733875332035L443.6452791147445,135.88582416488467L444.1713612294848,161.10872517513212L445.2264610126159,163.0182184669278L445.75300663582743,183.8956278726049M446.789102571642,183.98691222758833ZM447.84080329265146,167.84673316135954ZM449.925664395825,130.80118753622295ZM464.6986063878984,183.8737140252429L465.2310231184109,171.22178872106565M466.2770072349431,192.74452510482627L467.32546339665464,150.29261949165226L468.89104050933116,168.0627586888196L469.41696812124775,161.2036735768427L470.46851433943357,143.62590503175736L470.9944419513502,169.60118536504146L471.51465295878944,196.0138694111857L472.03949905094004,154.0187459562252L472.5626456120298,137.84345569416692L473.0876462070041,192.3589896146629L474.12436015411356,216.41044400676785L475.6856111877262,235.97057324300974M477.2552053738192,145.3345440163687L478.3086056258895,179.66004578209473L478.8346877406299,172.44426993191746L479.3650959344341,172.63259317989886L479.8922595689404,178.98271866713176L480.9473593520716,182.50843198927907L481.46896088492423,215.96738877147806L481.9948884968409,193.54812038305906L482.5158720183986,181.38664589445378M484.09118280896905,191.08174007255525ZM486.1834600476808,213.44118001540525L486.7044435692386,199.83163628545645L488.7925492317101,217.50076735465112L489.31585029562353,203.15000661490146L490.37234060416813,190.6596386984772L491.43176646636323,182.74884962586182L492.48439420431504,189.09331171002302L493.00676825128625,192.27315360258632L493.52574323613584,180.12246865937266M494.57342688372876,167.00297020607846L495.10244455211966,191.3318129259917L496.14951018841776,222.11548062502348L497.19673032753957,207.69504694695786L498.2424054384243,197.31538451938502L499.8124631329885,227.96152125441944L500.3393177618474,237.7134794881L500.8555116958701,238.0906787450449L501.3800487823733,219.89260908868755L501.9101479705302,219.86437519294265M504.01463093231513,194.61751628053096L505.06633165332465,124.48877428676343L505.5849976325267,151.2493961745104L506.6300547321166,200.91640206918294L508.18976073749207,212.85043267265274L509.2380623963799,203.61873181224414L509.7661530478285,195.94106092554097L510.285128032678,218.3722455554765L511.8530226877103,213.24357088594567L513.4461013030076,242.09990850449327L513.9731104346902,250.01327500452723M516.0763573738855,226.12680519537383L517.1143073435845,204.04411307365226L517.6380719159691,163.71867166444363L530.288145110236,97.28307679635901L531.3302666561752,161.07502431847396L531.8543402342073,179.95273412991403L532.37594176706,211.7587470493492L532.9007878592106,198.02602726660623L533.9527975858675,221.65582847703635L534.4754806384861,214.87784584203513L534.9930650979223,220.93202751358953L535.514666630775,217.3373936200152L537.6132784852589,216.15918571523025L538.6584900876725,209.348694891744L539.1845722024127,191.27884786955354L539.7095727973871,191.1537226104052L540.2382814601306,207.90391902048282L540.7614280212204,206.40761830091125L542.844589593333,208.10099976412965L543.370826210897,201.1473869365039L543.892273240926,189.11836641958618L544.412020739894,200.63192457961296M546.509551074612,166.8184072139262L547.0285260594616,177.59847546712345L547.5509001064328,177.4708946775738L548.0742011703463,212.63836495704746L549.1211123038207,232.68957514087674L549.6400872886703,231.74243219638393M550.6840628684942,188.9600002873978L551.7413256911573,170.33736766055358L553.3215805720864,165.3026053312643L553.8495167207113,200.46966418064488L554.3759078410991,225.44860259203313L554.8947283231249,242.99138105416867L555.9385494001251,249.3193255112056L556.4615414583911,222.27473399268345L556.9877780759552,223.05159625208861L558.049521480506,239.0082296380462L558.574676578304,260.01317153507233M560.1445797700445,249.32926540038778L562.2453546640603,244.80254379484586L562.7644841517337,263.19843829037995M564.3345418462978,251.18663253935495L564.8578429102114,256.0251510439983L565.3845430362464,200.97974850501967L565.9127881905188,148.95356498902868L566.4401063278488,148.21106531712627L566.9671154595314,188.14629136624788M568.5305295326759,217.63872641017323L569.0553756248266,222.6174352187321L570.6320769408104,215.59245296078646L571.1495068974228,147.0500940171433L571.6706449218043,39.641304238070745L572.1936369800704,95.73758457360623L573.2417841361346,163.9565229755955L576.3863801071506,169.26516249624174L576.915088769894,197.5003313506455L577.4403983705158,140.58748293381052L578.4829834249263,162.10459031992275L580.5820587878814,190.89392151961127L582.1519619796218,197.02747070287774L594.3096346747175,192.43572241382319L595.8818554088136,203.911668267242M597.9750596644676,170.29821934797ZM599.0233613233554,163.13441327627072L600.0735170161278,209.084327076004L600.6059337466403,191.74075308338584L601.1360329347972,183.37023246931963L601.6621150495375,202.53856908813623L602.1888151755726,216.5949849342194M603.2310912243356,212.98672464482075L603.7534652713069,211.11000250756405L604.2832554538163,188.1583653659326L605.3355741861207,220.9104610337004L605.8613472952135,210.33383857845385L606.9203096489375,249.39130512202868L607.9662937654697,263.689073911279L608.4866592757327,268.85776821752796L609.5321798837937,253.42518217292906L610.5661127800763,182.47993077253233L611.0906498665795,194.66013238315495L611.6173499926145,171.55940039259818L612.1383335141725,210.73275619172202L613.7273950560532,237.13625435516005L614.2530136623224,220.6615398058063L614.7684350822266,190.02059212412874L615.2860195416627,227.33512953262968L616.3406558163227,197.93003546932852L616.863029863294,218.17755470774404M621.5619242408555,232.01827586707628ZM623.1293553874167,229.64012665579799L624.1742579841829,234.52563171938587M625.2196240894201,175.5198055753924L625.742152639215,187.7015093402655L627.3168454184905,202.4534788206425M628.891074689295,244.0319340073397L629.4159207814456,241.11477819605182L629.9347412634716,227.2272601853459L630.4577333217376,230.63116986014467L632.0279455191254,229.57796439820243L636.2091009344273,233.96496019621853L636.7316294842221,250.05916178945233L637.2581751074337,177.27664163484673M639.356014447799,192.28268756648743L639.8793155117124,221.42418239328515M641.4581798672282,238.39205138130416L641.9868885299717,246.7817659005199L642.5132796503594,263.5977833446242L643.0334906577987,169.1014627524639L643.5521566370008,95.5736327791347L645.1206693033278,159.0202920515632L645.6385627684115,200.13630599428907L646.1604733069115,227.83314001570486L648.7834677450749,234.1956264760682L659.9095250862438,181.8086619406646L660.4303541049777,189.66643610675848L660.9539641745387,180.33921499116772L661.9979397543626,185.64309000761423L662.5158332194461,233.78447370884135L663.568924465869,237.47034451955338M667.2525807888173,158.27659570062855L668.2939298206381,165.10230044130108L668.8183124043175,182.08356264542294L669.347484575532,194.8123104301904L671.4374442718881,206.99749041893173L671.9592003075645,248.1724078025456L672.4842009025389,257.33562416631133M673.5253954315358,271.45512379952163L674.0533315801607,237.64482297767682L674.5774051581928,215.3880167987472L675.6278698566126,135.22480997117026L676.1541064741766,189.33202528286827L676.6821971256252,223.46246236067785L677.2095152629552,221.30789578738927L677.7300352760419,239.9981896649291L678.2494737693626,222.04402382026655L678.7733928445708,226.80167652865364L680.8709231792889,226.96858616809152L681.9128902224045,231.20434444045716L682.4394358456159,249.30692594218135M685.6034991724198,269.7160341909754L686.6422216562373,244.38284114616692L687.6861972360613,235.30804342239443L688.2141333846861,248.6782839629007L688.744232572843,246.14742891241798L689.7962422994998,264.9609862310001L691.3656819827692,226.72598450074324L691.8888285438591,211.69608318965845L693.4517791085325,204.67203312231774L694.5002352702439,228.74922688448868L696.0678209196288,221.49387716018518L697.6406596650198,238.10183666286616L698.1648877458756,219.63498981316133M699.7462241465709,228.5903459464646L700.277713860141,233.63712125327805L700.804568489,223.61485270051264M701.8592047636599,259.33103115308495L702.3809607993363,265.06921108719143L703.4260178989261,255.97182016562158L703.9511729967242,244.4790496160719L704.4775641171119,231.10276680360087L706.0514843822689,261.6772363085199L706.5684508304103,262.4908700129263L707.618452020359,276.4745859916597L708.1446886379229,239.75238360703395L711.8087231022597,244.69762363721807L712.3375862678267,208.9216407405715L712.8652134108042,252.55654879689388L713.3902140057786,260.2879633393445L713.91675962899,253.3547422471828L725.5517492714671,239.68177738816667L726.0779858890311,212.84377676229846L726.6066945517746,189.38931986103898L727.1307681298066,232.56960199063724M728.7151945869759,231.47489763709643ZM730.2841707617742,269.64616492273524ZM731.8701422471809,225.38455156939258L737.1119595472674,235.7086932744146L738.6996305637348,239.45427405069995L739.224167650238,251.90410817968527M740.2678342244144,221.09181884222974L741.3198439510713,245.3970962112664L741.8442265347508,268.09410702156M745.5260288238145,209.1419582024139L746.0477848594909,226.46664965403377L746.567532358459,213.96159632930846L747.093768976023,242.51978356182616L747.6204691020581,265.1370110355979L748.1442336744428,271.7473011382545L748.6621271395263,264.36493743187185L749.7087292673534,262.06646637316567L750.767846123901,279.0261093806732L751.2913016906382,276.1312225062232L752.3453199540035,216.55392104919554L753.3811068841704,239.79256301553593L754.4334256164748,264.491095868485M755.490688439138,259.97737603272344L756.0214056385896,271.05054334838206M757.0738788737178,267.37125872913526L759.1613665248943,186.26806678176717L761.7786443585804,224.98056849886498L762.3031814450836,212.66811880630735L763.3587447366859,195.07524016287883L763.8837453316603,215.64333410467714L764.4144625311119,248.26354770468402M766.531769227265,269.9781453498718L767.0578513420053,251.7083716743331L767.585323982159,240.48011027004668L768.1115605997231,244.79802972673113M769.6944420286554,251.85568687276543ZM772.3111018510466,229.14607957596857L773.3624935664087,237.32983543868488L773.8828590766716,216.32024630651216L774.9280706790853,247.6804728527036L775.4580153644183,270.4014989782985L777.039042759466,241.2206729891118L777.565897388325,260.9516811699709L778.0908979832993,239.50958943158818M779.1503238454944,257.6652121249899L779.676251457411,163.41205972094858L780.2035695947411,181.70547647901014L791.8336151468593,231.47252015003838L792.3606242785419,260.8442337802851L792.8860883819873,277.93073657258475L793.4127885080226,288.8307277002788L793.93500805217,238.8463282906363L794.4550645567856,257.73684550889465L795.504138729792,233.90487312651106L797.1111225992233,192.2505687859757L797.6282435501884,197.80008492549473L798.6750001808391,248.0661202878665L800.7821096906272,245.31559257203475L801.3058742630118,226.97278051094133L802.3493863343646,243.42850472409845L802.8722238898068,253.83935597906822L804.448770702967,218.47866066458096L805.5054155143354,227.70128494003737L806.0260900302457,253.28060053331518L806.5459920320375,250.87752390422813L807.5916671429222,268.104112223718L808.1171312463678,276.79001598208583L808.6447583893452,243.1536546982719L809.1638878770184,269.8220545061504M811.7895088631849,244.52852759129493L812.3175995146335,236.42209683743658L813.3742443260018,262.05153240571786L813.9034164972163,204.15171411879763L814.4310436401937,217.83940804376692M816.0159336058344,253.69279908832007L817.583055746748,251.0243714381022L818.6316664112833,257.84073111036344L819.1588300457896,257.81753748295375M820.7350678533022,237.64821649548108L821.2591414313343,234.1587172865162L821.7793524387736,265.9132779579179M822.8264180750717,223.8092222540632L823.3534272067542,230.0140117871336L824.9267294606165,237.62571467533803L825.4523480668856,271.0347168033641L825.97734866186,279.1139053154663L826.5001862173024,254.57908553840107L827.0290493828694,267.09588458209765M828.0832221490583,277.73242470327557L829.1412574858401,255.00348483015807L829.6662580808144,240.6915862939328L830.1957392576763,237.11793704610255L830.7250659317147,194.46263175015608L831.2496030182178,219.8270186574467L831.780011212022,248.17279479381153L833.3613476127173,241.49195975003346L834.9289332621021,250.42182420113403L835.9824880169961,173.69164706415972L837.0348067493004,207.5938870222366M838.0894430239605,221.63528483909522L838.6128985906978,255.81201004435974L839.1307920557813,252.2188968806118L841.2269318650858,258.5451071711752L843.317818578384,275.4141664472135L844.3638026949163,211.4335687230134L844.8877217701246,196.67101784289548L845.406233246503,234.05331212312024L857.0373603183872,225.86272053475685L857.5601978738296,265.46656435598845M861.230875959586,264.71985683045807ZM862.2808771495346,269.52480817248454L863.3348954128998,245.75505683761534L863.8581964768133,241.29420710770958L864.3810340322557,246.623474777274L865.4284086742013,259.11868672189405L865.9526367550569,276.65418799466556L867.006191509951,264.8613574177149L867.532428127515,269.0651958282246L868.0620638072006,278.57996035880416L868.591390481239,271.1043181723949L869.1168545846845,266.9052331772954L869.6457177502516,273.78208461225L870.7020535559725,261.86835404759955L871.2278266650653,270.49807102065L872.7934037777419,248.70176262891957L875.4284494361548,257.66388644332767L877.5406575391255,284.6324577126928L881.7414348130387,244.6780427104265M882.7993156469967,254.7459177646698L883.3241617391474,266.68077408341117L883.853179407538,275.0113952236853L885.4274086783425,268.8359164380138L885.9499372281375,266.16557028088096M887.5235484876471,280.66315288234057ZM889.1048848883422,294.91146557000366L889.6332845454383,284.27344390256246L890.1542680669961,250.15135026881L891.1956170988168,229.57463932028415L891.7181456486118,263.92213982788473L892.241601215349,263.47496689133243L892.7715459006821,275.52321240825756L893.2979370210699,279.3059441497064L894.3488652279608,303.41988506717973L894.8690762354,293.8986523424951M896.4493311163292,276.12522283360903L897.5067484418161,272.16209518205466L898.0315945339667,281.79485353567907L900.6689577347354,265.5334653287017L901.7197314388026,219.12921303239625L903.8171072706967,266.60922356191884L904.3430348826133,290.66403664677694L904.8715890425331,286.75526373371565L906.9837971455037,285.78263836116696L909.6240958999228,285.8220454079793L910.1545040937272,301.3864991914012M924.4566759819493,289.084777584541L924.9856936503401,293.2574434944284L926.5650215143271,274.03789045482404L927.0938846798941,229.5236578674593L928.1380147625417,263.16582075330984L928.6648693914007,278.993856982486M929.715643095468,281.67058686195037L930.7682708334196,253.29390100817514L931.2965159876919,260.94128267413004L931.8244521363168,275.4382849496463L932.880633439214,259.62330446605847L933.4065610511306,236.54386111495873L933.9372782505822,276.17147177421094L934.4659869133257,254.59286337365012L934.9933050506556,276.004558930622L937.0829557413643,275.56616081373255L938.6516229105151,272.44426792826744L939.1739969574863,267.45545353627625L939.6938989592782,269.6964729239884L940.2165820118967,283.547681774789L941.2716817950279,290.61116159394936M942.331107657223,275.72810414977266L942.8568807663158,283.19369163996157L943.3874434629439,294.60940627023115L943.9180061595719,303.6995439085026L944.4430067545462,289.09971277972943L944.9686253608154,300.0554384952483L945.5004240800331,319.0243351768095M948.1136848403027,311.4721009672553L948.642393503046,310.4354451442722L950.7533655834268,303.5406672355513L951.2826922574652,295.84187136182896L951.8141819710354,299.0668044134324L952.8698997654614,319.5622176967258L954.9770092752494,260.1280316612524L956.5438224105156,265.4727451341664M959.6803842346987,283.7900849751286L960.2046123155545,291.70840759955536L960.7344024980639,283.60036631631243M962.8475376179769,280.97088594387793L963.9010923728708,273.1480921662826L964.4284105102008,298.78509306057L964.9475399978742,251.89472149275645L965.4683690166082,263.24592348674156L965.9950691426434,262.4415809158151L967.0447613269446,271.4169868915336L967.5734699896881,255.5527509362969L969.1575874412101,262.722465514169L969.6836695559504,268.1687080912254L970.2140777497547,269.39201897384896L970.7429409153217,283.9022619787193L971.274430628892,289.6764705335627L971.8029847888117,272.36948505591397L974.4463735997052,282.2082370484215L974.9766272906857,298.689380457416L975.500546365894,303.4759929274275L988.7364942676777,289.41445876953276L989.7786158136171,199.81807817275174M990.8341791052194,243.36479450783395L991.3585616888989,234.9479356853923L992.412579952264,255.38210465661592L992.9360355190013,279.76584117318026L993.4633536563313,295.0826033824794L993.9815561270623,314.6548170990529M995.0292397746553,300.5571054118474L995.5568669176326,304.1371605882522L996.6116576951165,271.4202397395403L997.6642854330681,284.6005860691076L998.1946936268724,294.7625984483047L998.7246383122056,255.32604589351007L999.7805106094552,277.30647151139027M1001.3555123943783,251.52261283957978L1002.4005694939681,265.4961577167725L1002.9221710268208,263.24225476145557L1003.4456265935579,259.84498661529835L1003.9683096461766,271.8298167413145L1004.4882116479685,291.1461430233335L1006.5914585871637,293.3954091506249M1007.6505754437114,307.4632758787882L1008.1761940499806,278.4444458741739M1009.2342293867623,293.93801949643085L1009.7593844845604,294.1342574389321L1010.8211278891112,286.71324175085635L1011.3464374897329,303.0051612677021L1011.8756096609475,271.18032563412055L1012.403700312396,272.0283727510036L1014.5029301781749,285.2228733639775M1016.5995334959505,299.9855126325805L1017.6549422847291,307.4213073762811M1019.2410682729594,308.543945942849L1019.7703949469976,308.7101988214938L1020.3021936662153,303.89960179328386L1020.827503266837,316.7236062703227L1021.3566754380515,299.5105148731009L1021.884302581029,283.2129544951647L1022.927660149558,284.137764642378L1023.4487981739396,296.9283526961362L1023.9741077745614,280.2703242008817L1024.499571878007,241.03789941194017L1025.0265810096894,265.2705027156078L1025.554208152667,281.7697154339304L1026.07874523917,282.55969299966944L1026.6096169414454,281.70385385637843L1027.132918005359,293.21976198598276L1028.6964865813272,300.29132869305874L1029.2221051875965,310.0092227940852L1030.2728788916636,238.02328875479958L1030.79463492734,274.5182540862947L1032.362220576725,300.0906791118487L1032.8875301773464,318.57935943635715L1033.4174748626797,312.26727385927455M1034.4724201429872,307.7516806867763L1035.5290649543554,299.664261304017M1037.114572931291,297.4515807659339L1037.6443631138002,269.65359079012904L1038.701316930816,278.47302393939447L1039.226472028614,291.90292006348807M1040.2699840999667,307.6289309328276L1041.3145776910856,314.95909051540957L1041.836797235233,317.5513664847713L1042.8766012388166,324.9931628205111L1043.3975847603745,323.59740310005793L1054.5330667737896,301.9422437569761L1055.5832224665621,290.47303229370766L1056.1082230615364,290.06850897979933L1056.6375497355746,297.2816212071978M1058.2014273171903,308.2957158228832L1059.2545185636131,300.30369080857344L1060.303901742267,274.3975041677496L1060.8315288852446,226.53367074807156L1061.8841566231963,248.27951617884912" style="fill: none;" fill="none"></path></g></g></g></g><g opacity="0.2"><g><g><g><path stroke="rgb(0, 153, 136)" stroke-width="2px" d="M11.909077651742612,41.91491249589507L12.927869271301393,86.53756843254496L13.43695607543336,-52.79797061040483L14.443541971918869,56.00853988630246L15.4604795575931,13.032270355903904L15.962613734658014,14.805129232461525L16.98310488527763,11.197812257378814L17.488947130111637,90.67926459896944L17.99865194553845,53.92847700306157M19.008791406969344,54.87649246158867L19.509535058620845,70.65083072826792L20.02232993052191,76.25353475939477L20.52863568382705,99.97646975903098M23.061400472942474,68.09339367735765ZM26.07884062004332,39.58348887835041L27.090061601240198,38.760071245997665L27.592659286776247,48.500906979354625L28.610678392216467,38.45410820092286L30.13917482720206,67.39412501272511L30.639454970382427,49.659674683807395L31.659328109707193,103.69404749319483L32.16362532630408,44.5696198141556L32.67487516996801,83.28611700125913L33.179481392212324,95.58085172477035L34.18915734517208,68.12600192387714L35.19728826989472,68.27953791862257L35.703903028847286,80.51396718865163L37.22869139606378,92.52106285339124L37.72881703642044,116.43610927138823L38.2391398631421,141.666918239024L38.74560011927096,114.99572249213671L39.25128786128125,78.06560274209113L40.77298617202351,105.74408966688696L41.2786739140338,132.97979092841874L42.29854705335857,100.62322198453217L43.313630605148255,84.04481980590407L43.8211723810431,117.6031940589614M44.82961231141315,90.22032003135723L46.34636653179662,70.79451824046129L46.85591684439972,64.55630984862455L47.36469464288426,65.74855711306657L47.87748951478532,78.07824998912167L48.890719032690455,122.62576173986523L49.90132200259249,49.756628109895985L50.409327286958465,47.92726587499703L52.94116505913162,70.4475506554312L53.45009736043987,115.43504930496033L53.95532159397903,138.47057078384034L54.45853729080993,111.15653052034648L54.971332162710986,113.97549362937423L55.47841043013469,109.18596269647094L58.01673732090375,96.71693887557115L62.08958625678319,101.81810959282188L63.098026187153245,124.17928725299194L74.25313005917992,100.29309979325063M78.33679419271922,127.9123374021035L79.87425179148013,56.317143275224964L80.89057136585953,47.96380823384965L81.40089419258118,26.981470937840527L81.90534591200178,79.49592981128279L83.94292915111934,95.85869510786688L84.44954391007191,172.8373391127568L84.95986673679357,208.5789608866242L86.4800200192987,95.6049844675386L86.98864331495955,94.93792799784836L88.51976629794824,154.85897381918585L90.55209644105958,122.26828558632121L91.57567764815344,47.92642096496576L92.60034037501329,98.14554972126183L93.1211693937474,114.02059070229345M94.15695632391453,102.18841781746585L94.67577680594036,123.37548737542784L95.18053753100838,89.5784788454128M97.21611223341769,70.02596695326434L98.72328727873098,134.20559696316533L99.22387642755878,87.01531224835298L99.72384756509172,139.48126800531247L100.71668271026682,195.717476356198L101.22267945792454,155.50905287793523L101.72759468581629,199.18822154575687L102.72491041287905,86.95593091521755L103.22426353911715,127.46353175486655L104.25108930550897,-3.805809640148368L104.76712873670799,65.936443981271L105.8026066612277,106.91072559600599L106.30953042582769,130.03950401958778L107.88623174181151,186.3012973023578L109.9734103873407,94.1677925043428L110.49470291454595,73.72139220254576M111.55119322309052,137.96555221608523L112.5786370007772,103.49000172064234L113.0881873133803,109.62734897749579L114.11655810800923,138.82002029208724L115.13859428686597,73.45400458108628L115.65525172935985,109.9511079401043L116.16851010973204,57.59121479550811L116.6837770268125,101.83500779344735L117.71786442591879,183.0753515926411L118.22787824699303,191.05597569647108L121.81280726558909,101.86230894883289M126.42564357034296,121.78982887767424L126.94044697895227,101.90653470828232M140.081839152624,213.34857042519639ZM141.1395654837583,110.48245073602129L142.73295310470306,96.23211893825118L143.266760360629,75.74746005410054L144.32062412117045,160.95633306846548L144.830483439421,155.15764951524096L145.3440508254406,140.2365647663938L146.36871355230045,188.9318322726924L146.87919088184583,152.66904622844103L147.3910587368046,123.13830528758635M148.9232632395593,62.32479684227803L149.43111402110156,168.26080471804983L149.94560842406347,102.36561129308694L150.45577674796144,63.65487005557145L150.96810811139136,148.92350725292974L152.50649272709452,164.77407224649292L153.0234591752358,82.65903533742357L154.05167546704104,182.1545580791841L156.1220133047856,138.98847422957238L156.6327996399784,187.28374284465926L157.6556083329537,115.24301709691497L158.66991937062483,167.86030416150703M161.75441374321682,88.3935717368675ZM164.31004495024166,15.994234487724668L164.8175867261365,100.7852862899058L165.84209495017265,123.81505181919778L167.89636449425112,168.5095383102251L168.92365376911405,133.27334435740923L169.94831649597393,178.79518259312243L170.46837300058945,122.41841553750305L170.9769962962503,105.11365476636473L173.02941180644422,161.3787484789444L173.54313369528754,206.00722637377854L174.56470636567317,182.29967137705532L175.58890558406185,144.48366345921968L176.6095512375052,170.29204764354614L179.17429811112908,170.20980093268938M180.7109831957714,50.00714393416854L182.24813178888488,133.9396615308221M184.29962028213657,184.8926210527175L185.3269095569995,119.27038637473285L185.83800489783974,54.37002170471732L186.35141778103562,74.21555895708673L188.40831387311724,75.79897316256972L188.92636184102452,137.08035053769564L189.9454624662307,94.28982919698484L191.4836925791102,198.6119268958323L203.99440422638844,134.97837280051866M205.02014847301427,59.87006916704445L205.53711492115556,12.545681388205935L206.56085063107312,140.0216143737502L207.58211429581132,197.20422757341566L208.09691770442063,169.43344742942242L208.6112576045588,172.50829946245284L209.11864487762992,168.7487930679871L210.6468323069681,167.8779812635676L211.1599361845166,125.72597427555306L212.1790368097228,137.1719968726503L214.2133754895424,179.41822453087102L215.2398922502868,207.01297295053618L216.27258912397969,150.1775385634086L216.79140960600554,158.5799311934748L217.3009599186086,187.60292081069196L217.82225244581386,148.65873357187948L218.33721035724687,162.01783050556793L219.36280010104903,56.10966505567046L219.87404994471294,142.38712483036903L221.4385455376235,177.967025543563L222.46490779554418,133.7891091246246L222.98002020980093,59.771663551839595L223.99927533783085,66.87503341226164L225.0288821550495,140.21768630788256L225.53827796482886,196.9309783886142L226.05648043555988,193.913395413641L227.08067965394858,178.4592912505336L227.59100248067026,166.44430095768925L228.11028647116723,125.65315359223274L228.61999128659403,100.60439633289786L229.64372699651162,176.37645600625262L230.15544034864666,144.9900814092141M231.69506098693955,109.03741695159772L232.72034172509427,80.17748176869702M235.29683081332024,-1.8291426219845448L235.82044088288117,21.022874959478315M237.38910805203196,154.71642165484698L238.92795617620627,179.76597101733617L239.43920601987023,223.78815995613553L239.95431843412695,189.98967283356575L240.46788582014656,73.26822998796001M242.01028750926628,143.99551668865155ZM243.03865830389523,122.02732780677746L245.62086399659856,196.00302954332986L247.67497903785335,128.98711576876002L248.19410852552662,190.5668255952408L249.21738072697306,91.74342878335813L250.77693222952482,70.20062569879161L254.41485571665416,138.67715128648663L254.92409702360987,147.43514542596495L256.47638689344717,252.1786023977523L267.47467039940585,187.9101512208137L267.9925638644894,106.67824332021348L268.5030411940348,172.95241849936005L269.53125748584006,155.63493127087568L270.5738425402505,52.894571159167924L271.6079299393568,25.513149320679986L272.64294435540535,155.78879730860208M277.3109381682245,222.52864993217264L277.8314581813112,87.44824942906513L278.3510511774556,205.31021520313578L278.868481134068,117.1970827717422L279.9113751941259,151.72529492522807L280.4266421112063,186.33397155747346L281.96997081726835,161.67160221681524L283.52658676616954,194.00954353485605L285.0730055287058,245.5452269439452L286.620505811008,168.190228327L287.14720593704317,110.93915101136298L287.6573742609411,175.91405258819987M288.6872900838072,80.688467513548L289.7287936184517,163.8242745558686L290.2500861456569,143.19459478588146L290.76782510791674,150.28991159756794L291.8048480606736,109.04232799115448L292.31980597210656,101.7521802069441L292.842643527549,163.0340064405241M294.9173074443575,235.52414511459034L295.4301023162585,199.8680836831086L297.51125535166295,99.96696452117914M302.6962156126234,200.45702558006377L303.21843515677097,112.92276213384625M305.28614644651236,172.9066481387597L306.84013584741047,167.7243924619452L310.4707977018254,206.04570938535917M312.5500967033452,185.3241060443133L314.1042406070671,224.24088651398637L314.62460611733,191.12479625886212M316.18184007752615,98.23297150606015L316.69834301719624,182.14750836111068L317.21669999075095,200.56653384114833L317.73691099819024,146.26716292148362L318.7736249452996,102.15066090044337L321.3607747283618,231.09215634382727L332.4058725899053,147.54318829621403L335.52142203006343,212.64353260925657L336.5599900110574,106.43818325757798L337.08190054955753,131.81928059702642L337.6099912010061,177.65596663486207L338.1345282875093,98.72196318665954L338.6569023344805,165.2960946286274M339.6980968634776,-18.477989174470054L340.2226339499808,239.58248562574207L340.7448534941282,120.2913281303342L341.26151093662213,58.33906578693882L342.2988428950264,120.07194196002638L343.85963042016783,192.96264719923155M344.89866190963295,201.3719575301788L345.9372298906269,229.1445331079885L346.45774990371353,215.49219958657127L346.97703389421054,146.09387715475717L348.0259535643932,113.69398016832938M350.1024715150863,151.43964932606153L350.61433937004506,87.55161889070371M352.69502889697833,160.14677724131332L353.2172484411259,188.2592442826412L354.2663226141322,136.68271475422765M355.30133703018083,214.29142401150114L356.33588793775823,145.12479175232522L357.38156304864293,160.0658771058189L357.90270107302445,208.2154515473881L359.4531369089772,210.65054826611382L359.97087587123707,271.0267695642209L360.4889238391443,100.95484917180693L361.00867133811244,121.63621367261337L361.52471076931147,59.950230006261506L362.0430677428662,77.71425218627377M363.07931818150445,160.31619490430285L364.118658676617,97.31439588143525L364.64674932806554,218.66739788753463L365.16387027903056,146.0483840302608L366.73145592841536,104.52586141898331L367.25352096973916,159.3069762753854M368.8155445174703,107.48106627055392L369.334983010791,99.83312549153777L369.8525674702271,127.13755490342592L370.37416900307977,206.14542197076867L371.40516634571185,243.47220057705857M372.99824496100916,211.77680013608182ZM374.56691213015995,103.56923843951267ZM376.6347779227251,258.383951710404L377.1582334894623,210.7094411356374L377.6847791126738,247.63096656645865L379.25282827052973,238.38773003464473L381.3202305546238,-73.49578445338261M382.87900954305695,170.2080583057499L383.39767552225914,237.53582309217498M397.6314026595767,122.6017082074124L398.6789318043459,128.6897602446288L399.72012633334305,193.0745053663406L401.8035969111031,104.72863982648892L403.3824612666189,205.46132208154134L403.90112724582104,134.3607171642194M405.4711849403852,146.6695513238775L405.9980395692441,147.2458855789598L406.52412168398445,157.42097866495266L407.04695923942677,96.9627284843562L407.5629986706258,-92.68279354668994L408.08475470630214,209.81472101767676L408.6066652448023,169.70570648528098M411.2035487057583,186.01349982295534L411.724068718845,141.24068753168513L412.7702073382008,124.78622309326943L413.81279239261124,251.76868901539237L414.86387510232595,192.26139827671324L415.38779417753426,161.08928758291788L416.43702285336434,133.03687516240663L416.9544528099768,186.68841131559256L417.47605434282946,234.878435824909L419.05352817293186,95.66851114051497L419.57652023119795,57.91000991168289L420.09765825557946,180.79905835463705L420.6201868053744,236.39992076544354L421.1408613212848,267.4509584921013L422.18947198582003,154.6109663215687L422.7042753944293,247.477971842202L423.226958447048,223.1858447175916L424.2755691115832,79.0736596197155L424.80118771785243,172.78585240772608M426.3709364067692,230.64855217397033L426.89284694526924,117.76356854427246L427.4190835628333,183.4630596832416L427.94655620298704,199.3186941369924L428.47325632902215,230.8272110404269L430.0355888824008,72.83421026627036L431.0834270328175,198.03520979089214M433.6957607761447,157.1110022972293L434.21210921299115,213.591125612768L434.73216571760673,141.92923640029585L435.25361274763566,159.153717516744L435.78077638214194,118.50360411791388L436.3079400166483,164.27737076185815L436.83324961727004,281.43257589562836L437.3522246021195,246.58055857351667L438.3952731650012,214.362502067882L438.92104627409407,72.61661952977903M441.544813226376,105.9291777706128L443.6452791147445,128.87711904406365L444.1713612294848,201.39985276293007L445.2264610126159,166.06844801096503L445.75300663582743,217.2452558842709M446.789102571642,184.13273009334108ZM447.84080329265146,142.0643691984226ZM449.925664395825,71.6245367324334ZM464.6986063878984,268.6519056895215L465.2310231184109,151.01157037802923M466.2770072349431,227.12500010745686L467.32546339665464,82.47983520047819L468.89104050933116,196.4488251985804L469.41696812124775,150.2469532031654L470.46851433943357,115.54713190129638L470.9944419513502,211.09416563769L471.51465295878944,238.20555951087067L472.03949905094004,86.93562667102856L472.5626456120298,112.00500501581416L473.0876462070041,279.4422450980526L474.12436015411356,254.83029972402642L475.6856111877262,267.215974490513M477.2552053738192,0.5523155114745464L478.3086056258895,234.4916914598129L478.8346877406299,160.9177708465694L479.3650959344341,172.93342122537567L479.8922595689404,189.12642561427003L480.9473593520716,188.14041560777412L481.46896088492423,269.41481324174396L481.9948884968409,157.7355228275326L482.5158720183986,161.95987495811028M484.09118280896905,206.56870869471732ZM486.1834600476808,249.15820745658124L486.7044435692386,178.091715781772L488.7925492317101,245.72548321842967L489.31585029562353,180.22606413452215L490.37234060416813,170.70749254626702L491.43176646636323,170.11213461376187L492.48439420431504,199.22797192238446L493.00676825128625,197.3526413010965L493.52574323613584,160.71293297086257M494.57342688372876,146.04584930016696L495.10244455211966,230.19476947858038L496.14951018841776,271.28939136503527L497.19673032753957,184.65980873394398L498.2424054384243,180.73488479741798L499.8124631329885,276.91573967531855L500.3393177618474,253.29128290034294L500.8555116958701,238.69321781782696L501.3800487823733,190.822965351909L501.9101479705302,219.81927429454487M504.01463093231513,154.28811827758764L505.06633165332465,12.464939673342428L505.5849976325267,193.9968830861062L506.6300547321166,280.254606290543L508.18976073749207,231.91388415611746L509.2380623963799,188.87198887938362L509.7661530478285,183.67672950911907L510.285128032678,254.20387814615276L511.8530226877103,205.05101264760427L513.4461013030076,288.19509716788747L513.9731104346902,262.65410720588017M516.0763573738855,187.97049627945356L517.1143073435845,168.7691633207723L517.6380719159691,99.3027068159675L530.288145110236,-8.84131500590604L531.3302666561752,262.97644698367054L531.8543402342073,210.10803681572096L532.37594176706,262.5657546998755L532.9007878592106,176.0893450162506L533.9527975858675,259.40213430668445L534.4754806384861,204.05067877573444L534.9930650979223,230.60299304087775L535.514666630775,211.5953161017082L537.6132784852589,214.27711334784644L538.6584900876725,198.46959916072052L539.1845722024127,162.4140273016389L539.7095727973871,190.9538471964409L540.2382814601306,234.66072627294452L540.7614280212204,204.0174236449723L542.844589593333,210.8060117118681L543.370826210897,190.0396677443225L543.892273240926,169.90317780165262L544.412020739894,219.02371228978566M546.509551074612,112.8046067466604L547.0285260594616,194.81858449495792L547.5509001064328,177.26709679296854L548.0742011703463,268.8149733255573L549.1211123038207,264.71943036959107L549.6400872886703,230.22946359673955M550.6840628684942,120.61923243278363L551.7413256911573,140.5895259319582L553.3215805720864,157.26006290915282L553.8495167207113,256.64561532965547L554.3759078410991,265.35002369074414L554.8947283231249,271.0142609352423L555.9385494001251,259.4276004230958L556.4615414583911,179.07363325530392L556.9877780759552,224.29255804308642L558.049521480506,264.4973972545759L558.574676578304,293.56652027967255M560.1445797700445,232.26276599043712L562.2453546640603,237.57154694443477L562.7644841517337,292.5840879390903M564.3345418462978,231.99894283317204L564.8578429102114,263.754213070896L565.3845430362464,113.05007951418375L565.9127881905188,65.84680430764058L566.4401063278488,147.02499441265877L566.9671154595314,251.93892518497466M568.5305295326759,264.75001875306697L569.0553756248266,230.57043760123526L570.6320769408104,204.3707280552369L571.1495068974228,37.560351808466635L571.6706449218043,-131.93377553888928L572.1936369800704,185.3459284862148L573.2417841361346,272.92963237098104L576.3863801071506,177.7451970551961L576.915088769894,242.60326341677097L577.4403983705158,49.67475104717795L578.4829834249263,196.476073547089L580.5820587878814,236.88207395547732L582.1519619796218,206.82521809952416L594.3096346747175,185.10085177026863L595.8818554088136,222.24337398114477M597.9750596644676,116.60400873666532ZM599.0233613233554,151.69093085004988L600.0735170161278,282.48483873012344L600.6059337466403,164.03608293933345L601.1360329347972,169.99914109879833L601.6621150495375,233.15811979092123L602.1888151755726,239.04874011692365M603.2310912243356,207.22288028643064L603.7534652713069,208.11212169090726L604.2832554538163,151.49536058124858L605.3355741861207,273.228743723771L605.8613472952135,193.4387143966963L606.9203096489375,311.78180362670014L607.9662937654697,286.52836691228936L608.4866592757327,277.11425392751005L609.5321798837937,228.7731291406477L610.5661127800763,69.1518019121583L611.0906498665795,214.11681807285083L611.6173499926145,134.6582311089815L612.1383335141725,273.3083764942185L613.7273950560532,279.31327090195066L614.2530136623224,194.3447879932022L614.7684350822266,141.07466271053994L615.2860195416627,286.94146850984544L616.3406558163227,150.95826183574354L616.863029863294,250.52099453014807M621.5619242408555,254.1274797969187ZM623.1293553874167,225.84126492869106L624.1742579841829,242.32975019758476M625.2196240894201,81.26374563109124L625.742152639215,207.1605945750627L627.3168454184905,226.0183131854005M628.891074689295,310.4494663185573L629.4159207814456,236.45490592607248L629.9347412634716,205.04330284356888L630.4577333217376,236.06858401599203L632.0279455191254,227.8955712576973L636.2091009344273,240.97275867876374L636.7316294842221,275.7680812176051L637.2581751074337,61.01365489437279M639.356014447799,216.25338431443305L639.8793155117124,267.9748819218061M641.4581798672282,265.4965693751527L641.9868885299717,260.18351766498137L642.5132796503594,290.45973328780383L643.0334906577987,18.15279479355854L643.5521566370008,-21.87991380163794L645.1206693033278,260.3701503698581L645.6385627684115,265.81513346124086L646.1604733069115,272.07613462134304L648.7834677450749,244.35907887379147L659.9095250862438,98.125588721773L660.4303541049777,202.21846496947992L660.9539641745387,165.4398877545747L661.9979397543626,194.11551373518466L662.5158332194461,310.68564507573666L663.568924465869,243.35816412627514M667.2525807888173,31.77229563922924L668.2939298206381,176.00569892315457L668.8183124043175,209.20947499746185L669.347484575532,215.14524520326046L671.4374442718881,226.46212858276527L671.9592003075645,313.9453277789677L672.4842009025389,271.9729697863527M673.5253954315358,294.00964918763685L674.0533315801607,183.63616062589873L674.5774051581928,179.83493679863884L675.6278698566126,7.171895168677224L676.1541064741766,275.7630315599963L676.6821971256252,277.9825111992568L677.2095152629552,217.8661855469413L677.7300352760419,269.85411365112907L678.2494737693626,193.36399266580557L678.7733928445708,234.40156332257067L680.8709231792889,227.23520805966106L681.9128902224045,237.97055570670355L682.4394358456159,278.2240366527278M685.6034991724198,302.3175967182698L686.6422216562373,203.91553277588844L687.6861972360613,220.81193796753703L688.2141333846861,270.0359409302029L688.744232572843,242.1046344811274L689.7962422994998,295.0138115580859L691.3656819827692,165.6492934251381L691.8888285438591,187.68727979662688L693.4517791085325,193.4517973004618L694.5002352702439,267.2101987383461L696.0678209196288,209.90416266551858L697.6406596650198,264.6314343100059L698.1648877458756,190.13600068960687M699.7462241465709,242.8956550944685L700.277713860141,241.69885323688916L700.804568489,207.60525488245872M701.8592047636599,316.38414738251873L702.3809607993363,274.23539461829654L703.4260178989261,241.43962427791914L703.9511729967242,226.12046808886913L704.4775641171119,209.73545789536794L706.0514843822689,310.5169733098841L706.5684508304103,263.79057060567925L707.618452020359,298.8122102174287L708.1446886379229,181.09224213548885L711.8087231022597,252.5971629062135L712.3375862678267,151.77299273683727L712.8652134108042,322.2590642634868L713.3902140057786,272.6381450110514L713.91675962899,242.27959686619715L725.5517492714671,217.84054780817985L726.0779858890311,169.9726848534441L726.6066945517746,151.9231094862999L727.1307681298066,301.54589682103443M728.7151945869759,229.7262140593624ZM730.2841707617742,330.6210464309635ZM731.8701422471809,154.6809354335335L737.1119595472674,252.2005040499692L738.6996305637348,245.4374745115194L739.224167650238,271.7915055545579M740.2678342244144,171.872187822658L741.3198439510713,284.2224094111561L741.8442265347508,304.3503710431978M745.5260288238145,114.97164255624543L746.0477848594909,254.14115677804995L746.567532358459,193.98599166773434L747.093768976023,288.1387060241596L747.6204691020581,301.2658289482462L748.1442336744428,282.30659571782286L748.6621271395263,252.5723304723256L749.7087292673534,258.3948827339336L750.767846123901,306.1174871718866L751.2913016906382,271.50692269379005L752.3453199540035,121.38498495550198L753.3811068841704,276.91403005267716L754.4334256164748,303.9445963998192M755.490688439138,252.7671482431303L756.0214056385896,288.7388495798888M757.0738788737178,261.49395992176693L759.1613665248943,56.71361730739994L761.7786443585804,286.8200192937095L762.3031814450836,193.000179687027L763.3587447366859,166.97233012207732L763.8837453316603,248.4988607909264L764.4144625311119,300.3711616371625M766.531769227265,304.6651000298471L767.0578513420053,222.52418775107L767.585323982159,222.54405633852414L768.1115605997231,251.69548548221408M769.6944420286554,263.1296067294177ZM772.3111018510466,192.86969389407227L773.3624935664087,250.40258831029666L773.8828590766716,182.75947405641804L774.9280706790853,297.7753801927237L775.4580153644183,306.69612512697597L777.039042759466,194.60714575963178L777.565897388325,292.4700448874473L778.0908979832993,205.25793639495078M779.1503238454944,286.66705097289133L779.676251457411,12.851829257350118L780.2035695947411,210.92742792370592L791.8336151468593,310.97052497518735L792.3606242785419,307.7626854234064L792.8860883819873,305.22476051353095L793.4127885080226,306.2424018393226L793.93500805217,159.0011188440645L794.4550645567856,287.91260677961895L795.504138729792,195.83561854166462L797.1111225992233,125.71187483940619L797.6282435501884,206.66489642109008L798.6750001808391,328.36121573685L800.7821096906272,240.92189245453721L801.3058742630118,197.67192488088313L802.3493863343646,269.71492132433644L802.8722238898068,270.46967681492896L804.448770702967,161.9933941232572L805.5054155143354,242.43352891251976L806.0260900302457,294.14106570179797L806.5459920320375,247.03884305516698L807.5916671429222,295.6219091496563L808.1171312463678,290.66490120649155L808.6447583893452,189.4228438163353L809.1638878770184,312.42222562782644M811.7895088631849,204.12458200003238L812.3175995146335,223.472863295559L813.3742443260018,302.9920593524529L813.9034164972163,111.66239399813284L814.4310436401937,239.70416587196465M816.0159336058344,310.9650990685803L817.583055746748,246.76181817866325L818.6316664112833,268.7292017556638L819.1588300457896,257.7804879222863M820.7350678533022,205.42969076224554L821.2591414313343,228.58458218648138L821.7793524387736,316.63809565379324M822.8264180750717,156.55209431154205L823.3534272067542,239.92555870359672L824.9267294606165,249.78466863961268L825.4523480668856,324.4023435793019L825.97734866186,292.01962202960357L826.5001862173024,215.38710069971245L827.0290493828694,287.09025188566494M828.0832221490583,294.7232615202222L829.1412574858401,218.69621724063262L829.6662580808144,217.8297223984042L830.1957392576763,231.40938045541265L830.7250659317147,126.32493627741039L831.2496030182178,260.34415618467716L831.780011212022,293.4524112194333L833.3613476127173,230.81997649828412L834.9289332621021,264.6864128697752L835.9824880169961,51.12266280639551L837.0348067493004,261.7494131890347M838.0894430239605,244.0650501829084L838.6128985906978,310.40599965796406L839.1307920557813,246.47924858007931L841.2269318650858,268.65061192103616L843.317818578384,302.3608455504956L844.3638026949163,109.23079573500542L844.8877217701246,173.0892807227071L845.406233246503,293.76788610321955L857.0373603183872,212.77904825724124L857.5601978738296,328.7298473431507M861.230875959586,263.5270642896759ZM862.2808771495346,277.2002499266306L863.3348954128998,207.78519431568145L863.8581964768133,234.16843416253545L864.3810340322557,255.13646079488984L865.4284086742013,279.07857073732606L865.9526367550569,304.6654432745473L867.006191509951,246.0234592233651L867.532428127515,275.7804182242336L868.0620638072006,293.7788699336261L868.591390481239,259.1627079265724L869.1168545846845,260.197603899409L869.6457177502516,284.76718495639835L870.7020535559725,242.83732989887216L871.2278266650653,284.28320332825L872.7934037777419,213.88428299018133L875.4284494361548,271.9800063027069L877.5406575391255,327.7121235066138L881.7414348130387,180.8547564081049M882.7993156469967,270.828367526643L883.3241617391474,285.74554456659547L883.853179407538,288.31875107113626L885.4274086783425,258.9711905855774L885.9499372281375,261.899952393513M887.5235484876471,303.82162898597085ZM889.1048848883422,317.67175726588107L889.6332845454383,267.28024045976673L890.1542680669961,195.64462926943912L891.1956170988168,196.70534780510653L891.7181456486118,318.78892635301287L892.241601215349,262.76065168099564L892.7715459006821,294.769111091138L893.2979370210699,285.348489658774L894.3488652279608,341.93955692236443L894.8690762354,278.6894104576093M896.4493311163292,247.73390037136238L897.5067484418161,265.8313847776236L898.0315945339667,297.1822467499102L900.6689577347354,239.5574815695041L901.7197314388026,145.0029398837525L903.8171072706967,342.45391570648087L904.3430348826133,329.0892575485632L904.8715890425331,280.51137972973464L906.9837971455037,284.2289640647581L909.6240958999228,285.8849943269133L910.1545040937272,326.24919809219205M924.4566759819493,269.4339755372188L924.9856936503401,299.92287085697586L926.5650215143271,243.33652650844303L927.0938846798941,158.4165071110196L928.1380147625417,316.9058991294088L928.6648693914007,304.2776031667544M929.715643095468,285.9464021239518L930.7682708334196,207.96490931967713L931.2965159876919,273.15723001065527L931.8244521363168,298.59583403910733L932.880633439214,234.36041356370382L933.4065610511306,199.676698359306L933.9372782505822,339.47271997015923L934.4659869133257,220.12313826626075L934.9933050506556,310.20765702812264L937.0829557413643,274.86586252311685L938.6516229105151,267.4573481242128L939.1739969574863,259.4863084685501L939.6938989592782,273.2762831147494L940.2165820118967,305.6736387702237L941.2716817950279,301.89438260377693M942.331107657223,251.95386953115283L942.8568807663158,295.1192404879257L943.3874434629439,312.8448984718305L943.9180061595719,318.2201533826245L944.4430067545462,265.77790461298787L944.9686253608154,317.5561432096486L945.5004240800331,349.32530000579675M948.1136848403027,299.4081424247207L948.642393503046,308.77948844002646L950.7533655834268,292.5269310956466L951.2826922574652,283.5437948362724L951.8141819710354,304.2183208465133L952.8698997654614,352.30164411029824L954.9770092752494,165.18770851367813L956.5438224105156,274.01040431817194M959.6803842346987,313.0502512145876L960.2046123155545,304.35715672688644L960.7344024980639,270.6485601106126M962.8475376179769,276.7705471671319L963.9010923728708,260.65194106700693L964.4284105102008,339.7377048787173L964.9475399978742,176.99192015715823L965.4683690166082,281.3783630355749L965.9950691426434,261.15672200381573L967.0447613269446,285.75432370988915L967.5734699896881,230.21117921559403L969.1575874412101,274.1753862034973L969.6836695559504,276.8685501299L970.2140777497547,271.3461389551826L970.7429409153217,307.08096184364206L971.274430628892,298.90020627701387L971.8029847888117,244.72326150070873L974.4463735997052,297.92468503645307L974.9766272906857,325.01640174710855L975.500546365894,311.1221401197836L988.7364942676777,266.95252758224626L989.7786158136171,56.696587089582124M990.8341791052194,312.9264322898484L991.3585616888989,221.502823540453L992.412579952264,288.02369924701213L992.9360355190013,318.7164852191206L993.4633536563313,319.54963911941184L993.9815561270623,345.91952212682617M995.0292397746553,278.03738414527226L995.5568669176326,309.85595002588593L996.6116576951165,219.15814539679278L997.6642854330681,305.6549055306241L998.1946936268724,310.9954234176714L998.7246383122056,192.32999440987723L999.7805106094552,312.4180604854066M1001.3555123943783,210.33541002616815L1002.4005694939681,287.8175345985219L1002.9221710268208,259.64186432633903L1003.4456265935579,254.41818165455365L1003.9683096461766,290.9744155140416L1004.4882116479685,322.00209279850657L1006.5914585871637,296.98839270460996M1007.6505754437114,329.93532273026983L1008.1761940499806,232.08969145121847M1009.2342293867623,318.6874942436726L1009.7593844845604,294.4477284379924L1010.8211278891112,274.85889201535883L1011.3464374897329,329.0299158205855L1011.8756096609475,220.34325053112667L1012.403700312396,273.3830454182323L1014.5029301781749,306.29980291457224M1016.5995334959505,323.5673909447644L1017.6549422847291,319.29926521362114M1019.2410682729594,310.33725170502885L1019.7703949469976,308.9757716016666L1020.3021936662153,296.21514160536407L1020.827503266837,337.2087043310471L1021.3566754380515,272.0142779658504L1021.884302581029,257.17918921612375L1022.927660149558,285.6150587736407L1023.4487981739396,317.36007127551625L1023.9741077745614,253.66074621495565L1024.499571878007,178.36792215168293L1025.0265810096894,303.9797261747132L1025.554208152667,308.1256006852768L1026.07874523917,283.8216052150708L1026.6096169414454,280.3367341859266L1027.132918005359,311.6153035436624L1028.6964865813272,311.5874677186477L1029.2221051875965,325.53261207234823L1030.2728788916636,123.03277074399264L1030.79463492734,332.8154064989427L1032.362220576725,340.9401372695519L1032.8875301773464,348.11322540927324L1033.4174748626797,302.1843319634153M1034.4724201429872,300.53846042421424L1035.5290649543554,286.7453965757131M1037.114572931291,293.91703912717776L1037.6443631138002,225.24900940020697L1038.701316930816,292.56120935964975L1039.226472028614,313.35587101496225M1040.2699840999667,332.749701542292L1041.3145776910856,326.6683064720017L1041.836797235233,321.692274851414L1042.8766012388166,336.880707616563L1043.3975847603745,321.3678128972561L1054.5330667737896,267.35023597517005L1055.5832224665621,272.152084112123L1056.1082230615364,289.42232238745225L1056.6375497355746,308.80386541460064M1058.2014273171903,325.889659170017L1059.2545185636131,287.5372092922085L1060.303901742267,233.01489433890117L1060.8315288852446,150.07585892183255L1061.8841566231963,283.0163861526886" style="fill: none;" fill="none"></path></g></g></g></g></g><g><g opacity="0.992162"><span fill="rgb(0, 0, 0)" stroke="none" stroke-width="1px">Alt + Scroll to Zoom</span></g></g></g><g transform="translate(40, 366)" clip-path="url(#clip_1)"><clipPath id="clip_1"><rect width="1119" height="34"></rect></clipPath><g><g visibility="inherit"><g><g transform="translate(0,0)" style="visibility: inherit;"><text transform="translate(3,14)" style="text-anchor: start; font-family: &quot;Helvetica Neue&quot;, sans-serif; font-size: 12px; font-weight: 200;" fill="rgb(50, 49, 63)" stroke="none" stroke-width="1px">08:48 AM</text></g><g transform="translate(109.29823304771806,0)" style="visibility: inherit;"><text transform="translate(3,14)" style="text-anchor: start; font-family: &quot;Helvetica Neue&quot;, sans-serif; font-size: 12px; font-weight: 200;" fill="rgb(50, 49, 63)" stroke="none" stroke-width="1px">09:00 AM</text></g><g transform="translate(248.35077438877084,0)" style="visibility: inherit;"><text transform="translate(3,14)" style="text-anchor: start; font-family: &quot;Helvetica Neue&quot;, sans-serif; font-size: 12px; font-weight: 200;" fill="rgb(50, 49, 63)" stroke="none" stroke-width="1px">09:15 AM</text></g><g transform="translate(387.4033157298237,0)" style="visibility: inherit;"><text transform="translate(3,14)" style="text-anchor: start; font-family: &quot;Helvetica Neue&quot;, sans-serif; font-size: 12px; font-weight: 200;" fill="rgb(50, 49, 63)" stroke="none" stroke-width="1px">09:30 AM</text></g><g transform="translate(526.4558570708765,0)" style="visibility: inherit;"><text transform="translate(3,14)" style="text-anchor: start; font-family: &quot;Helvetica Neue&quot;, sans-serif; font-size: 12px; font-weight: 200;" fill="rgb(50, 49, 63)" stroke="none" stroke-width="1px">09:45 AM</text></g><g transform="translate(665.5083984119293,0)" style="visibility: inherit;"><text transform="translate(3,14)" style="text-anchor: start; font-family: &quot;Helvetica Neue&quot;, sans-serif; font-size: 12px; font-weight: 200;" fill="rgb(50, 49, 63)" stroke="none" stroke-width="1px">10:00 AM</text></g><g transform="translate(804.5609397529821,0)" style="visibility: inherit;"><text transform="translate(3,14)" style="text-anchor: start; font-family: &quot;Helvetica Neue&quot;, sans-serif; font-size: 12px; font-weight: 200;" fill="rgb(50, 49, 63)" stroke="none" stroke-width="1px">10:15 AM</text></g><g transform="translate(943.6134810940349,0)" style="visibility: inherit;"><text transform="translate(3,14)" style="text-anchor: start; font-family: &quot;Helvetica Neue&quot;, sans-serif; font-size: 12px; font-weight: 200;" fill="rgb(50, 49, 63)" stroke="none" stroke-width="1px">10:30 AM</text></g><g transform="translate(1082.6660224350878,0)" style="visibility: hidden;"><text transform="translate(3,14)" style="text-anchor: start; font-family: &quot;Helvetica Neue&quot;, sans-serif; font-size: 12px; font-weight: 200;" fill="rgb(50, 49, 63)" stroke="none" stroke-width="1px">10:45 AM</text></g><g transform="translate(1119.22,0)" style="visibility: hidden;"><text transform="translate(3,14)" style="text-anchor: start; font-family: &quot;Helvetica Neue&quot;, sans-serif; font-size: 12px; font-weight: 200;" fill="rgb(50, 49, 63)" stroke="none" stroke-width="1px">10:48 AM</text></g></g><g><line x1="0" y1="0" x2="0" y2="17" fill="rgb(0, 0, 0)" stroke="rgb(204, 204, 204)" stroke-width="1px"></line><line x1="109.29823304771806" y1="0" x2="109.29823304771806" y2="17" fill="rgb(0, 0, 0)" stroke="rgb(204, 204, 204)" stroke-width="1px"></line><line x1="248.35077438877084" y1="0" x2="248.35077438877084" y2="17" fill="rgb(0, 0, 0)" stroke="rgb(204, 204, 204)" stroke-width="1px"></line><line x1="387.4033157298237" y1="0" x2="387.4033157298237" y2="17" fill="rgb(0, 0, 0)" stroke="rgb(204, 204, 204)" stroke-width="1px"></line><line x1="526.4558570708765" y1="0" x2="526.4558570708765" y2="17" fill="rgb(0, 0, 0)" stroke="rgb(204, 204, 204)" stroke-width="1px"></line><line x1="665.5083984119293" y1="0" x2="665.5083984119293" y2="17" fill="rgb(0, 0, 0)" stroke="rgb(204, 204, 204)" stroke-width="1px"></line><line x1="804.5609397529821" y1="0" x2="804.5609397529821" y2="17" fill="rgb(0, 0, 0)" stroke="rgb(204, 204, 204)" stroke-width="1px"></line><line x1="943.6134810940349" y1="0" x2="943.6134810940349" y2="17" fill="rgb(0, 0, 0)" stroke="rgb(204, 204, 204)" stroke-width="1px"></line><line x1="1082.6660224350878" y1="0" x2="1082.6660224350878" y2="17" fill="rgb(0, 0, 0)" stroke="rgb(204, 204, 204)" stroke-width="1px"></line><line x1="1119.22" y1="0" x2="1119.22" y2="17" fill="rgb(0, 0, 0)" stroke="rgb(204, 204, 204)" stroke-width="1px"></line></g><line x1="0" y1="0" x2="1119.22" y2="0" style="visibility: inherit;" fill="rgb(0, 0, 0)" stroke="rgb(204, 204, 204)" stroke-width="1px"></line></g><g visibility="inherit"><g><g transform="translate(54.64903927244717,0)" style="visibility: inherit;"><text transform="translate(0,31)" style="text-anchor: middle; font-family: &quot;Helvetica Neue&quot;, sans-serif; font-size: 12px; font-weight: 200;" fill="rgb(50, 49, 63)" stroke="none" stroke-width="1px">August 18, 2020</text></g><g transform="translate(178.82450371824447,0)" style="visibility: inherit;"><text transform="translate(0,31)" style="text-anchor: middle; font-family: &quot;Helvetica Neue&quot;, sans-serif; font-size: 12px; font-weight: 200;" fill="rgb(50, 49, 63)" stroke="none" stroke-width="1px">August 18, 2020</text></g><g transform="translate(317.8770450592973,0)" style="visibility: inherit;"><text transform="translate(0,31)" style="text-anchor: middle; font-family: &quot;Helvetica Neue&quot;, sans-serif; font-size: 12px; font-weight: 200;" fill="rgb(50, 49, 63)" stroke="none" stroke-width="1px">August 18, 2020</text></g><g transform="translate(456.92958640035005,0)" style="visibility: inherit;"><text transform="translate(0,31)" style="text-anchor: middle; font-family: &quot;Helvetica Neue&quot;, sans-serif; font-size: 12px; font-weight: 200;" fill="rgb(50, 49, 63)" stroke="none" stroke-width="1px">August 18, 2020</text></g><g transform="translate(595.982127741403,0)" style="visibility: inherit;"><text transform="translate(0,31)" style="text-anchor: middle; font-family: &quot;Helvetica Neue&quot;, sans-serif; font-size: 12px; font-weight: 200;" fill="rgb(50, 49, 63)" stroke="none" stroke-width="1px">August 18, 2020</text></g><g transform="translate(735.0346690824557,0)" style="visibility: inherit;"><text transform="translate(0,31)" style="text-anchor: middle; font-family: &quot;Helvetica Neue&quot;, sans-serif; font-size: 12px; font-weight: 200;" fill="rgb(50, 49, 63)" stroke="none" stroke-width="1px">August 18, 2020</text></g><g transform="translate(874.0872104235085,0)" style="visibility: inherit;"><text transform="translate(0,31)" style="text-anchor: middle; font-family: &quot;Helvetica Neue&quot;, sans-serif; font-size: 12px; font-weight: 200;" fill="rgb(50, 49, 63)" stroke="none" stroke-width="1px">August 18, 2020</text></g><g transform="translate(1013.1397517645614,0)" style="visibility: inherit;"><text transform="translate(0,31)" style="text-anchor: middle; font-family: &quot;Helvetica Neue&quot;, sans-serif; font-size: 12px; font-weight: 200;" fill="rgb(50, 49, 63)" stroke="none" stroke-width="1px">August 18, 2020</text></g><g transform="translate(1100.9429339661322,0)" style="visibility: hidden;"><text transform="translate(0,31)" style="text-anchor: middle; font-family: &quot;Helvetica Neue&quot;, sans-serif; font-size: 12px; font-weight: 200;" fill="rgb(50, 49, 63)" stroke="none" stroke-width="1px">August 18, 2020</text></g></g><g><line x1="0" y1="17" x2="0" y2="34" fill="rgb(0, 0, 0)" stroke="rgb(204, 204, 204)" stroke-width="1px"></line><line x1="109.29823304771806" y1="17" x2="109.29823304771806" y2="34" fill="rgb(0, 0, 0)" stroke="rgb(204, 204, 204)" stroke-width="1px"></line><line x1="248.35077438877084" y1="17" x2="248.35077438877084" y2="34" fill="rgb(0, 0, 0)" stroke="rgb(204, 204, 204)" stroke-width="1px"></line><line x1="387.4033157298237" y1="17" x2="387.4033157298237" y2="34" fill="rgb(0, 0, 0)" stroke="rgb(204, 204, 204)" stroke-width="1px"></line><line x1="526.4558570708765" y1="17" x2="526.4558570708765" y2="34" fill="rgb(0, 0, 0)" stroke="rgb(204, 204, 204)" stroke-width="1px"></line><line x1="665.5083984119293" y1="17" x2="665.5083984119293" y2="34" fill="rgb(0, 0, 0)" stroke="rgb(204, 204, 204)" stroke-width="1px"></line><line x1="804.5609397529821" y1="17" x2="804.5609397529821" y2="34" fill="rgb(0, 0, 0)" stroke="rgb(204, 204, 204)" stroke-width="1px"></line><line x1="943.6134810940349" y1="17" x2="943.6134810940349" y2="34" fill="rgb(0, 0, 0)" stroke="rgb(204, 204, 204)" stroke-width="1px"></line><line x1="1082.6660224350878" y1="17" x2="1082.6660224350878" y2="34" fill="rgb(0, 0, 0)" stroke="rgb(204, 204, 204)" stroke-width="1px"></line><line x1="1119.22" y1="17" x2="1119.22" y2="34" fill="rgb(0, 0, 0)" stroke="rgb(204, 204, 204)" stroke-width="1px"></line></g><line x1="0" y1="17" x2="1119.22" y2="17" style="visibility: inherit;" fill="rgb(0, 0, 0)" stroke="rgb(204, 204, 204)" stroke-width="1px"></line></g></g></g></g></g></svg>