<svg viewBox="0 0 1159.2222900390625 400" xmlns="http://www.w3.org/2000/svg"><g><g><g><g><g><line x1="30" y1="352.7922052379786" x2="25" y2="352.7922052379786" style="visibility: inherit;" fill="rgb(0, 0, 0)" stroke="rgb(204, 204, 204)" stroke-width="1px"></line><line x1="30" y1="322.24189797518613" x2="25" y2="322.24189797518613" style="visibility: inherit;" fill="rgb(0, 0, 0)" stroke="rgb(204, 204, 204)" stroke-width="1px"></line><line x1="30" y1="291.6915907123937" x2="25" y2="291.6915907123937" style="visibility: inherit;" fill="rgb(0, 0, 0)" stroke="rgb(204, 204, 204)" stroke-width="1px"></line><line x1="30" y1="261.1412834496013" x2="25" y2="261.1412834496013" style="visibility: inherit;" fill="rgb(0, 0, 0)" stroke="rgb(204, 204, 204)" stroke-width="1px"></line><line x1="30" y1="230.5909761868089" x2="25" y2="230.5909761868089" style="visibility: inherit;" fill="rgb(0, 0, 0)" stroke="rgb(204, 204, 204)" stroke-width="1px"></line><line x1="30" y1="200.04066892401647" x2="25" y2="200.04066892401647" style="visibility: inherit;" fill="rgb(0, 0, 0)" stroke="rgb(204, 204, 204)" stroke-width="1px"></line><line x1="30" y1="169.49036166122406" x2="25" y2="169.49036166122406" style="visibility: inherit;" fill="rgb(0, 0, 0)" stroke="rgb(204, 204, 204)" stroke-width="1px"></line><line x1="30" y1="138.94005439843167" x2="25" y2="138.94005439843167" style="visibility: inherit;" fill="rgb(0, 0, 0)" stroke="rgb(204, 204, 204)" stroke-width="1px"></line><line x1="30" y1="108.38974713563925" x2="25" y2="108.38974713563925" style="visibility: inherit;" fill="rgb(0, 0, 0)" stroke="rgb(204, 204, 204)" stroke-width="1px"></line><line x1="30" y1="77.83943987284681" x2="25" y2="77.83943987284681" style="visibility: inherit;" fill="rgb(0, 0, 0)" stroke="rgb(204, 204, 204)" stroke-width="1px"></line><line x1="30" y1="47.28913261005437" x2="25" y2="47.28913261005437" style="visibility: inherit;" fill="rgb(0, 0, 0)" stroke="rgb(204, 204, 204)" stroke-width="1px"></line><line x1="30" y1="16.73882534726198" x2="25" y2="16.73882534726198" style="visibility: inherit;" fill="rgb(0, 0, 0)" stroke="rgb(204, 204, 204)" stroke-width="1px"></line></g><g transform="translate(20, 0)"><text x="0" y="352.7922052379786" dx="0em" dy="0.3em" style="text-anchor: end; visibility: inherit; font-family: &quot;Helvetica Neue&quot;, sans-serif; font-size: 12px; font-weight: 200;" fill="rgb(50, 49, 63)" stroke="none" stroke-width="1px">1</text><text x="0" y="322.24189797518613" dx="0em" dy="0.3em" style="text-anchor: end; visibility: inherit; font-family: &quot;Helvetica Neue&quot;, sans-serif; font-size: 12px; font-weight: 200;" fill="rgb(50, 49, 63)" stroke="none" stroke-width="1px">2</text><text x="0" y="291.6915907123937" dx="0em" dy="0.3em" style="text-anchor: end; visibility: inherit; font-family: &quot;Helvetica Neue&quot;, sans-serif; font-size: 12px; font-weight: 200;" fill="rgb(50, 49, 63)" stroke="none" stroke-width="1px">3</text><text x="0" y="261.1412834496013" dx="0em" dy="0.3em" style="text-anchor: end; visibility: inherit; font-family: &quot;Helvetica Neue&quot;, sans-serif; font-size: 12px; font-weight: 200;" fill="rgb(50, 49, 63)" stroke="none" stroke-width="1px">4</text><text x="0" y="230.5909761868089" dx="0em" dy="0.3em" style="text-anchor: end; visibility: inherit; font-family: &quot;Helvetica Neue&quot;, sans-serif; font-size: 12px; font-weight: 200;" fill="rgb(50, 49, 63)" stroke="none" stroke-width="1px">5</text><text x="0" y="200.04066892401647" dx="0em" dy="0.3em" style="text-anchor: end; visibility: inherit; font-family: &quot;Helvetica Neue&quot;, sans-serif; font-size: 12px; font-weight: 200;" fill="rgb(50, 49, 63)" stroke="none" stroke-width="1px">6</text><text x="0" y="169.49036166122406" dx="0em" dy="0.3em" style="text-anchor: end; visibility: inherit; font-family: &quot;Helvetica Neue&quot;, sans-serif; font-size: 12px; font-weight: 200;" fill="rgb(50, 49, 63)" stroke="none" stroke-width="1px">7</text><text x="0" y="138.94005439843167" dx="0em" dy="0.3em" style="text-anchor: end; visibility: inherit; font-family: &quot;Helvetica Neue&quot;, sans-serif; font-size: 12px; font-weight: 200;" fill="rgb(50, 49, 63)" stroke="none" stroke-width="1px">8</text><text x="0" y="108.38974713563925" dx="0em" dy="0.3em" style="text-anchor: end; visibility: inherit; font-family: &quot;Helvetica Neue&quot;, sans-serif; font-size: 12px; font-weight: 200;" fill="rgb(50, 49, 63)" stroke="none" stroke-width="1px">9</text><text x="0" y="77.83943987284681" dx="0em" dy="0.3em" style="text-anchor: end; visibility: inherit; font-family: &quot;Helvetica Neue&quot;, sans-serif; font-size: 12px; font-weight: 200;" fill="rgb(50, 49, 63)" stroke="none" stroke-width="1px">10</text><text x="0" y="47.28913261005437" dx="0em" dy="0.3em" style="text-anchor: end; visibility: inherit; font-family: &quot;Helvetica Neue&quot;, sans-serif; font-size: 12px; font-weight: 200;" fill="rgb(50, 49, 63)" stroke="none" stroke-width="1px">11</text><text x="0" y="16.73882534726198" dx="0em" dy="0.3em" style="text-anchor: end; visibility: inherit; font-family: &quot;Helvetica Neue&quot;, sans-serif; font-size: 12px; font-weight: 200;" fill="rgb(50, 49, 63)" stroke="none" stroke-width="1px">12</text></g><line x1="30" y1="0" x2="30" y2="366" fill="rgb(0, 0, 0)" stroke="rgb(204, 204, 204)" stroke-width="1px"></line></g></g><g transform="translate(30, 0)" clip-path="url(#clip_0)"><clipPath id="clip_0"><rect width="1129" height="366"></rect></clipPath><g><g><g><line x1="130.12001973045113" y1="0" x2="130.12001973045113" y2="366" fill="rgb(0, 0, 0)" stroke="rgb(60, 60, 60)" stroke-width="1px" opacity="0.25"></line><line x1="272.151596557974" y1="0" x2="272.151596557974" y2="366" fill="rgb(0, 0, 0)" stroke="rgb(60, 60, 60)" stroke-width="1px" opacity="0.25"></line><line x1="414.18317338549696" y1="0" x2="414.18317338549696" y2="366" fill="rgb(0, 0, 0)" stroke="rgb(60, 60, 60)" stroke-width="1px" opacity="0.25"></line><line x1="556.2147502130199" y1="0" x2="556.2147502130199" y2="366" fill="rgb(0, 0, 0)" stroke="rgb(60, 60, 60)" stroke-width="1px" opacity="0.25"></line><line x1="698.2463270405428" y1="0" x2="698.2463270405428" y2="366" fill="rgb(0, 0, 0)" stroke="rgb(60, 60, 60)" stroke-width="1px" opacity="0.25"></line><line x1="840.2779038680656" y1="0" x2="840.2779038680656" y2="366" fill="rgb(0, 0, 0)" stroke="rgb(60, 60, 60)" stroke-width="1px" opacity="0.25"></line><line x1="982.3094806955885" y1="0" x2="982.3094806955885" y2="366" fill="rgb(0, 0, 0)" stroke="rgb(60, 60, 60)" stroke-width="1px" opacity="0.25"></line><line x1="1124.3410575231114" y1="0" x2="1124.3410575231114" y2="366" fill="rgb(0, 0, 0)" stroke="rgb(60, 60, 60)" stroke-width="1px" opacity="0.25"></line></g><g><line x1="0" y1="352.7922052379786" x2="1129.22" y2="352.7922052379786" fill="rgb(0, 0, 0)" stroke="rgb(60, 60, 60)" stroke-width="1px" opacity="0.25"></line><line x1="0" y1="322.24189797518613" x2="1129.22" y2="322.24189797518613" fill="rgb(0, 0, 0)" stroke="rgb(60, 60, 60)" stroke-width="1px" opacity="0.25"></line><line x1="0" y1="291.6915907123937" x2="1129.22" y2="291.6915907123937" fill="rgb(0, 0, 0)" stroke="rgb(60, 60, 60)" stroke-width="1px" opacity="0.25"></line><line x1="0" y1="261.1412834496013" x2="1129.22" y2="261.1412834496013" fill="rgb(0, 0, 0)" stroke="rgb(60, 60, 60)" stroke-width="1px" opacity="0.25"></line><line x1="0" y1="230.5909761868089" x2="1129.22" y2="230.5909761868089" fill="rgb(0, 0, 0)" stroke="rgb(60, 60, 60)" stroke-width="1px" opacity="0.25"></line><line x1="0" y1="200.04066892401647" x2="1129.22" y2="200.04066892401647" fill="rgb(0, 0, 0)" stroke="rgb(60, 60, 60)" stroke-width="1px" opacity="0.25"></line><line x1="0" y1="169.49036166122406" x2="1129.22" y2="169.49036166122406" fill="rgb(0, 0, 0)" stroke="rgb(60, 60, 60)" stroke-width="1px" opacity="0.25"></line><line x1="0" y1="138.94005439843167" x2="1129.22" y2="138.94005439843167" fill="rgb(0, 0, 0)" stroke="rgb(60, 60, 60)" stroke-width="1px" opacity="0.25"></line><line x1="0" y1="108.38974713563925" x2="1129.22" y2="108.38974713563925" fill="rgb(0, 0, 0)" stroke="rgb(60, 60, 60)" stroke-width="1px" opacity="0.25"></line><line x1="0" y1="77.83943987284681" x2="1129.22" y2="77.83943987284681" fill="rgb(0, 0, 0)" stroke="rgb(60, 60, 60)" stroke-width="1px" opacity="0.25"></line><line x1="0" y1="47.28913261005437" x2="1129.22" y2="47.28913261005437" fill="rgb(0, 0, 0)" stroke="rgb(60, 60, 60)" stroke-width="1px" opacity="0.25"></line><line x1="0" y1="16.73882534726198" x2="1129.22" y2="16.73882534726198" fill="rgb(0, 0, 0)" stroke="rgb(60, 60, 60)" stroke-width="1px" opacity="0.25"></line></g></g></g><g><g><line x1="0" y1="383.34251250077097" x2="1129.22" y2="383.34251250077097" fill="rgb(0, 0, 0)" stroke="rgb(153, 153, 153)" stroke-width="1.5px"></line></g></g><g><g><line x1="-252141142.57988665" y1="0" x2="-252141142.57988665" y2="366" fill="rgb(0, 0, 0)" stroke="rgb(153, 153, 153)" stroke-width="1.5px"></line></g></g><g><g><g><g><g><path stroke="rgb(0, 153, 136)" stroke-width="2px" d="M30.644101764853776,97.15276878885521L31.68456197154695,197.66204772030952L32.20455535559883,194.77161264013372L33.23286397183009,208.20389195313209L34.271430424165565,210.0948359966479L34.784322229376066,200.20181071010623L35.82683400329009,146.50044246942807L36.34351331721599,175.85606457122674L36.86398013985729,186.57437767542297M37.895918451940815,190.08007027773772L38.40738994138304,208.68514976332847L38.931170834150315,195.79363551296655L39.44832358666564,220.53601416581043M42.035192039284254,209.491820563229ZM45.117277256441504,215.05115572124083L46.15032025856702,202.8629866163936L46.6635276895038,207.14673504379107L47.703514457607554,226.2001309840403L49.26459929980517,193.81932817564976L49.775597350657975,221.0711742437496L50.817477873119415,230.0843981814693L51.33242124555076,222.95098405107257L51.85478182254976,217.76800995663075L52.370198633570524,227.94611782061753L53.401347881338346,226.47332222746374L54.431234626201025,211.95570542142661L54.94854519157949,212.94009441058614L56.506158150787996,222.63704359870678L57.016840575914514,236.23212919383184L57.53825427573466,221.38755672868035L58.05540702824999,222.94631862382536L58.57192852931274,191.48522602601807L60.12622741839527,211.35830901843173L60.64274891945803,156.06259064591603L61.68462944191948,173.6593808025627L62.72130213989726,181.52807887339418L63.23971739531771,212.95022754277656M64.26991976590668,217.07112204191566L65.81901083050553,224.25985070064365L66.33947765314683,239.510332635355L66.85915541147243,228.8791995562421L67.3829363042397,212.92945264811883L68.41803087358606,191.04927680494143L69.45028481139587,197.9085671283787L69.96901569254261,227.07356415442345L72.55525289370865,236.36856225138146L73.0750884648974,243.28072300449475L73.59113652737072,224.35104257294822L74.10513302262322,216.38163684902477L74.62875610252735,221.1709124179206L75.14685573222152,201.42206001121713L77.73956326077638,183.6725235499082L81.89966814605452,210.02040899802196L82.92971270378037,204.36732671133512L94.32380142261053,222.88291695171506M98.49479539544546,195.33376841643434L100.06519119656842,195.41877759677416L101.10328421031447,210.4513394504186L101.62454009727149,213.07923163410413L102.13995690829225,180.1288064324447L104.22119294740489,206.8302093714334L104.73866132564649,162.3967561752961L105.25975939974036,168.63532516017892L106.81263797305462,205.42338839168218L107.33200010565392,226.1119384254666L108.89608339225124,232.02825871742033L110.97195379401705,196.75956630449826L112.01730619946763,204.28505781117204L113.06392110782332,219.52612448941852L113.59606608233712,238.85423629668185M114.65388570397587,252.59137159739424L115.18382129840568,196.19563520082656L115.69939592228958,222.70720896432536M117.77873820704451,224.6196665175886L119.31804487412857,201.11385279930818L119.8295163635708,224.10766714998442L120.34019878869732,174.3956777868068L121.35430424724584,193.2615326307419L121.87114137403489,209.25083056149998L122.38687381078192,181.5871410749069L123.40555584236155,140.5901032314885L123.9156070160355,164.7206565573088L124.96427349161205,178.88834798745643L125.49152626736844,202.0199339610949L126.54903026328091,170.56075709494948L127.06681426724882,195.87170140081395L128.67729453560978,193.32528918152212L130.80934631665406,184.8909302150642L131.34164910403095,195.23288880317287M132.42077346219386,211.7751090896307L133.47038681494925,210.86966402670052L133.99085363759056,205.32754112722853L135.04125605466166,222.0980269028259L136.08518814434396,221.54674976066053L136.61291435868978,204.6882150744818L137.13716869004645,209.81305227776505L137.663474588624,216.272987219984L138.71971608163136,194.69463936605553L139.24065634286208,226.89468413881394L142.9022303934756,222.73804913300046M147.61389123543398,185.8790979586567L148.13972369542208,213.62176478545916M161.56265458280188,231.21742808070076ZM162.6430414438699,233.32110574144122L164.2707233143133,240.7310444009637L164.81596675646784,244.3065521237932L165.89240829595735,244.77303061268077L166.41303293146177,250.76642481039005L166.93760288854477,256.25533942524794L167.9843756097636,234.35350025489987L168.50578930958375,235.290053520306L169.0286233251722,252.9961467913367M170.59365348894835,231.9533781431085L171.11222655723193,231.17033538206158L171.63774339149379,225.75651822654268L172.15884146558764,247.3216447139695L172.6821489197655,244.47438486084909L174.2534915980673,230.4020379445927L174.78169125100257,223.74569462581584L175.83177804234737,236.9374164882867L177.9466282213092,200.1220280157496L178.46835754685563,165.83013101307756L179.51307870085364,198.57575282235453L180.54912014737886,193.04571096495698M183.69953833427644,219.6512368276475ZM186.30992090350318,216.61170002200765L186.82833615892363,226.6306182027896L187.87495106727934,239.05242791317636L189.97307308274813,252.79230277784978L191.02252862264038,248.33497272183257L192.06898571813295,254.96902503124534L192.60034162833102,241.09421180515574L193.1198615737935,236.4104862387443L195.21608983490455,221.80187303877676L195.74097541771386,208.3799545296342L196.7844340688067,220.74828406058518L197.83041772570985,220.10785007928834L198.87292949962387,240.93572667130843L201.49262302777595,254.11894903608595M203.06238757744637,260.34859791139786L204.63246775284304,258.59122945099955M206.72790694963845,244.92248737192875L207.77720467666757,255.05953596578547L208.29924962794027,242.95473486352344L208.8236617721601,221.1195436280426L210.92446660630233,229.32768161464287L211.45377094927957,239.04021078430992L212.494546781699,233.6553876714118L214.06588946000085,248.96433991506984L226.84462824003623,246.45577590054404M227.89234783843392,237.61118489302038L228.42023186564288,212.04744633777122L229.46605770968287,227.384632501731L230.50920073504943,229.5199562924432L231.03503319503756,231.6659915815144L231.56023440357313,233.50552576955013L232.07864965899358,234.52856167424432L233.63957668832808,253.1661153936089L234.1636732068216,263.6202127967548L235.20460685210423,247.47615059768304L237.28252882109086,250.6696659662677L238.33087967094113,258.21045772740325L239.38585866104336,248.0594674495434L239.91579425547317,246.9396328810875L240.4361032652513,242.72247284216164L240.96856386549138,246.29770400749516L241.4947119512058,260.7902548255929L242.5421159238772,248.60287365316933L243.06431868801303,232.6658384433463L244.66248955304897,227.30407885206614L245.71068259003607,231.62588414131105L246.23683067575047,239.61556706229214L247.27807994675936,243.71758297275932L248.32958705387247,241.7543953917479L248.84989606365062,242.84591822030762L249.3792004066279,253.10305237958005L250.42549968925726,263.72881190141345L250.9467555762143,259.1667373923015L251.47700679637038,256.0097229549506L251.99778924473796,214.97084093354343L253.04329946305165,183.4911476398336L253.56597566577696,209.2553889187844M255.13873865984706,216.16950702715565L256.1859848196553,214.16896271709157M258.28678965379754,185.67160737804963L258.81751431254304,197.56651218506775L259.35234210573026,199.48513715732142M260.954773918071,208.57499999127666L262.5265900349622,204.67701425504575L263.0487927990981,221.34390535868909L263.5749408848125,230.2355871727683L264.09935302903233,248.42635078447375M265.67479884177584,255.7746521896988ZM266.72520125884694,230.47910761790564L269.36272764053405,244.39715549158657L271.461007468866,181.9542882809382L271.99125868902206,204.91035022666745L273.03629546874635,222.94109545549048L274.6292585092986,235.48226207902803L278.34512018483287,225.29544725762133L278.865429194611,247.2973079421841L280.45097503059566,266.6116191115593L291.68488369333693,262.5792290703722L292.2138724105879,250.58768721370723L292.7352861104081,258.94825319333466L293.785530714616,263.52036878094816L294.8504519150962,248.34050167902947L295.90669340810354,242.85330987911757L296.96372396542654,230.3217406101168M301.73172399952654,247.6218690428879L302.263553348314,250.2055223634768L302.7942780070595,260.98968784339826L303.3227932857211,249.0686078674704L304.3878722990644,255.35908925800106L304.91433601050505,263.21861477137674L306.4905708875643,243.0543717536001L308.08069329657997,228.64903170051605L309.660084430902,230.9208115099129L311.2408958809923,242.63605453952994L311.7788799314423,231.86202903171656L312.2999780055362,220.22839051965684M313.35195855123874,194.93121145240926L314.4156172488137,216.9731109952386L314.94807784905385,231.21544884248166L315.47706656630476,236.32456164451116L316.5361486908487,224.97607940848968L317.0622967765631,152.80929404696008L317.5961776925714,155.7905863109036M319.7154466317012,187.6197190017507L320.23922752446845,193.1628407836564L322.3648089781239,208.64771500756632M327.6602196008434,218.5947298614329L328.19425832971484,219.66545117269916M330.30626787714016,234.69523868159345L331.8935496546193,251.11247478171862L335.6019941255859,259.01265340316155M337.72599745060995,260.5221527606748L339.31343704095224,274.8653803828562L339.8447929511503,254.91211104505237M341.4353887987554,216.1723954960521L341.96295720023807,238.27756298922296L342.49241935607847,234.44081715348327L343.0237752662765,187.68045616652762L344.08269957795727,188.3724289517742L346.7254337841281,219.67298342384618L358.00700193153824,234.1481688874352L361.1892983167904,258.2308675892728L362.25027419569204,251.91759686646768L362.7833660473847,264.6504604774454L363.32277041360294,267.22575860114665L363.85854508396903,270.36993462110655L364.39195256138794,270.8460277115014M365.45545344609985,260.2729222912607L365.99122811646583,274.59443740115995L366.5247934067479,272.5664037753833L367.05236180823056,241.55433157686832L368.1119173713639,245.8521672781005L369.70630072768444,258.1735193255507M370.76743441944916,243.2985472144687L371.8282524854876,256.9400939574775L372.359924021412,245.09059431488254L372.8903330544312,250.45984462729717L373.9618823951633,257.8754904616831M376.0827294629245,270.95091983763393L376.6055634785129,255.25874726462214M378.7308293064421,269.5056460369252L379.264236783861,276.80841895586616L380.33594393745625,256.31768439524853M381.3931323076425,251.63440015762313L382.4498472392392,255.47028122561267L383.51776688411906,262.6304673068463L384.050069671496,251.84809868958425L385.6337217531228,249.92693437376033L386.1625526575107,256.0465357876413L386.6912257490353,229.62816091038624L387.2227394720966,241.9286987557883L387.7498344349898,250.74654321907815L388.2792965908302,248.3659770160919M389.33758965105835,227.38788536644503L390.3993545942757,221.7599611893676L390.93860114763083,239.87054912445626L391.4669586134292,249.0571378530184L393.0679701100017,256.0973930810526L393.60137758742064,268.20205641862304M395.1967078209199,276.69262757924633L395.7274324796655,272.3057668151148L396.25594775832695,277.58319304656396L396.78872398429337,275.20832896975867L397.841967032901,271.9347543461914M399.469175464755,271.72810061578974ZM401.07129165136945,265.1365637106583ZM403.183616824521,278.2492918818894L403.7181289919819,254.00227308023244L404.25595522956877,262.3621706928157L405.85759797759385,275.23065214619544L407.96929189929284,256.71048029051263M409.5616236883925,238.94045066924286L410.091243657096,254.17773657313273M424.6300692997507,249.64291230837568L425.6998826989882,264.2781169679886L426.76354139656326,266.16972452303287L428.8914900431658,265.21427719310327L430.5043375044739,276.5177539088447L431.0339574731774,277.3938964155321M432.6376517884233,276.16188916361455L433.1757936517364,273.6662804638234L433.7131464507339,260.09120708310866L434.24734299246853,258.3907077263206L434.77443795536175,231.29375706661696L435.30737199419127,250.76799703308956L435.8404638458839,231.947685993391M438.49282463670636,252.95832286027735L439.0244961726307,263.44309366772427L440.09304706896313,263.0729063947489L441.15812608230635,276.7488482636065L442.2315691773961,263.6402194282012L442.7667125963096,270.82247828763195L443.83841974990486,232.3327514456967L444.3670928414295,251.7781544403046L444.8998690673959,267.2179229315177L446.5111384000726,269.10476608334073L447.04517712894403,249.81012653560845L447.577479916321,264.3603144529958L448.1112030194662,277.82032234162614L448.6430323682537,266.5371957800628L449.71410827039637,243.4285494507091L450.2400985432476,262.4993803310145L450.7738216463928,275.31039784761685L451.84489754853547,274.461874545874L452.3817769089435,273.865232206104M453.9853134113263,279.92015671906415L454.5184052630189,263.6652111527736L455.05575806201637,267.673728330802L455.5945311767821,265.26080887182565L456.1325152272321,257.95169172649116L457.72847671218403,266.2055762909821L458.79860573714785,278.9327047588382M461.4669056271476,286.13684937494736L461.9943162157671,285.3887123443284L462.5256721259652,282.40729473831374L463.0582905390684,277.7716679057397L463.59674802810787,263.8722673461143L464.13504770428415,254.65511535706736L464.6716114389659,274.7926331915238L465.201862659122,280.77284561485874L466.26709948532846,288.1202814411846L466.8039788457365,282.4664329501586M469.484272513335,265.99896290025026L471.62958057488316,256.7632869622145L472.16693337388057,266.39955954418707L473.24479522913833,256.6407943429422L473.78246365386207,268.87020888453026M474.84075671409033,274.9614716989616ZM475.9151466863589,288.08848066433063ZM478.04451564872977,281.4086279157442ZM493.13395037088577,284.4033784193026L493.6777734972721,275.97924419456587M494.7461665807413,270.03766246453506L495.817242482884,282.47050285488416L497.41636022509874,270.6166859125161L497.95355521123304,275.5457959750133L499.0274717449123,279.35771059739824L499.5648245439098,272.2346334901391L500.09618045410787,282.9410585144152L500.632112937337,279.1429361891751L501.1664672919348,270.33531579413756L501.70287321375343,285.3253769710025L502.76179752543413,281.1913221099178L504.356496507481,290.9471488184512M505.95971738413743,264.6488043654991L507.03568548503745,280.5817291069146L507.57303828403496,273.76892633669456L508.11480984320036,280.06906830324476L508.65310951937664,276.3539025139555L509.7308135617713,283.16668958796333L510.26374760060077,285.1073561123626L510.80094258673506,288.5147328313545L511.3330875612489,250.84452522678134M512.9421475138415,266.4727771860984ZM515.0792493065064,285.8586303018276L515.611236468157,292.1806673864064L517.744077313517,295.404564918698L518.278747293841,280.92057225426686L519.3577138391408,278.859073050118L520.4398366417034,268.9538365239094L521.5150156782877,277.7481577121916L522.0485809685698,278.8075290909035L522.5788321887259,282.69975197562877M523.6488034008265,285.4711535732538L524.1893124570869,290.3056558746441L525.2586524177349,289.2932561009104L526.3283080041093,298.8958127360971L527.3965432747154,283.20190657623766L529.0000797770982,297.5181117943513L529.5382216404114,302.1334802805893L530.0656322290308,302.9175482812297L530.6012490865338,298.9974594300902L531.1427050199729,307.74776952592873M533.2924318416891,303.59419521732946L534.3666640010946,300.29681200581024L534.8964417826612,295.2940629601084L535.9637301760885,297.8127835296831L537.557008842367,303.5874477745987L538.6276113059203,292.99119993792306L539.1670156721385,292.5244284507692L539.6972668922946,291.58658216980785L541.2985940145934,282.40177510113614L542.9258024464474,292.93144197788945L543.4641021226237,290.55057294374524M545.6124086285715,294.8266620362907L546.6725954431574,294.67360250888566L547.2075810492078,279.69926208331873L560.1288248446601,265.35805028429735L561.1932726065507,279.29956475764243L561.7285738383274,280.94756087207986L562.2613500642938,289.6381614701115L562.797282547523,284.6244012209178L563.8718303326548,297.35872814845106L564.4057112486631,302.16681872399363L564.9343843401879,301.35427108409925L565.4673183790172,301.9042796289777L567.6108904990708,297.99741389609534L568.6783367053613,297.3415135889062L569.2155316914956,293.7543993182952L569.7519376133141,291.99235987558336L570.2921310438483,283.5349244779248L570.826485398446,287.8003108549048L572.9541184193223,279.9207148274701L573.4917868440459,271.24263228753205L574.0244052571492,281.00882535381015L574.5552877287579,290.66447112445684M576.6975973459064,289.59280816947694L577.2276907531992,290.8589357813185L577.7612560434814,286.12506977314706L578.2959260238054,290.50326408105724L579.3651081715904,300.9527875277889L579.8953593917465,305.63832807512915M580.9615430951317,292.27608262220457L582.0414565176104,293.9962787005266L583.6557242946867,294.39649378420177L584.1948130351788,299.70052185499105L584.7324814599025,308.3602220893634L585.2624170543322,311.6787804544408L586.3286007577176,311.45160410456526L586.8627972994522,310.79060339379174L587.4004657241759,314.5026672569538L588.4849557196856,319.0956937260071L589.0213616415042,300.2244113109565M590.6247403310239,309.32066513928316L592.7706796440245,306.50178516006343L593.3009308641807,311.955239873527M594.9046251794265,316.7197185314145L595.4391373468875,316.5232374206102L595.9771213973374,310.59198300774415L596.5165257635557,310.9765513311652L597.0551410654584,312.32546393889345L597.5934407416346,301.24626234758864M599.1905069166286,308.4093288475784L599.726597212721,306.44420472986565L601.3369196682188,307.15410670611476L601.8654349468802,297.9938869966541L602.3977377342571,282.12826812515516L602.932092088855,293.039201226133L604.0026945524082,293.2762225560248L607.214501943068,300.744773761503L607.7546953736019,307.7389634787338L608.2911012954205,279.12012352455554L609.3560224959007,291.97337218700164L611.5002258674069,298.3003296481535L613.1036045569264,307.3392337078541L625.5218987575463,288.76210155617343L627.127802452876,294.670370343295M629.2656933098566,297.31242686118526ZM630.336611399136,301.2521562195042L631.409107617047,298.9468922135375L631.9530885562965,301.5183517593113L632.4945444897355,301.2538723354493L633.0317394758699,306.11303663452554L633.5697235263199,309.4950185047128M634.6344869139369,306.49109385448264L635.168052204219,310.3072514773801L635.7091925119319,301.508404976051L636.7838981099268,306.1805140985898L637.320935283198,302.9472411877185L638.4025846471711,301.1594671546587L639.4709777306404,309.80104886678095L640.0024914537016,300.17759481976947L641.0705689114445,301.53684453630245L642.1266525915888,297.74576281583484L642.6622694490917,292.3022867017428L643.2004113124049,285.7770892167466L643.7323984740556,300.8832896774536L645.3555037714677,307.63243274903505L645.8923831318758,303.5523487590362L646.4190046561797,297.97379166439634L646.9476777477043,305.85263432669956L648.0247505386463,297.6830554991102L648.5583158289284,308.520171273183M653.3580362485199,315.8741904765762ZM654.9590477450923,305.9658304162751L656.0263361385195,315.40306323547554M657.0940979705363,299.1935044264735L657.6278210736815,304.90039971197024L659.2360919619584,306.31058306430253M660.8440472245092,316.36607071941694L661.3801375206015,310.1952232861329L661.9102309278944,306.4550480720773L662.4444274696291,312.6269500243039L664.0482795977381,312.9333720721428L668.3190113000785,298.20911158187977L668.8525765903606,307.52657696811303L669.3904028279475,290.7780957951928M671.5333436965485,290.7170172604888L672.0678558640094,306.102988617915M673.6805455124545,314.76974819369735L674.2205811301253,320.4886619800627L674.758249554849,327.0211975479438L675.289447652184,307.153846292453L675.8193832466138,296.9788134326014L677.4214994332282,307.0884052178607L677.9504881504791,311.706561202903L678.4834221893086,314.36287222688225L681.1626111668652,308.8981584018524L692.5271888802879,297.4026848436146L693.0590182290753,308.02519591927006L693.5938460222626,301.8847128394861L694.6603453513741,304.9605011629377L695.1891762557618,311.9084994929289L696.2648287309356,316.3181274036253M700.0274030139599,294.45639173770905L701.091219524398,295.73841462116144L701.626836381901,305.4238175727544L702.1671876252981,303.67289580802856L704.3020800378789,298.7937627036136L704.8350140767084,309.99441306303174L705.3712621856639,314.1108588264446M706.4347630703757,320.6631770079678L706.9738518108677,315.1742411203122L707.5091530426444,317.30359830538947L708.5821226991447,303.5470926266535L709.1196333110054,315.0217970743511L709.6591954900867,316.43760020606226L710.1976529791262,310.3277888954342L710.7293245150506,316.71103658345544L711.259891360933,309.54449337996687L711.7951925927096,313.46341421145945L713.9376600227212,318.26014217611424L715.0017921588857,313.6119444021436L715.53898714502,319.57209884695897M718.7714680207513,325.50614908007435L719.8324438996528,322.28913654247026L720.8987854159012,312.42015953448595L721.4381897821196,317.0364782309829L721.9796457155586,315.6325679356131L723.0540356878273,318.1977053232841L724.6572565644839,311.2887146331322L725.1916109190815,313.5322119583617L726.7878880297598,314.67191358235186L727.8588061190393,308.8158254088531L729.4599754284749,314.689629740091L731.0666681881205,322.436643208603L731.6019694198972,325.1184733561904M733.2173418870156,324.13308458286275L733.7602181362229,322.2298267984739L734.2982021866728,315.15562703256575M735.3755906033413,325.46156001421457L735.9085246421706,323.04273096554255L736.9759708484611,323.5926138870153L737.5123767702797,323.9256516972713L738.0500451950035,315.94863916159795L739.6576848318279,314.25471715949584L740.1857266719,318.4322241737251L741.2580650769479,318.67113667503776L741.7955756888084,314.1751923494317L745.5381077382136,321.15847027004935L746.0784589816108,321.39600029080185L746.6173899092396,326.0822007106979L747.153480205332,330.6255948595111L747.691306442919,328.80760064280025L759.5757197275303,326.85980210596347L760.1132303393908,326.786412228685L760.6532659570618,318.6964089381686L761.1885671888384,325.21541397970344M762.8069381003564,323.9941777364727ZM764.4095277255602,320.87397662844705ZM766.0293189528467,309.66177531774935L771.3834359606549,316.6036352067579L773.0051209422988,320.23674661330574L773.5408956126649,326.1297549112859M774.606921503187,321.23547426195614L775.6814692883189,323.80217612764477L776.2170861458217,325.75941987029523M779.9779244873514,310.31344112252657L780.5107007133176,318.70396900067186L781.0417409977896,317.8202476400002L781.5792516096501,323.9490477098327L782.1170778472369,322.43170978887497L782.6522212661505,323.46240946280636L783.1810521705384,325.23454941910717L784.2500765054602,324.51567698159994L785.3318836822965,330.61413940768705L785.8665536626205,330.0043911324046L786.9431530149731,325.4946501535203L788.001130449475,321.7523002055568L789.0761516731961,326.3540786702703M790.1559072828118,327.39359702925844L790.6981522805665,333.58817064577M791.7731735042877,331.682024606756L793.9053830981951,310.6131907237512L796.5787329998154,318.2104539689585L797.1145076701815,317.26430310562597L798.1925273383023,308.01782703811335L798.7287754472578,313.8705169608383L799.2708626321495,317.59643631065364M801.4335301086433,325.3431638809434L801.9710407205039,324.32306792116486L802.5096560224065,324.52648978818524L803.0473244471302,321.43793172083883M804.6641172300169,324.07534204957886ZM807.3368358801845,323.02000631280146L808.4107524138639,323.29793721448334L808.942266136925,322.71617232662584L810.0097123432155,326.348031107581L810.5510104637914,328.56679539483173L812.1659094923203,327.3862560981278L812.7040513556335,330.80980188752494L813.240299464589,329.0910048612573M814.3224222671516,330.7336025819324L814.8596172532859,315.7227363756456L815.3983903680517,314.99624227619387L827.2774380153162,323.99160916522027L827.8157376914926,327.2316264358495L828.3524592390374,330.4169664258486L828.8904432894874,330.96106302188264L829.4238507669063,323.3826416074901L829.9552066771045,323.6753612136879L831.0265982049734,319.33352557686527L832.6680097945101,315.33821380013416L833.1963672603085,314.13079892901067L834.2653915952303,324.4854834953166L836.4176434227567,320.5455608728304L836.9526290288071,322.87131724359574L838.018497106466,327.6181965666213L838.5526936482006,326.6260683997403L840.1630161036985,317.61999268653165L841.2421404618615,323.6287985542895L841.7741276235121,323.84989680260486L842.3051679079838,316.59260717033294L843.3730875528637,324.7726342915271L843.9098091004086,327.05111202848127L844.4487400280374,320.2258327166592L844.9791490610567,324.5384156421503M847.6608630444235,325.9882683450293L848.2004252235049,327.917760285256L849.2795495816678,332.29176350912627L849.8202164507912,320.05083642847467L850.358989565557,324.2879515461478M851.9778339156644,327.26254996712447L853.5786875993738,319.97620272636954L854.6496056886533,318.2549642681223L855.1880631776928,322.3489165399259M856.7982278203274,326.1119248810841L857.3335290521042,322.783064923105L857.8648849623022,329.9384000938867M858.9342249229502,316.9088211700314L859.4726824119897,320.5674932865784L861.0796907973615,322.1515228876839L861.6164123449064,328.1442140288096L862.152818266725,327.5765611180612L862.6866991827334,321.6976038575492L863.2268926132674,308.2464091385506M864.30349196562,320.90709253760957L865.3843522652775,324.5716717382056L865.9206003742329,324.80285497612823L866.4614250562196,325.33068826570144L867.0020919253429,319.96808483110965L867.537866595709,328.30274348753767L868.0796381548745,326.7036186976466L869.6950106219929,326.01994647859715L871.2960221185652,322.2053820090989L872.3723058451915,309.4425467802996L873.4471692560496,315.07046161268283M874.5242420469916,322.42581542003535L875.059069840179,329.4423119844579L875.5879007445667,333.109085806309L877.7291056716732,331.8230806266193L879.8647871485697,338.85354618034626L880.933180232039,327.8815963068477L881.4681658380892,326.59879213465916L881.997943619656,333.5096327157713L893.8782537698256,333.2186903165039L894.4121346858341,336.3344968683288M898.1616105012175,338.7485980958566ZM899.2339489062653,338.7149607873081L900.310706071481,332.669316325193L900.8452182389419,327.54510253033635L901.3792569678134,325.86306124542443L902.4490703670509,328.4586515156758L902.9843715988276,328.3258318475002L904.0600240740014,328.18847501748235L904.5980081244513,330.0484001796062L905.1389906193011,334.5999664200358L905.6796574884245,333.0084845515438L906.2163790359695,333.70781320426994L906.7565724665034,333.6763281275727L907.8355390118032,332.66614829818775L908.3725761850744,337.8717517448038L909.9716939272892,336.9831125273687L912.6631923081708,335.8379653867302L914.820809773044,338.57061980524213L919.1115837090034,329.3881290879516M920.1921283829346,331.8660233884717L920.7280608661638,331.685761679972L921.268569922424,333.9853369026527L922.8765251849748,336.7326127739308L923.4102482881199,339.35860013007994M925.017572299218,340.710243844054ZM926.6326291406101,341.78469471685196L927.1723491325547,338.1016907480894L927.7044941070685,335.12745321299633L928.7681528046435,327.5608689663542L929.3018759077887,335.11696369836716L929.8367037009759,332.99575114732704L930.3778440086887,335.0642557876622L930.9155124334126,334.14483694210696L931.9889555285023,341.83055316044045L932.5203114387004,342.37969777291653M934.1344214029136,338.97707936966214L935.2146504511185,336.19474464434006L935.7507407472109,336.64794135937524L938.4444485081764,336.60561722159935L939.5177337904031,326.1140743228916L941.6602012204146,333.59060248565305L942.1972383936859,337.08244898572946L942.7371161984936,339.2481790202879L944.8947336633668,342.13859602568596L947.5914398687321,337.80801629030594L948.1332114278975,340.7156595310635M962.7417903560607,342.0497836807138L963.2821415994579,338.5043140016023L964.8953046864923,335.21707518571344L965.4356559298894,332.0181509599518L966.5019974461378,334.7736820513803L967.040139309451,339.58769774313987M968.1135824045407,339.761649297071L969.188603628262,334.1110640358168L969.7281658073434,336.45637958859345L970.2674123606986,339.3702945786027L971.3462210931352,337.79704867313126L971.8834160792695,333.82654550642275L972.4256610770243,340.5938572822159L972.9656966946953,334.1786636517195L973.5043119965978,334.5569791286313L975.6387309705892,337.1247263743004L977.2410049700668,339.5997177454561L977.7744124474857,340.9517345637279L978.3056105448206,337.3644775064735L978.8393336479659,333.8098833879388L979.9170376903605,333.56263978336614M980.9991604929231,332.92895538513403L981.5361976661942,337.794240252826L982.078284851086,339.9095960620662L982.6198985973883,343.1056141784261L983.1564623320701,341.8570723523667L983.693341692478,344.070074384149L984.2363757545486,350.00285145204543M986.9057803345903,349.74275088901345L987.4458159522612,343.7183144278673L989.601855288503,345.27060588990264L990.1426799704897,336.75072372805494L990.685556219697,333.1914277473861L991.7637337006811,338.8639917121857L993.9159855282074,333.6450711963563L995.5163657733273,337.5539903987064M998.72028252083,341.14281812941994L999.2555837526065,341.93788216153155L999.7967240603194,340.3772680017066M1001.9552884023715,335.9424115797464L1003.0312565032716,334.7123703626813L1003.5698718051742,342.8712904204505L1004.1002808381934,331.13185998981936L1004.6322679998441,333.2986459732954L1005.1702520502942,333.46991438683807L1006.2422748296156,334.4669700636432L1006.7824682601497,331.75577666842236L1008.4003657330782,333.6907534531768L1008.9378763449389,331.61192387590603L1009.4794900912411,325.58391561269696L1010.0196835217752,333.04596094874495L1010.5625597709826,338.8830091578199L1011.1022797629271,335.2851151775453L1013.8026156641446,332.2699089356095L1014.3442294104469,331.4810773666799L1014.8792150164974,336.7455711907055L1028.3988851889828,332.6537594672092L1029.4633329508736,326.5380360326507M1030.5415104318577,334.05700668647495L1031.0771272893605,332.07964031349513L1032.15356882885,336.2637030309102L1032.688396622037,336.1767149019839L1033.22701192394,335.49771147502025L1033.756316266917,327.6236852151578M1034.825656227565,330.4115471186427L1035.3653762195097,337.4423487684704L1036.442764636178,336.2466597421578L1037.5177858598993,342.46547428647466L1038.0597152319278,346.197336794771L1038.6008555396409,341.9222980763275L1039.6793486463512,346.7158056419908M1041.2880929732173,340.1566145146433L1042.3555391795078,340.42923196766344L1042.8883154054743,340.71695277200683L1043.4229853857983,339.3070276413908L1043.9568663018065,334.61404056737695L1044.4880643991414,339.56333444865373L1046.6363709050895,341.6878546196707M1047.7180202690627,340.25917810771034L1048.2548996294706,341.2227927283356M1049.335602116265,344.813270325761L1049.8720080380835,337.9081396912099L1050.9566558464564,343.0168185847181L1051.4932195811382,348.64996608677933L1052.0335708245352,343.06019449518516L1052.5729751907536,344.20826178610747L1054.7173363751228,340.92818990144144M1056.8588569279557,344.5318279089719L1057.9367187832133,346.2286793080973M1059.556825636226,347.26202423911434L1060.0974925053495,346.58218486040636L1060.6408421931462,347.5232857871109L1061.177405927828,351.32790982983994L1061.7179149840883,349.93795524839567L1062.2568459117172,348.1864019957818L1063.322556176513,347.2558252610184L1063.8547011510268,346.67999422737097L1064.3912648857086,341.495368626597L1064.9281442461167,337.38412255704566L1065.466443922293,340.04852840759645L1066.0052170370586,342.2392747927275L1066.541149520288,341.5238295211257L1067.0832367051796,342.4232782991806L1067.6179066855036,343.59261529250597L1069.2149728604977,343.0988558173778L1069.7516944080426,346.2362723498539L1070.8249796902692,336.13949146714623L1071.3579137290988,337.71919328227665L1072.9590830385343,330.27682478941426L1073.495646773216,336.22669194562746L1074.037102706655,340.3467482083283M1075.1146489361865,342.95590631132586L1076.1937732943495,344.3601820409226M1077.8134067087726,347.86259349033634L1078.3543892036223,346.38411080529283L1079.4339870003746,340.5560430632009L1079.9703929221932,341.6955496535467M1081.0364188127155,342.51195272951384L1082.1032337675533,344.98095413829833L1082.6367990578353,344.30794876888467L1083.6987218139157,348.49225290901137L1084.2308667884297,352.5228147712113L1095.6049132736407,350.2283162420974L1096.677725117278,349.1504662851755L1097.2138154133704,345.38402081970895L1097.7544822824937,345.70500015497225M1099.352021896077,348.59081740698855L1100.4275165583877,348.2142355978415L1101.4995393377092,346.4183329472433L1102.0383124524749,340.4107024340144L1103.1136493019226,339.1968577029795" style="fill: none;" fill="none"></path></g></g></g></g><g opacity="0.2"><g><g><g><path stroke="rgb(0, 153, 136)" stroke-width="2px" d="M30.644101764853776,97.15276878885521L31.68456197154695,259.47525426315394L32.20455535559883,191.90076025762616L33.23286397183009,224.6696282373275L34.271430424165565,212.68332570947152L34.784322229376066,185.78900023203775L35.82683400329009,65.35915268423128L36.34351331721599,221.1884275772945L36.86398013985729,203.34545689629368M37.895918451940815,195.60959301170308L38.40738994138304,238.1749153876171L38.931170834150315,175.29872391242026L39.44832358666564,259.9438477335949M42.035192039284254,191.88156026402896ZM45.117277256441504,223.92181907851202L46.15032025856702,183.4068316789451L46.6635276895038,213.98674014582667L47.703514457607554,256.6282360926965L49.26459929980517,142.10234287346466L49.775597350657975,264.5991032373099L50.817477873119415,244.48128293556135L51.33242124555076,211.5564696360891L51.85478182254976,209.488901281574L52.370198633570524,244.20442718570183L53.401347881338346,224.12069488472522L54.431234626201025,188.76534886012487L54.94854519157949,214.51255484149513L56.506158150787996,238.1269445386675L57.016840575914514,257.9489276097848L57.53825427573466,197.67481599522492L58.05540702824999,225.43628776921943L58.57192852931274,141.22920932548627L60.12622741839527,243.10361784111444L60.64274891945803,67.7330760200432L61.68462944191948,201.76853724006943L62.72130213989726,194.09755709711914L63.23971739531771,263.1440481838455M64.26991976590668,223.65384951688796L65.81901083050553,235.7431444231447L66.33947765314683,263.8714919473279L66.85915541147243,211.89700002328806L67.3829363042397,187.4512855654089L68.41803087358606,156.09782712887252L69.45028481139587,208.86561529822808L69.96901569254261,273.66180613314515L72.55525289370865,251.21641634962586L73.0750884648974,254.32222654303797L73.59113652737072,194.11272188720616L74.10513302262322,203.65128744680936L74.62875610252735,228.82131365100605L75.14685573222152,169.87519188190487L77.73956326077638,155.31936790440568L81.89966814605452,252.10858964846278L82.92971270378037,195.3370783833094L94.32380142261053,252.45976889402255M98.49479539544546,151.3266869900545L100.06519119656842,195.5545714822519L101.10328421031447,234.46439280102328L101.62454009727149,217.27703343401495L102.13995690829225,127.49371162981231L104.22119294740489,249.48309978045808L104.73866132564649,91.41864262822912L105.25975939974036,178.60083146070514L106.81263797305462,264.18873615109356L107.33200010565392,259.1598819859264L108.89608339225124,241.47900411885283L110.97195379401705,140.42126543710384L112.01730619946763,216.3062974906638L113.06392110782332,243.8722439884355L113.59606608233712,269.72901230049206M114.65388570397587,274.53510720762307L115.18382129840568,106.10893939851724L115.69939592228958,265.0568657553689M117.77873820704451,227.67463118059345L119.31804487412857,163.56560491166547L119.8295163635708,260.83804591794774L120.34019878869732,94.98561685601652L121.35430424724584,223.39789816066423L121.87114137403489,234.79217660673697L122.38687381078192,137.39709163528406L123.40555584236155,75.10132849459933L123.9156070160355,203.26686511673608L124.96427349161205,201.5198550771727L125.49152626736844,238.97038947742652L126.54903026328091,120.30778625682109L127.06681426724882,236.30346957771434L128.67729453560978,189.25764368836758L130.80934631665406,171.41786329461846L131.34164910403095,211.7531603140477M132.42077346219386,238.1996947420244L133.47038681494925,209.42330373137048L133.99085363759056,196.47453961248752L135.04125605466166,248.8872444404684L136.08518814434396,220.66613822187682L136.61291435868978,177.7583479783781L137.13716869004645,217.9994805375552L137.663474588624,226.5921040757363L138.71971608163136,160.22533045653333L139.24065634286208,278.3311192952982L142.9022303934756,216.09822957825955M147.61389123543398,127.0005136152244L148.13972369542208,257.93797283346834M161.56265458280188,259.32478633154125ZM162.6430414438699,236.68152590080584L164.2707233143133,252.56769966227873L164.81596675646784,250.0180774472742L165.89240829595735,245.51818456246218L166.41303293146177,260.34028826906854L166.93760288854477,265.0233458879431L167.9843756097636,199.3674454762918L168.50578930958375,236.78610613907165L169.0286233251722,281.27990617233377M170.59365348894835,198.3396048478868L171.11222655723193,229.91950084168792L171.63774339149379,217.10847264045407L172.15884146558764,281.76983377830067L172.6821489197655,239.9261645759944L174.2534915980673,207.9228344290143L174.78169125100257,213.11283451919832L175.83177804234737,258.0099072556102L177.9466282213092,141.31303084533323L178.46835754685563,111.05216567114692L179.51307870085364,250.88369415405674L180.54912014737886,184.21200773820502M183.69953833427644,262.1509729459713ZM186.30992090350318,211.75633603377773L186.82833615892363,242.63486412793478L187.87495106727934,258.895059008989L189.97307308274813,274.7404145746657L191.02252862264038,241.21482211287008L192.06898571813295,265.56627742160606L192.60034162833102,218.93054911932424L193.1198615737935,228.92869085343773L195.21608983490455,198.46603636869872L195.74097541771386,186.93974704100393L196.7844340688067,240.5054857788575L197.83041772570985,219.08481917409995L198.87292949962387,274.2062308377821L201.49262302777595,275.1778626837176M203.06238757744637,270.2998552057273L204.63246775284304,255.7840045077658M206.72790694963845,223.08800327159497L207.77720467666757,271.2524837196085L208.29924962794027,223.6184941417283L208.8236617721601,186.23995243370317L210.92446660630233,242.43938255427707L211.45377094927957,254.55503010728447L212.494546781699,225.05365724431493L214.06588946000085,273.4188999926015L226.84462824003623,242.44858922798986M227.89234783843392,223.4828122446385L228.42023186564288,171.21186397029524L229.46605770968287,251.88429351688757L230.50920073504943,232.93092806202242L231.03503319503756,235.09407392639434L231.56023440357313,236.44400245952937L232.07864965899358,236.16276188563896L233.63957668832808,282.93779211415233L234.1636732068216,280.3196151420397L235.20460685210423,221.68758370825668L237.28252882109086,255.77099571089002L238.33087967094113,270.2561380731133L239.38585866104336,231.8442492134815L239.91579425547317,245.15080623277487L240.4361032652513,235.98597044231903L240.96856386549138,252.00878755731372L241.4947119512058,283.9406931454114L242.5421159238772,229.13471931280438L243.06431868801303,207.2079770042784L244.66248955304897,218.7391901543069L245.71068259003607,238.52954713581914L246.23683067575047,252.37830731269054L247.27807994675936,250.2701538427264L248.32958705387247,238.61839445065172L248.84989606365062,244.5895196217732L249.3792004066279,269.4878251275087L250.42549968925726,280.70242776096546L250.9467555762143,251.87926772190195L251.47700679637038,250.96669989268864L251.99778924473796,149.41522419804895L253.04329946305165,133.2054038070244L253.56597566577696,250.41125485788763M255.13873865984706,227.21413725221623L256.1859848196553,210.9732880399762M258.28678965379754,140.14985794035917L258.81751431254304,216.5674640196552L259.35234210573026,202.54995367144085M260.954773918071,223.0951704922701L262.5265900349622,198.4503617153523L263.0487927990981,247.96764049827522L263.5749408848125,244.4391827978558L264.09935302903233,277.48432382654875M265.67479884177584,267.51284794090236ZM266.72520125884694,190.07193901621008L269.36272764053405,266.6298813157782L271.461007468866,82.207890009383L271.99125868902206,241.5804232049103L273.03629546874635,251.7434547171169L274.6292585092986,255.5155542179257L278.34512018483287,209.02300280264703L278.865429194611,282.44313734739467L280.45097503059566,297.4643499405614L291.68488369333693,256.13787874483955L292.2138724105879,231.4323671050086L292.7352861104081,272.3034430049473L293.785530714616,270.82387809622696L294.8504519150962,224.09214254219827L295.90669340810354,234.08805544549207L296.96372396542654,210.3037793102844M301.73172399952654,275.257139136795L302.263553348314,254.33265688857333L302.7942780070595,278.21634179184423L303.3227932857211,230.02584375007908L304.3878722990644,265.40752057014754L304.91433601050505,275.773441240795L306.4905708875643,210.8439575823465L308.08069329657997,205.63790408325193L309.660084430902,234.54975847817016L311.2408958809923,261.3500141842428L311.7788799314423,214.65157270105362L312.2999780055362,201.64478614324983M313.35195855123874,154.52143190342937L314.4156172488137,252.18289857664132L314.94807784905385,253.96619631275297L315.47706656630476,244.48587170489603L316.5361486908487,206.8479844080917L317.0622967765631,37.52988366425694L317.5961776925714,160.55291031694327M319.7154466317012,238.4636582351817L320.23922752446845,202.0174379157916L322.3648089781239,233.38329331329248M327.6602196008434,234.48411722540158L328.19425832971484,221.37582417641013M330.30626787714016,258.7038602867103L331.8935496546193,277.33741037023026L335.6019941255859,271.63241925299894M337.72599745060995,262.9334309551441L339.31343704095224,297.7772894416654L339.8447929511503,223.0387067781709M341.4353887987554,154.2894732554413L341.96295720023807,273.58841495883354L342.49241935607847,228.31198938989905L343.0237752662765,112.98533407048163L344.08269957795727,189.477788076259L346.7254337841281,269.6725704376754L358.00700193153824,257.27086774485656L361.1892983167904,296.70063304805234L362.25027419569204,241.83276181575303L362.7833660473847,284.98996988199417L363.32277041360294,271.33954651303316L363.85854508396903,275.3924495620815L364.39195256138794,271.6065400507035M365.45545344609985,243.38341623035683L365.99122811646583,297.4716628364535L366.5247934067479,269.3268175939479L367.05236180823056,192.01556689612354L368.1119173713639,252.7175411904584L369.70630072768444,277.8556790896594M370.76743441944916,219.5372281279351L371.8282524854876,278.7311361573486L372.359924021412,226.1621728078803L372.8903330544312,259.03669902245304L373.9618823951633,269.72126237894906M376.0827294629245,291.83764468493206L376.6055634785129,230.1920300376033M378.7308293064421,292.26367914073404L379.264236783861,288.4738873848237L380.33594393745625,223.5857317854308M381.3931323076425,244.15330975206558L382.4498472392392,261.59772760694665L383.51776688411906,274.06816715089474L384.050069671496,234.6243150542176L385.6337217531228,246.85806150562598L386.1625526575107,265.82200298124343L386.6912257490353,187.42738026230344L387.2227394720966,261.5776098594825L387.7498344349898,264.83219086822953L388.2792965908302,244.56325438015273M389.33758965105835,193.8774272767494L390.3993545942757,212.7699004909193L390.93860114763083,268.800449332455L391.4669586134292,263.73181854929305L393.0679701100017,267.34351506869154L393.60137758742064,287.53807707474215M395.1967078209199,290.2554880046576L395.7274324796655,265.29818403604753L396.25594775832695,286.0133674162814L396.78872398429337,271.4147149249918L397.841967032901,266.7055377397138M399.469175464755,271.3979914100832ZM401.07129165136945,254.60722553752635ZM403.183616824521,299.1955979216482L403.7181289919819,215.270022267196L404.25595522956877,275.716292853176L405.85759797759385,295.78679784445137L407.96929189929284,227.12630966390248M409.5616236883925,210.55455919630552L410.091243657096,278.5178166533724M424.6300692997507,242.39897224908844L425.6998826989882,287.65643090477283L426.76354139656326,269.191383344727L428.8914900431658,263.6880431465923L430.5043375044739,294.57395697424994L431.0339574731774,278.7934487314093M432.6376517884233,274.1938775793826L433.1757936517364,269.6797886446765L433.7131464507339,238.40634960482402L434.24734299246853,255.6743256369059L434.77443795536175,188.00901770111642L435.30737199419127,281.8761985379744L435.8404638458839,201.88407225465167M438.49282463670636,286.5207687645244L439.0244961726307,280.1914937887109L440.09304706896313,262.48156828337267L441.15812608230635,298.59483332684647L442.2315691773961,242.70046167813825L442.7667125963096,282.2954372449045L443.83841974990486,170.8491618150728L444.3670928414295,282.8402916914315L444.8998690673959,291.8814492226762L446.5111384000726,272.1188142349542L447.04517712894403,218.98881920611393L447.577479916321,287.60282242492633L448.1112030194662,299.3213739039837L448.6430323682537,248.51350010379934L449.71410827039637,206.51473778174147L450.2400985432476,292.96317511384L450.7738216463928,295.7747505040076L451.84489754853547,273.1064412197135L452.3817769089435,272.91215418283497M453.9853134113263,289.5923088631433L454.5184052630189,237.6995188845434L455.05575806201637,274.07694408271743L455.5945311767821,261.40640506073356L456.1325152272321,246.27608901381396L457.72847671218403,279.39035293296115L458.79860573714785,299.2630528308681M461.4669056271476,297.644768696784L461.9943162157671,284.19363630840456L462.5256721259652,277.64477051052415L463.0582905390684,270.3667055627967L463.59674802810787,241.66932878982965L464.13504770428415,239.9316128291092L464.6716114389659,306.9603564855256L465.201862659122,290.32565247291325L466.26709948532846,299.8570945144064L466.8039788457365,273.4349606852729M469.484272513335,239.69378346987713L471.62958057488316,242.01019423002762L472.16693337388057,281.7925663959095L473.24479522913833,241.05211746303155L473.78246365386207,288.405507437976M474.84075671409033,284.69167074019606ZM475.9151466863589,309.0575988817384ZM478.04451564872977,270.73821378488526ZM493.13395037088577,289.18720065225966L493.6777734972721,262.5225103031032M494.7461665807413,260.54656437630405L495.817242482884,302.33075438751973L497.41636022509874,251.68136793964248L497.95355521123304,283.41956919172947L499.0274717449123,285.4468729162729L499.5648245439098,260.8562116175044L500.09618045410787,300.04352965709L500.632112937337,273.07580572158383L501.1664672919348,256.26600009816843L501.70287321375343,309.27053963015044L502.76179752543413,274.5875721370163L504.356496507481,306.5311317424719M505.95971738413743,222.6397606289653L507.03568548503745,306.033024473072L507.57303828403496,262.88613749595345L508.11480984320036,290.13293144461716L508.65310951937664,270.41928703236357L509.7308135617713,294.04945335553424L510.26374760060077,288.20738185913024L510.80094258673506,293.9576852526013L511.3330875612489,190.67003775454114M512.9421475138415,291.4373874587737ZM515.0792493065064,316.82564242175863L515.611236468157,302.2795058461882L517.744077313517,300.5544272105403L518.278747293841,257.7838047513445L519.3577138391408,275.5660288668671L520.4398366417034,253.13118596905673L521.5150156782877,291.79622922074634L522.0485809685698,280.49977168287177L522.5788321887259,288.9171989213588M523.6488034008265,289.89819768374576L524.1893124570869,298.0283024080337L525.2586524177349,287.6760460727385L526.3283080041093,314.2349616468499L527.3965432747154,258.1324201130856L529.0000797770982,320.3868551947147L529.5382216404114,309.5060818884761L530.0656322290308,304.17002054199287L530.6012490865338,292.735499317231L531.1427050199729,321.7255376010993M533.2924318416891,296.9592648282684L534.3666640010946,295.02956349909766L534.8964417826612,287.30265864035096L535.9637301760885,301.83619430965314L537.557008842367,312.81191143855466L538.6276113059203,276.0647261208958L539.1670156721385,291.77880646479616L539.6972668922946,290.0884640846358L541.2985940145934,267.7299404329982L542.9258024464474,309.7515591965994L543.4641021226237,286.74736656452774M545.6124086285715,301.6572978594479L546.6725954431574,294.4291048222516L547.2075810492078,255.77921179312733L560.1288248446601,242.4493613066398L561.1932726065507,301.5697761890898L561.7285738383274,283.5800741457917L562.2613500642938,303.52054943839585L562.797282547523,276.61540757610175L563.8718303326548,317.70057505866663L564.4057112486631,309.84727509791225L564.9343843401879,300.05630537361867L565.4673183790172,302.7828647071601L567.6108904990708,291.7565764266859L568.6783367053613,296.29377673456503L569.2155316914956,288.0243336652412L569.7519376133141,289.17767349306956L570.2921310438483,270.0249952063403L570.826485398446,294.6138501324183L572.9541184193223,267.3338276667628L573.4917868440459,257.3802406977608L574.0244052571492,296.609367524618L574.5552877287579,306.0884247580872M576.6975973459064,287.88093098165183L577.2276907531992,292.88145131711747L577.7612560434814,278.5631799159381L578.2959260238054,297.4970030404462L579.3651081715904,317.6448834232174L579.8953593917465,313.12302271568564M580.9615430951317,270.9311970285719L582.0414565176104,296.74412438408L583.6557242946867,295.03579839838415L584.1948130351788,308.1731900719662L584.7324814599025,322.1932497364776L585.2624170543322,316.9798542064475L586.3286007577176,311.08871201320574L586.8627972994522,309.73471914151713L587.4004657241759,320.4323277136932L588.4849557196856,326.43260613761163L589.0213616415042,270.07937576483675M590.6247403310239,323.8510446312855L592.7706796440245,301.9988989594916L593.3009308641807,320.66660259763114M594.9046251794265,324.3305091147932L595.4391373468875,316.20937798387087L595.9771213973374,301.1173818027763L596.5165257635557,311.5908617698767L597.0551410654584,314.4802204421477L597.5934407416346,283.54831694849133M599.1905069166286,319.8516298800297L599.726597212721,303.3051103600127L601.3369196682188,308.2881059668763L601.8654349468802,283.3613282399832L602.3977377342571,256.7844873304231L602.932092088855,310.468354101721L604.0026945524082,293.6548410440336L607.214501943068,312.67505685596825L607.7546953736019,318.91150029976484L608.2911012954205,233.40431424710187L609.3560224959007,312.50518498545455L611.5002258674069,308.4070279302532L613.1036045569264,321.7780025304926L625.5218987575463,259.08694240478746L627.127802452876,304.1082542499958M629.2656933098566,301.53285480534765ZM630.336611399136,307.54549012954595L631.409107617047,295.2644575027077L631.9530885562965,305.626007916846L632.4945444897355,300.83139221681256L633.0317394758699,313.8750783070759L633.5697235263199,314.89740512851847M634.6344869139369,301.6926168158033L635.168052204219,316.4031915762942L635.7091925119319,287.4531047206811L636.7838981099268,313.6437533462817L637.320935283198,297.78240264178123L638.4025846471711,298.30367227068007L639.4709777306404,323.60513393939175L640.0024914537016,284.80506432908874L641.0705689114445,303.708113564011L642.1266525915888,291.6898790285943L642.6622694490917,283.60686381819323L643.2004113124049,275.3537218056489L643.7323984740556,325.0139735302712L645.3555037714677,318.41353142182106L645.8923831318758,297.0348119957912L646.4190046561797,289.06259007165994L646.9476777477043,318.4383180599892L648.0247505386463,284.6329490602337L648.5583158289284,325.8314081590395M653.3580362485199,327.62151985342507ZM654.9590477450923,290.13819031994996L656.0263361385195,330.47812345315936M657.0940979705363,273.3003130822236L657.6278210736815,314.01660906412724L659.2360919619584,308.5632136141321M660.8440472245092,332.42873281784637L661.3801375206015,300.3378955680298L661.9102309278944,300.4804824704042L662.4444274696291,322.48596223370475L664.0482795977381,313.422851447262L668.3190113000785,274.6885396299012L668.8525765903606,322.4103203772909L669.3904028279475,264.02402846702165M671.5333436965485,290.6194502505068L672.0678558640094,330.68057922782975M673.6805455124545,328.614052451116L674.2205811301253,329.6240697167242L674.758249554849,337.45628683170196L675.289447652184,275.41768779342226L675.8193832466138,280.7251895136177L677.4214994332282,323.2374933943139L677.9504881504791,319.0836155686199L678.4834221893086,318.60607035609587L681.1626111668652,300.1688103436878L692.5271888802879,279.03978552331273L693.0590182290753,324.99362270245985L693.5938460222626,292.07588921853255L694.6603453513741,309.87377341987985L695.1891762557618,323.0072500720057L696.2648287309356,323.3620784817507M700.0274030139599,259.5343984012454L701.091219524398,297.78632130511784L701.626836381901,320.89530540451983L702.1671876252981,300.8759688332067L704.3020800378789,290.9998228095482L704.8350140767084,327.8863610397646L705.3712621856639,320.68647998098726M706.4347630703757,331.1298670901412L706.9738518108677,306.4062006763948L707.5091530426444,320.7050390036298L708.5821226991447,281.5724147242572L709.1196333110054,333.3515197635304L709.6591954900867,318.69920780606833L710.1976529791262,300.56796043819725L710.7293245150506,326.9076530201646L711.259891360933,298.0966386523163L711.7951925927096,319.72350852670087L713.9376600227212,325.9224478858875L715.0017921588857,306.18690120476185L715.53898714502,329.0928650380277M718.7714680207513,334.9852163355704L719.8324438996528,317.1502723590248L720.8987854159012,296.6554300282253L721.4381897821196,324.4105977072052L721.9796457155586,313.3899579832692L723.0540356878273,322.29526244904423L724.6572565644839,300.2522749592532L725.1916109190815,317.11598041294906L726.7878880297598,316.4924759167777L727.8588061190393,299.4612949498875L729.4599754284749,324.07246003544503L731.0666681881205,334.81174264531705L731.6019694198972,329.4024357997392M733.2173418870156,322.55902199689774L733.7602181362229,319.18955787016444L734.2982021866728,303.8552819519592M735.3755906033413,341.9242841277575L735.9085246421706,319.17888716052107L736.9759708484611,324.47099829404317L737.5123767702797,324.4576471604075L738.0500451950035,303.2061386176004L739.6576848318279,311.5488417535405L740.1857266719,325.1053847289225L741.2580650769479,319.0527761251865L741.7955756888084,306.99335920593114L745.5381077382136,332.31357655882823L746.0784589816108,321.77543136291297L746.6173899092396,333.567949433389L747.153480205332,337.88322447384917L747.691306442919,325.9035319589634L759.5757197275303,323.74838366400337L760.1132303393908,326.66917904809736L760.6532659570618,305.7734166689022L761.1885671888384,335.62888956553184M762.8069381003564,322.0433717894937ZM764.4095277255602,315.8897592740686ZM766.0293189528467,291.7513758214399L771.3834359606549,327.6925802242651L773.0051209422988,326.0402882107784L773.5408956126649,335.5432616729944M774.606921503187,313.41733764029954L775.6814692883189,327.90223235465396L776.2170861458217,328.88592610855494M779.9779244873514,285.63999455141567L780.5107007133176,332.10702002680006L781.0417409977896,316.4085888430831L781.5792516096501,333.7392088603443L782.1170778472369,320.00791025279966L782.6522212661505,325.1088517990865L783.1810521705384,328.065370388263L784.2500765054602,323.3673482827247L785.3318836822965,340.3558391272807L785.8665536626205,329.0303776537066L786.9431530149731,318.2907782002377L788.001130449475,315.77426067829055L789.0761516731961,333.70497154247494M790.1559072828118,329.0541263559538L790.6981522805665,343.4833986305871M791.7731735042877,328.63714197300635L793.9053830981951,276.9577807547954L796.5787329998154,330.3463420100041L797.1145076701815,315.7529192590038L798.1925273383023,293.24748215104773L798.7287754472578,323.21961904519117L799.2708626321495,323.5482295577612M801.4335301086433,337.71780662309453L801.9710407205039,322.6935639854147L802.5096560224065,324.8514364069322L803.0473244471302,316.50426104183094M804.6641172300169,328.28834815912455ZM807.3368358801845,321.33421026574143L808.4107524138639,323.7419047587284L808.942266136925,321.7868595836846L810.0097123432155,332.14957175767825L810.5510104637914,332.1110552303102L812.1659094923203,325.500459559237L812.7040513556335,336.2785828238347L813.240299464589,326.3453940270896M814.3224222671516,333.35749244742635L814.8596172532859,291.7443397084601L815.3983903680517,313.83573871473203L827.2774380153162,338.36083159834044L827.8157376914926,332.4072384395818L828.3524592390374,335.50523679948367L828.8904432894874,331.8302043376252L829.4238507669063,311.2768515559279L829.9552066771045,324.1429522729389L831.0265982049734,312.3978660531097L832.6680097945101,308.95609239055074L833.1963672603085,312.20207127773546L834.2653915952303,341.0260835168183L836.4176434227567,314.2519182421057L836.9526290288071,326.58648651118193L838.018497106466,335.200873926779L838.5526936482006,325.04124028900833L840.1630161036985,303.23366394984765L841.2421404618615,333.22728065473393L841.7741276235121,324.203079718745L842.3051679079838,304.99979386163886L843.3730875528637,337.8394308617463L843.9098091004086,330.6907582836158L844.4487400280374,309.32311381595645L844.9791490610567,331.4273468088438M847.6608630444235,328.30426681845944L848.2004252235049,330.99993572224145L849.2795495816678,339.2788076199839L849.8202164507912,300.49714771522605L850.358989565557,331.0563302406126M851.9778339156644,332.0141812110224L853.5786875993738,308.3369727184103L854.6496056886533,315.50545348416887L855.1880631776928,328.88860653254727M856.7982278203274,332.12296417929787L857.3335290521042,317.4655353798396L857.8648849623022,341.3683510809796M858.9342249229502,296.0953379540028L859.4726824119897,326.41186562859497L861.0796907973615,324.6818558868525L861.6164123449064,337.7169544230752L862.152818266725,326.66979088400865L862.6866991827334,312.3065422595885L863.2268926132674,286.7594357562541M864.30349196562,341.13130108415834L865.3843522652775,330.4254800716253L865.9206003742329,325.17214768086177L866.4614250562196,326.1738505334612L867.0020919253429,311.40184817585265L867.537866595709,341.6165488737799L868.0796381548745,324.14917260470367L869.6950106219929,324.9278467001156L871.2960221185652,316.11198681756275L872.3723058451915,289.05516063559423L873.4471692560496,324.06050738389234M874.5242420469916,334.1752766967154L875.059069840179,340.65048182113276L875.5879007445667,338.96639983342186L877.7291056716732,329.7688126123098L879.8647871485697,350.0840301168193L880.933180232039,310.35497508034996L881.4681658380892,324.54963741804625L881.997943619656,344.5490274102752L893.8782537698256,332.7539381722196L894.4121346858341,341.3116943472179M898.1616105012175,342.6048896671023ZM899.2339489062653,338.661228463263L900.310706071481,323.0119881584378L900.8452182389419,319.35967010478606L901.3792569678134,323.17616412796775L902.4490703670509,332.6048541551682L902.9843715988276,328.11366536457035L904.0600240740014,327.9690608604409L904.5980081244513,333.0194494645572L905.1389906193011,341.87065015474803L905.6796574884245,330.46624728109555L906.2163790359695,334.8249226105728L906.7565724665034,333.62603378427707L907.8355390118032,331.0524844148845L908.3725761850744,346.1871962114763L909.9716939272892,335.563597933284L912.6631923081708,334.0087043698662L914.820809773044,342.9357690711767L919.1115837090034,314.7199945655264M920.1921283829346,335.8242181802117L920.7280608661638,331.39781115860234L921.268569922424,337.65868433628555L922.8765251849748,341.12111838649184L923.4102482881199,343.55335915353896M925.017572299218,342.86936302351904ZM926.6326291406101,343.50102533184094L927.1723491325547,332.21845064214403L927.7044941070685,330.3763984491463L928.7681528046435,315.47398763730246L929.3018759077887,347.1870890495048L929.8367037009759,329.6073207086526L930.3778440086887,338.36849047287285L930.9155124334126,332.6761548901162L931.9889555285023,354.10773621050555L932.5203114387004,343.25690280323556M934.1344214029136,333.54172789433363L935.2146504511185,331.7502359272672L935.7507407472109,337.37187896910666L938.4444485081764,336.53800853398326L939.5177337904031,309.35485644573515L941.6602012204146,345.5336279924019L942.1972383936859,342.66033365468274L942.7371161984936,342.7077218027644L944.8947336633668,346.7557556576854L947.5914398687321,330.8903369727509L948.1332114278975,345.36033639616977M962.7417903560607,344.1809170626226L963.2821415994579,332.8407715271775L964.8953046864923,329.9660313629299L965.4356559298894,326.9081810928261L966.5019974461378,339.1753745740518L967.040139309451,347.2776189130934M968.1135824045407,340.0395199611429L969.188603628262,325.08480446264446L969.7281658073434,340.2027927443276L970.2674123606986,344.02498995225386L971.3462210931352,335.28394157737813L971.8834160792695,327.4840534349273L972.4256610770243,351.403978690301L972.9656966946953,323.9310166835239L973.5043119965978,335.16130125408796L975.6387309705892,341.22645249400546L977.2410049700668,343.5532753902892L977.7744124474857,343.1114497409672L978.3056105448206,331.6341837656647L978.8393336479659,328.1317655102794L979.9170376903605,333.16769220723063M980.9991604929231,331.9167062814645L981.5361976661942,345.56605893758075L982.078284851086,343.2886709261772L982.6198985973883,348.21094181884513L983.1564623320701,339.8626483964536L983.693341692478,347.6051295777753L984.2363757545486,359.47988495011367M986.9057803345903,349.3272655740403L987.4458159522612,334.0948639769456L989.601855288503,347.75024030328376L990.1426799704897,323.14104183315527L990.685556219697,327.5057991029412L991.7637337006811,347.9253601234889L993.9159855282074,325.3083540087327L995.5163657733273,343.7981080855773M998.72028252083,346.8756208680922L999.2555837526065,343.20791951152796L999.7967240603194,337.884338889259M1001.9552884023715,328.85816041219965L1003.0312565032716,332.7474993276293L1003.5698718051742,355.9043705127312L1004.1002808381934,312.37926332790204L1004.6322679998441,336.7598755313154L1005.1702520502942,333.74349899548423L1006.2422748296156,336.0596693915267L1006.7824682601497,327.42490929683584L1008.4003657330782,336.7816903950573L1008.9378763449389,328.2911961096164L1009.4794900912411,315.95475955588245L1010.0196835217752,344.965851550484L1010.5625597709826,348.20712512816044L1011.1022797629271,329.53782998827546L1013.8026156641446,327.4534106530368L1014.3442294104469,330.2209957695586L1014.8792150164974,345.1550872992139L1028.3988851889828,326.1174887920139L1029.4633329508736,316.768763533291M1030.5415104318577,346.0678299386876L1031.0771272893605,328.92099013328067L1032.15356882885,342.9473356834045L1032.688396622037,336.0377598388938L1033.22701192394,334.4130696371433L1033.756316266917,315.04569521563735M1034.825656227565,334.86488496446924L1035.3653762195097,348.6733695857277L1036.442764636178,334.3366629858403L1037.5177858598993,352.3994247923314L1038.0597152319278,352.158623658673L1038.6008555396409,335.09334012348904L1039.6793486463512,354.3729670780505M1041.2880929732173,329.6789455709584L1042.3555391795078,340.86471179521504L1042.8883154054743,341.1765587321918L1043.4229853857983,337.05480957560144L1043.9568663018065,327.11745082577045L1044.4880643991414,347.46934934991407L1046.6363709050895,345.08156865908745M1047.7180202690627,337.97700653665675L1048.2548996294706,342.7620732262175M1049.335602116265,350.5487085658041L1049.8720080380835,326.8778660801738L1050.9566558464564,351.17743551850396L1051.4932195811382,357.6483705381238L1052.0335708245352,334.1310788358854L1052.5729751907536,346.0421874586197L1054.7173363751228,335.6885945532087M1056.8588569279557,350.28828862229966L1057.9367187832133,348.9392341404665M1059.556825636226,348.9126921159338L1060.0974925053495,345.4962076710416L1060.6408421931462,349.0266028518468L1061.177405927828,357.4054261578357L1061.7179149840883,347.71763818972494L1062.2568459117172,345.38846628056746L1063.322556176513,345.7693195678249L1063.8547011510268,345.7601602385576L1064.3912648857086,333.2134342253605L1064.9281442461167,330.8168074069832L1065.466443922293,344.304657233801L1066.0052170370586,345.73877875858625L1066.541149520288,340.38097538596963L1067.0832367051796,343.86006011347604L1067.6179066855036,345.46051724288293L1069.2149728604977,342.31012314931587L1069.7516944080426,351.247989667965L1070.8249796902692,320.01086745970423L1071.3579137290988,340.2426130648875L1072.9590830385343,318.38836602808874L1073.495646773216,345.7310251951628L1074.037102706655,346.9281367838114M1075.1146489361865,347.1237822420882L1076.1937732943495,346.60337573884993M1077.8134067087726,353.45735463680245L1078.3543892036223,344.02237872398956L1079.4339870003746,331.2462725141449L1079.9703929221932,343.51580044072256M1081.0364188127155,343.8160771235911L1082.1032337675533,348.92494340168133L1082.6367990578353,343.23288824371735L1083.6987218139157,355.1762712107723L1084.2308667884297,358.9612447588812L1095.6049132736407,346.56307833195444L1096.677725117278,347.42870596437825L1097.2138154133704,339.36749105019743L1097.7544822824937,346.2177333788345M1099.352021896077,353.2006293809885L1100.4275165583877,347.6126828377754L1101.4995393377092,343.5495533884955L1102.0383124524749,330.81409784794744L1103.1136493019226,337.25785897678094" style="fill: none;" fill="none"></path></g></g></g></g></g><g><g><span fill="rgb(0, 0, 0)" stroke="none" stroke-width="1px">Alt + Scroll to Zoom</span></g></g></g><g transform="translate(30, 366)" clip-path="url(#clip_1)"><clipPath id="clip_1"><rect width="1129" height="34"></rect></clipPath><g><g visibility="inherit"><g><g transform="translate(0,0)" style="visibility: inherit;"><text transform="translate(3,14)" style="text-anchor: start; font-family: &quot;Helvetica Neue&quot;, sans-serif; font-size: 12px; font-weight: 200;" fill="rgb(50, 49, 63)" stroke="none" stroke-width="1px">08:46 AM</text></g><g transform="translate(130.12001973045113,0)" style="visibility: inherit;"><text transform="translate(3,14)" style="text-anchor: start; font-family: &quot;Helvetica Neue&quot;, sans-serif; font-size: 12px; font-weight: 200;" fill="rgb(50, 49, 63)" stroke="none" stroke-width="1px">09:00 AM</text></g><g transform="translate(272.151596557974,0)" style="visibility: inherit;"><text transform="translate(3,14)" style="text-anchor: start; font-family: &quot;Helvetica Neue&quot;, sans-serif; font-size: 12px; font-weight: 200;" fill="rgb(50, 49, 63)" stroke="none" stroke-width="1px">09:15 AM</text></g><g transform="translate(414.18317338549696,0)" style="visibility: inherit;"><text transform="translate(3,14)" style="text-anchor: start; font-family: &quot;Helvetica Neue&quot;, sans-serif; font-size: 12px; font-weight: 200;" fill="rgb(50, 49, 63)" stroke="none" stroke-width="1px">09:30 AM</text></g><g transform="translate(556.2147502130199,0)" style="visibility: inherit;"><text transform="translate(3,14)" style="text-anchor: start; font-family: &quot;Helvetica Neue&quot;, sans-serif; font-size: 12px; font-weight: 200;" fill="rgb(50, 49, 63)" stroke="none" stroke-width="1px">09:45 AM</text></g><g transform="translate(698.2463270405428,0)" style="visibility: inherit;"><text transform="translate(3,14)" style="text-anchor: start; font-family: &quot;Helvetica Neue&quot;, sans-serif; font-size: 12px; font-weight: 200;" fill="rgb(50, 49, 63)" stroke="none" stroke-width="1px">10:00 AM</text></g><g transform="translate(840.2779038680656,0)" style="visibility: inherit;"><text transform="translate(3,14)" style="text-anchor: start; font-family: &quot;Helvetica Neue&quot;, sans-serif; font-size: 12px; font-weight: 200;" fill="rgb(50, 49, 63)" stroke="none" stroke-width="1px">10:15 AM</text></g><g transform="translate(982.3094806955885,0)" style="visibility: inherit;"><text transform="translate(3,14)" style="text-anchor: start; font-family: &quot;Helvetica Neue&quot;, sans-serif; font-size: 12px; font-weight: 200;" fill="rgb(50, 49, 63)" stroke="none" stroke-width="1px">10:30 AM</text></g><g transform="translate(1124.3410575231114,0)" style="visibility: hidden;"><text transform="translate(3,14)" style="text-anchor: start; font-family: &quot;Helvetica Neue&quot;, sans-serif; font-size: 12px; font-weight: 200;" fill="rgb(50, 49, 63)" stroke="none" stroke-width="1px">10:45 AM</text></g><g transform="translate(1129.22,0)" style="visibility: hidden;"><text transform="translate(3,14)" style="text-anchor: start; font-family: &quot;Helvetica Neue&quot;, sans-serif; font-size: 12px; font-weight: 200;" fill="rgb(50, 49, 63)" stroke="none" stroke-width="1px">10:45 AM</text></g></g><g><line x1="0" y1="0" x2="0" y2="17" fill="rgb(0, 0, 0)" stroke="rgb(204, 204, 204)" stroke-width="1px"></line><line x1="130.12001973045113" y1="0" x2="130.12001973045113" y2="17" fill="rgb(0, 0, 0)" stroke="rgb(204, 204, 204)" stroke-width="1px"></line><line x1="272.151596557974" y1="0" x2="272.151596557974" y2="17" fill="rgb(0, 0, 0)" stroke="rgb(204, 204, 204)" stroke-width="1px"></line><line x1="414.18317338549696" y1="0" x2="414.18317338549696" y2="17" fill="rgb(0, 0, 0)" stroke="rgb(204, 204, 204)" stroke-width="1px"></line><line x1="556.2147502130199" y1="0" x2="556.2147502130199" y2="17" fill="rgb(0, 0, 0)" stroke="rgb(204, 204, 204)" stroke-width="1px"></line><line x1="698.2463270405428" y1="0" x2="698.2463270405428" y2="17" fill="rgb(0, 0, 0)" stroke="rgb(204, 204, 204)" stroke-width="1px"></line><line x1="840.2779038680656" y1="0" x2="840.2779038680656" y2="17" fill="rgb(0, 0, 0)" stroke="rgb(204, 204, 204)" stroke-width="1px"></line><line x1="982.3094806955885" y1="0" x2="982.3094806955885" y2="17" fill="rgb(0, 0, 0)" stroke="rgb(204, 204, 204)" stroke-width="1px"></line><line x1="1124.3410575231114" y1="0" x2="1124.3410575231114" y2="17" fill="rgb(0, 0, 0)" stroke="rgb(204, 204, 204)" stroke-width="1px"></line><line x1="1129.22" y1="0" x2="1129.22" y2="17" fill="rgb(0, 0, 0)" stroke="rgb(204, 204, 204)" stroke-width="1px"></line></g><line x1="0" y1="0" x2="1129.22" y2="0" style="visibility: inherit;" fill="rgb(0, 0, 0)" stroke="rgb(204, 204, 204)" stroke-width="1px"></line></g><g visibility="inherit"><g><g transform="translate(65.059930958794,0)" style="visibility: inherit;"><text transform="translate(0,31)" style="text-anchor: middle; font-family: &quot;Helvetica Neue&quot;, sans-serif; font-size: 12px; font-weight: 200;" fill="rgb(50, 49, 63)" stroke="none" stroke-width="1px">August 18, 2020</text></g><g transform="translate(201.13580814421258,0)" style="visibility: inherit;"><text transform="translate(0,31)" style="text-anchor: middle; font-family: &quot;Helvetica Neue&quot;, sans-serif; font-size: 12px; font-weight: 200;" fill="rgb(50, 49, 63)" stroke="none" stroke-width="1px">August 18, 2020</text></g><g transform="translate(343.1673849717355,0)" style="visibility: inherit;"><text transform="translate(0,31)" style="text-anchor: middle; font-family: &quot;Helvetica Neue&quot;, sans-serif; font-size: 12px; font-weight: 200;" fill="rgb(50, 49, 63)" stroke="none" stroke-width="1px">August 18, 2020</text></g><g transform="translate(485.1989617992584,0)" style="visibility: inherit;"><text transform="translate(0,31)" style="text-anchor: middle; font-family: &quot;Helvetica Neue&quot;, sans-serif; font-size: 12px; font-weight: 200;" fill="rgb(50, 49, 63)" stroke="none" stroke-width="1px">August 18, 2020</text></g><g transform="translate(627.2305386267814,0)" style="visibility: inherit;"><text transform="translate(0,31)" style="text-anchor: middle; font-family: &quot;Helvetica Neue&quot;, sans-serif; font-size: 12px; font-weight: 200;" fill="rgb(50, 49, 63)" stroke="none" stroke-width="1px">August 18, 2020</text></g><g transform="translate(769.2621154543043,0)" style="visibility: inherit;"><text transform="translate(0,31)" style="text-anchor: middle; font-family: &quot;Helvetica Neue&quot;, sans-serif; font-size: 12px; font-weight: 200;" fill="rgb(50, 49, 63)" stroke="none" stroke-width="1px">August 18, 2020</text></g><g transform="translate(911.293692281827,0)" style="visibility: inherit;"><text transform="translate(0,31)" style="text-anchor: middle; font-family: &quot;Helvetica Neue&quot;, sans-serif; font-size: 12px; font-weight: 200;" fill="rgb(50, 49, 63)" stroke="none" stroke-width="1px">August 18, 2020</text></g><g transform="translate(1053.32526910935,0)" style="visibility: inherit;"><text transform="translate(0,31)" style="text-anchor: middle; font-family: &quot;Helvetica Neue&quot;, sans-serif; font-size: 12px; font-weight: 200;" fill="rgb(50, 49, 63)" stroke="none" stroke-width="1px">August 18, 2020</text></g><g transform="translate(1126.7805287615558,0)" style="visibility: hidden;"><text transform="translate(0,31)" style="text-anchor: middle; font-family: &quot;Helvetica Neue&quot;, sans-serif; font-size: 12px; font-weight: 200;" fill="rgb(50, 49, 63)" stroke="none" stroke-width="1px">August 18, 2020</text></g></g><g><line x1="0" y1="17" x2="0" y2="34" fill="rgb(0, 0, 0)" stroke="rgb(204, 204, 204)" stroke-width="1px"></line><line x1="130.12001973045113" y1="17" x2="130.12001973045113" y2="34" fill="rgb(0, 0, 0)" stroke="rgb(204, 204, 204)" stroke-width="1px"></line><line x1="272.151596557974" y1="17" x2="272.151596557974" y2="34" fill="rgb(0, 0, 0)" stroke="rgb(204, 204, 204)" stroke-width="1px"></line><line x1="414.18317338549696" y1="17" x2="414.18317338549696" y2="34" fill="rgb(0, 0, 0)" stroke="rgb(204, 204, 204)" stroke-width="1px"></line><line x1="556.2147502130199" y1="17" x2="556.2147502130199" y2="34" fill="rgb(0, 0, 0)" stroke="rgb(204, 204, 204)" stroke-width="1px"></line><line x1="698.2463270405428" y1="17" x2="698.2463270405428" y2="34" fill="rgb(0, 0, 0)" stroke="rgb(204, 204, 204)" stroke-width="1px"></line><line x1="840.2779038680656" y1="17" x2="840.2779038680656" y2="34" fill="rgb(0, 0, 0)" stroke="rgb(204, 204, 204)" stroke-width="1px"></line><line x1="982.3094806955885" y1="17" x2="982.3094806955885" y2="34" fill="rgb(0, 0, 0)" stroke="rgb(204, 204, 204)" stroke-width="1px"></line><line x1="1124.3410575231114" y1="17" x2="1124.3410575231114" y2="34" fill="rgb(0, 0, 0)" stroke="rgb(204, 204, 204)" stroke-width="1px"></line><line x1="1129.22" y1="17" x2="1129.22" y2="34" fill="rgb(0, 0, 0)" stroke="rgb(204, 204, 204)" stroke-width="1px"></line></g><line x1="0" y1="17" x2="1129.22" y2="17" style="visibility: inherit;" fill="rgb(0, 0, 0)" stroke="rgb(204, 204, 204)" stroke-width="1px"></line></g></g></g></g></g></svg>