<svg viewBox="0 0 330 200" xmlns="http://www.w3.org/2000/svg"><g><g><g><g><g><line x1="50" y1="171.92472438074" x2="45" y2="171.92472438074" style="visibility: inherit;" fill="rgb(0, 0, 0)" stroke="rgb(204, 204, 204)" stroke-width="1px"></line><line x1="50" y1="161.86526508224628" x2="45" y2="161.86526508224628" style="visibility: inherit;" fill="rgb(0, 0, 0)" stroke="rgb(204, 204, 204)" stroke-width="1px"></line><line x1="50" y1="154.06254226036145" x2="45" y2="154.06254226036145" style="visibility: inherit;" fill="rgb(0, 0, 0)" stroke="rgb(204, 204, 204)" stroke-width="1px"></line><line x1="50" y1="147.68725351130598" x2="45" y2="147.68725351130598" style="visibility: inherit;" fill="rgb(0, 0, 0)" stroke="rgb(204, 204, 204)" stroke-width="1px"></line><line x1="50" y1="142.29702367758094" x2="45" y2="142.29702367758094" style="visibility: inherit;" fill="rgb(0, 0, 0)" stroke="rgb(204, 204, 204)" stroke-width="1px"></line><line x1="50" y1="137.62779421281226" x2="45" y2="137.62779421281226" style="visibility: inherit;" fill="rgb(0, 0, 0)" stroke="rgb(204, 204, 204)" stroke-width="1px"></line><line x1="50" y1="133.5092419403657" x2="45" y2="133.5092419403657" style="visibility: inherit;" fill="rgb(0, 0, 0)" stroke="rgb(204, 204, 204)" stroke-width="1px"></line><line x1="50" y1="129.82507139092743" x2="45" y2="129.82507139092743" style="visibility: inherit;" fill="rgb(0, 0, 0)" stroke="rgb(204, 204, 204)" stroke-width="1px"></line><line x1="50" y1="105.58760052149344" x2="45" y2="105.58760052149344" style="visibility: inherit;" fill="rgb(0, 0, 0)" stroke="rgb(204, 204, 204)" stroke-width="1px"></line><line x1="50" y1="91.40958895055316" x2="45" y2="91.40958895055316" style="visibility: inherit;" fill="rgb(0, 0, 0)" stroke="rgb(204, 204, 204)" stroke-width="1px"></line><line x1="50" y1="81.35012965205947" x2="45" y2="81.35012965205947" style="visibility: inherit;" fill="rgb(0, 0, 0)" stroke="rgb(204, 204, 204)" stroke-width="1px"></line><line x1="50" y1="73.54740683017462" x2="45" y2="73.54740683017462" style="visibility: inherit;" fill="rgb(0, 0, 0)" stroke="rgb(204, 204, 204)" stroke-width="1px"></line><line x1="50" y1="67.17211808111917" x2="45" y2="67.17211808111917" style="visibility: inherit;" fill="rgb(0, 0, 0)" stroke="rgb(204, 204, 204)" stroke-width="1px"></line><line x1="50" y1="61.78188824739411" x2="45" y2="61.78188824739411" style="visibility: inherit;" fill="rgb(0, 0, 0)" stroke="rgb(204, 204, 204)" stroke-width="1px"></line><line x1="50" y1="57.112658782625445" x2="45" y2="57.112658782625445" style="visibility: inherit;" fill="rgb(0, 0, 0)" stroke="rgb(204, 204, 204)" stroke-width="1px"></line><line x1="50" y1="52.994106510178895" x2="45" y2="52.994106510178895" style="visibility: inherit;" fill="rgb(0, 0, 0)" stroke="rgb(204, 204, 204)" stroke-width="1px"></line><line x1="50" y1="49.30993596074063" x2="45" y2="49.30993596074063" style="visibility: inherit;" fill="rgb(0, 0, 0)" stroke="rgb(204, 204, 204)" stroke-width="1px"></line><line x1="50" y1="25.07246509130664" x2="45" y2="25.07246509130664" style="visibility: inherit;" fill="rgb(0, 0, 0)" stroke="rgb(204, 204, 204)" stroke-width="1px"></line><line x1="50" y1="10.89445352036634" x2="45" y2="10.89445352036634" style="visibility: inherit;" fill="rgb(0, 0, 0)" stroke="rgb(204, 204, 204)" stroke-width="1px"></line><line x1="50" y1="0.8349942218726198" x2="45" y2="0.8349942218726198" style="visibility: inherit;" fill="rgb(0, 0, 0)" stroke="rgb(204, 204, 204)" stroke-width="1px"></line></g><g transform="translate(40, 0)"><text x="0" y="171.92472438074" dx="0em" dy="0.3em" style="text-anchor: end; visibility: inherit; font-family: &quot;Helvetica Neue&quot;, sans-serif; font-size: 12px; font-weight: 200;" fill="rgb(50, 49, 63)" stroke="none" stroke-width="1px">0.03</text><text x="0" y="161.86526508224628" dx="0em" dy="0.3em" style="text-anchor: end; visibility: hidden; font-family: &quot;Helvetica Neue&quot;, sans-serif; font-size: 12px; font-weight: 200;" fill="rgb(50, 49, 63)" stroke="none" stroke-width="1px">0.04</text><text x="0" y="154.06254226036145" dx="0em" dy="0.3em" style="text-anchor: end; visibility: hidden; font-family: &quot;Helvetica Neue&quot;, sans-serif; font-size: 12px; font-weight: 200;" fill="rgb(50, 49, 63)" stroke="none" stroke-width="1px">0.05</text><text x="0" y="147.68725351130598" dx="0em" dy="0.3em" style="text-anchor: end; visibility: hidden; font-family: &quot;Helvetica Neue&quot;, sans-serif; font-size: 12px; font-weight: 200;" fill="rgb(50, 49, 63)" stroke="none" stroke-width="1px">0.06</text><text x="0" y="142.29702367758094" dx="0em" dy="0.3em" style="text-anchor: end; visibility: hidden; font-family: &quot;Helvetica Neue&quot;, sans-serif; font-size: 12px; font-weight: 200;" fill="rgb(50, 49, 63)" stroke="none" stroke-width="1px">0.07</text><text x="0" y="137.62779421281226" dx="0em" dy="0.3em" style="text-anchor: end; visibility: inherit; font-family: &quot;Helvetica Neue&quot;, sans-serif; font-size: 12px; font-weight: 200;" fill="rgb(50, 49, 63)" stroke="none" stroke-width="1px">0.08</text><text x="0" y="133.5092419403657" dx="0em" dy="0.3em" style="text-anchor: end; visibility: hidden; font-family: &quot;Helvetica Neue&quot;, sans-serif; font-size: 12px; font-weight: 200;" fill="rgb(50, 49, 63)" stroke="none" stroke-width="1px">0.09</text><text x="0" y="129.82507139092743" dx="0em" dy="0.3em" style="text-anchor: end; visibility: hidden; font-family: &quot;Helvetica Neue&quot;, sans-serif; font-size: 12px; font-weight: 200;" fill="rgb(50, 49, 63)" stroke="none" stroke-width="1px">0.1</text><text x="0" y="105.58760052149344" dx="0em" dy="0.3em" style="text-anchor: end; visibility: hidden; font-family: &quot;Helvetica Neue&quot;, sans-serif; font-size: 12px; font-weight: 200;" fill="rgb(50, 49, 63)" stroke="none" stroke-width="1px">0.2</text><text x="0" y="91.40958895055316" dx="0em" dy="0.3em" style="text-anchor: end; visibility: hidden; font-family: &quot;Helvetica Neue&quot;, sans-serif; font-size: 12px; font-weight: 200;" fill="rgb(50, 49, 63)" stroke="none" stroke-width="1px">0.3</text><text x="0" y="81.35012965205947" dx="0em" dy="0.3em" style="text-anchor: end; visibility: inherit; font-family: &quot;Helvetica Neue&quot;, sans-serif; font-size: 12px; font-weight: 200;" fill="rgb(50, 49, 63)" stroke="none" stroke-width="1px">0.4</text><text x="0" y="73.54740683017462" dx="0em" dy="0.3em" style="text-anchor: end; visibility: hidden; font-family: &quot;Helvetica Neue&quot;, sans-serif; font-size: 12px; font-weight: 200;" fill="rgb(50, 49, 63)" stroke="none" stroke-width="1px">0.5</text><text x="0" y="67.17211808111917" dx="0em" dy="0.3em" style="text-anchor: end; visibility: hidden; font-family: &quot;Helvetica Neue&quot;, sans-serif; font-size: 12px; font-weight: 200;" fill="rgb(50, 49, 63)" stroke="none" stroke-width="1px">0.6</text><text x="0" y="61.78188824739411" dx="0em" dy="0.3em" style="text-anchor: end; visibility: hidden; font-family: &quot;Helvetica Neue&quot;, sans-serif; font-size: 12px; font-weight: 200;" fill="rgb(50, 49, 63)" stroke="none" stroke-width="1px">0.7</text><text x="0" y="57.112658782625445" dx="0em" dy="0.3em" style="text-anchor: end; visibility: hidden; font-family: &quot;Helvetica Neue&quot;, sans-serif; font-size: 12px; font-weight: 200;" fill="rgb(50, 49, 63)" stroke="none" stroke-width="1px">0.8</text><text x="0" y="52.994106510178895" dx="0em" dy="0.3em" style="text-anchor: end; visibility: inherit; font-family: &quot;Helvetica Neue&quot;, sans-serif; font-size: 12px; font-weight: 200;" fill="rgb(50, 49, 63)" stroke="none" stroke-width="1px">0.9</text><text x="0" y="49.30993596074063" dx="0em" dy="0.3em" style="text-anchor: end; visibility: hidden; font-family: &quot;Helvetica Neue&quot;, sans-serif; font-size: 12px; font-weight: 200;" fill="rgb(50, 49, 63)" stroke="none" stroke-width="1px">1</text><text x="0" y="25.07246509130664" dx="0em" dy="0.3em" style="text-anchor: end; visibility: hidden; font-family: &quot;Helvetica Neue&quot;, sans-serif; font-size: 12px; font-weight: 200;" fill="rgb(50, 49, 63)" stroke="none" stroke-width="1px">2</text><text x="0" y="10.89445352036634" dx="0em" dy="0.3em" style="text-anchor: end; visibility: hidden; font-family: &quot;Helvetica Neue&quot;, sans-serif; font-size: 12px; font-weight: 200;" fill="rgb(50, 49, 63)" stroke="none" stroke-width="1px">3</text><text x="0" y="0.8349942218726198" dx="0em" dy="0.3em" style="text-anchor: end; visibility: hidden; font-family: &quot;Helvetica Neue&quot;, sans-serif; font-size: 12px; font-weight: 200;" fill="rgb(50, 49, 63)" stroke="none" stroke-width="1px">4</text></g><line x1="50" y1="0" x2="50" y2="178" fill="rgb(0, 0, 0)" stroke="rgb(204, 204, 204)" stroke-width="1px"></line></g></g><g transform="translate(50, 0)" clip-path="url(#clip_0)"><clipPath id="clip_0"><rect width="280" height="178"></rect></clipPath><g><g><g><line x1="0" y1="0" x2="0" y2="178" fill="rgb(0, 0, 0)" stroke="rgb(60, 60, 60)" stroke-width="1px" opacity="0.25"></line><line x1="25.454545454545457" y1="0" x2="25.454545454545457" y2="178" fill="rgb(0, 0, 0)" stroke="rgb(60, 60, 60)" stroke-width="1px" opacity="0.25"></line><line x1="50.909090909090914" y1="0" x2="50.909090909090914" y2="178" fill="rgb(0, 0, 0)" stroke="rgb(60, 60, 60)" stroke-width="1px" opacity="0.25"></line><line x1="76.36363636363636" y1="0" x2="76.36363636363636" y2="178" fill="rgb(0, 0, 0)" stroke="rgb(60, 60, 60)" stroke-width="1px" opacity="0.25"></line><line x1="101.81818181818183" y1="0" x2="101.81818181818183" y2="178" fill="rgb(0, 0, 0)" stroke="rgb(60, 60, 60)" stroke-width="1px" opacity="0.25"></line><line x1="127.27272727272727" y1="0" x2="127.27272727272727" y2="178" fill="rgb(0, 0, 0)" stroke="rgb(60, 60, 60)" stroke-width="1px" opacity="0.25"></line><line x1="152.72727272727272" y1="0" x2="152.72727272727272" y2="178" fill="rgb(0, 0, 0)" stroke="rgb(60, 60, 60)" stroke-width="1px" opacity="0.25"></line><line x1="178.1818181818182" y1="0" x2="178.1818181818182" y2="178" fill="rgb(0, 0, 0)" stroke="rgb(60, 60, 60)" stroke-width="1px" opacity="0.25"></line><line x1="203.63636363636365" y1="0" x2="203.63636363636365" y2="178" fill="rgb(0, 0, 0)" stroke="rgb(60, 60, 60)" stroke-width="1px" opacity="0.25"></line><line x1="229.0909090909091" y1="0" x2="229.0909090909091" y2="178" fill="rgb(0, 0, 0)" stroke="rgb(60, 60, 60)" stroke-width="1px" opacity="0.25"></line><line x1="254.54545454545453" y1="0" x2="254.54545454545453" y2="178" fill="rgb(0, 0, 0)" stroke="rgb(60, 60, 60)" stroke-width="1px" opacity="0.25"></line><line x1="280" y1="0" x2="280" y2="178" fill="rgb(0, 0, 0)" stroke="rgb(60, 60, 60)" stroke-width="1px" opacity="0.25"></line></g><g><line x1="0" y1="171.92472438074" x2="280" y2="171.92472438074" fill="rgb(0, 0, 0)" stroke="rgb(60, 60, 60)" stroke-width="1px" opacity="0.25"></line><line x1="0" y1="161.86526508224628" x2="280" y2="161.86526508224628" fill="rgb(0, 0, 0)" stroke="rgb(60, 60, 60)" stroke-width="1px" opacity="0.25"></line><line x1="0" y1="154.06254226036145" x2="280" y2="154.06254226036145" fill="rgb(0, 0, 0)" stroke="rgb(60, 60, 60)" stroke-width="1px" opacity="0.25"></line><line x1="0" y1="147.68725351130598" x2="280" y2="147.68725351130598" fill="rgb(0, 0, 0)" stroke="rgb(60, 60, 60)" stroke-width="1px" opacity="0.25"></line><line x1="0" y1="142.29702367758094" x2="280" y2="142.29702367758094" fill="rgb(0, 0, 0)" stroke="rgb(60, 60, 60)" stroke-width="1px" opacity="0.25"></line><line x1="0" y1="137.62779421281226" x2="280" y2="137.62779421281226" fill="rgb(0, 0, 0)" stroke="rgb(60, 60, 60)" stroke-width="1px" opacity="0.25"></line><line x1="0" y1="133.5092419403657" x2="280" y2="133.5092419403657" fill="rgb(0, 0, 0)" stroke="rgb(60, 60, 60)" stroke-width="1px" opacity="0.25"></line><line x1="0" y1="129.82507139092743" x2="280" y2="129.82507139092743" fill="rgb(0, 0, 0)" stroke="rgb(60, 60, 60)" stroke-width="1px" opacity="0.25"></line><line x1="0" y1="105.58760052149344" x2="280" y2="105.58760052149344" fill="rgb(0, 0, 0)" stroke="rgb(60, 60, 60)" stroke-width="1px" opacity="0.25"></line><line x1="0" y1="91.40958895055316" x2="280" y2="91.40958895055316" fill="rgb(0, 0, 0)" stroke="rgb(60, 60, 60)" stroke-width="1px" opacity="0.25"></line><line x1="0" y1="81.35012965205947" x2="280" y2="81.35012965205947" fill="rgb(0, 0, 0)" stroke="rgb(60, 60, 60)" stroke-width="1px" opacity="0.25"></line><line x1="0" y1="73.54740683017462" x2="280" y2="73.54740683017462" fill="rgb(0, 0, 0)" stroke="rgb(60, 60, 60)" stroke-width="1px" opacity="0.25"></line><line x1="0" y1="67.17211808111917" x2="280" y2="67.17211808111917" fill="rgb(0, 0, 0)" stroke="rgb(60, 60, 60)" stroke-width="1px" opacity="0.25"></line><line x1="0" y1="61.78188824739411" x2="280" y2="61.78188824739411" fill="rgb(0, 0, 0)" stroke="rgb(60, 60, 60)" stroke-width="1px" opacity="0.25"></line><line x1="0" y1="57.112658782625445" x2="280" y2="57.112658782625445" fill="rgb(0, 0, 0)" stroke="rgb(60, 60, 60)" stroke-width="1px" opacity="0.25"></line><line x1="0" y1="52.994106510178895" x2="280" y2="52.994106510178895" fill="rgb(0, 0, 0)" stroke="rgb(60, 60, 60)" stroke-width="1px" opacity="0.25"></line><line x1="0" y1="49.30993596074063" x2="280" y2="49.30993596074063" fill="rgb(0, 0, 0)" stroke="rgb(60, 60, 60)" stroke-width="1px" opacity="0.25"></line><line x1="0" y1="25.07246509130664" x2="280" y2="25.07246509130664" fill="rgb(0, 0, 0)" stroke="rgb(60, 60, 60)" stroke-width="1px" opacity="0.25"></line><line x1="0" y1="10.89445352036634" x2="280" y2="10.89445352036634" fill="rgb(0, 0, 0)" stroke="rgb(60, 60, 60)" stroke-width="1px" opacity="0.25"></line><line x1="0" y1="0.8349942218726198" x2="280" y2="0.8349942218726198" fill="rgb(0, 0, 0)" stroke="rgb(60, 60, 60)" stroke-width="1px" opacity="0.25"></line></g></g></g><g><g><line x1="25.454545454545457" y1="0" x2="25.454545454545457" y2="178" fill="rgb(0, 0, 0)" stroke="rgb(153, 153, 153)" stroke-width="1.5px"></line></g></g><g><g><g><g><g><path stroke="rgb(255, 112, 67)" stroke-width="2px" d="M25.454545454545457,-4.023116951371264L25.454545454545457,0.41072698433157484L25.454545454545457,-2.063043270143112L25.454545454545457,-1.5111747912854696L25.454545454545457,0.6388925900830031M25.454545454545457,2.228239187653827L25.454545454545457,5.701034378424822L25.454545454545457,7.83621714669485L25.454545454545457,9.595937485235766L25.454545454545457,11.4109262979388M25.454545454545457,12.573864291411155L25.454545454545457,15.499726998658986M25.454545454545457,17.196235338752643ZM25.454545454545457,17.842898948944935L25.454545454545457,19.958413075764213L25.454545454545457,20.307921534384093L25.454545454545457,24.077086839906116L25.454545454545457,22.642000861296538L25.454545454545457,24.446149098588535L25.454545454545457,26.09376707428575L25.454545454545457,25.82707310656764L25.454545454545457,25.191051241640423L25.454545454545457,25.433458959143394L25.454545454545457,26.078380520154127L25.454545454545457,26.991936384741564L25.454545454545457,28.42839945064017L25.454545454545457,30.828092742669583L25.454545454545457,31.181424908982393L25.454545454545457,32.91109459487913L25.454545454545457,34.273538089738935L25.454545454545457,34.85313847612696L25.454545454545457,35.008119983461484L25.454545454545457,35.802251271869096L25.454545454545457,36.93322048388387L25.454545454545457,38.7332903150068L25.454545454545457,38.92439456636677M25.454545454545457,40.598197741377845ZM25.454545454545457,42.10411448822512L25.454545454545457,42.63125496544359L25.454545454545457,42.63012507141627M25.454545454545457,43.5135681745806L25.454545454545457,44.48535512390217L25.454545454545457,44.20620595666736L25.454545454545457,44.29068719179563L25.454545454545457,45.55450992050075L25.454545454545457,46.04554604126321L25.454545454545457,47.40781692725639L25.454545454545457,48.40209650790146M25.454545454545457,48.85155712353816L25.454545454545457,48.79734100181628L25.454545454545457,49.22032804469728L25.454545454545457,45.776863415582255L25.454545454545457,48.05684653981734L25.454545454545457,45.18783870606444M25.454545454545457,45.11358237113495L25.454545454545457,45.04155248387633L25.454545454545457,46.14572742639757L25.454545454545457,47.129933160346155L25.454545454545457,50.18735866131988L25.454545454545457,47.53328726877331M25.454545454545457,50.95380065069995L25.454545454545457,49.04914459062297M25.454545454545457,49.85722288446752L25.454545454545457,51.56069802278569L25.454545454545457,53.649844991996474L25.454545454545457,52.19895576044412L25.454545454545457,53.549168552315706L25.454545454545457,52.656046619298095L25.454545454545457,54.68509829861814L25.454545454545457,58.703610391918815L25.454545454545457,60.67366749227405L25.454545454545457,61.0399259665504L25.454545454545457,62.095852753750904L25.454545454545457,60.871645003791L25.454545454545457,59.93366571562851L25.454545454545457,60.907722995604175L25.454545454545457,62.92862260011256L25.454545454545457,65.76021058599373L25.454545454545457,64.37476929995901L50.909090909090914,65.2476655493414L50.909090909090914,43.21866377017048L50.909090909090914,42.467115070619656L50.909090909090914,39.72258067151989L50.909090909090914,40.872688682974314L50.909090909090914,41.38039655360882L50.909090909090914,43.80001261305651L50.909090909090914,44.232534273901905L50.909090909090914,46.368775191159074L50.909090909090914,48.94228584802639M50.909090909090914,49.407640696261694L50.909090909090914,50.87098504321801L50.909090909090914,51.829426725453885L50.909090909090914,54.35021222162547L50.909090909090914,56.831744751594286L50.909090909090914,56.65639354212469L50.909090909090914,58.09819568092901L50.909090909090914,60.0760232508989L50.909090909090914,62.14966645649632L50.909090909090914,63.91904086659078L50.909090909090914,65.03388645995811L50.909090909090914,65.42071915226609L50.909090909090914,65.27225743135097L50.909090909090914,65.68174970562062L50.909090909090914,67.55502309577915M50.909090909090914,68.81366274180678ZM50.909090909090914,71.53104335684466ZM50.909090909090914,72.6032570819778ZM50.909090909090914,74.2854432453292L50.909090909090914,77.23402468270717L50.909090909090914,79.55309992401764L50.909090909090914,81.61148932017402L50.909090909090914,80.59194783640804L50.909090909090914,81.7260563955795L50.909090909090914,84.06249032289207L50.909090909090914,82.64894491090584L50.909090909090914,83.64123215584847L50.909090909090914,85.52999722087071L50.909090909090914,86.22113887729704L50.909090909090914,85.39602642405164L50.909090909090914,86.52504111036647L50.909090909090914,87.96108591948466L50.909090909090914,88.72713345595974L50.909090909090914,92.081788912612L50.909090909090914,92.41186027575169L50.909090909090914,95.68227767184742L50.909090909090914,96.21384742030983L50.909090909090914,96.92398922639056L50.909090909090914,98.77638419033713L50.909090909090914,97.43170230491171L50.909090909090914,97.55118562397423M50.909090909090914,97.20278498746485L50.909090909090914,89.04451302938533L50.909090909090914,94.51166195657062L50.909090909090914,93.44165369869927L50.909090909090914,91.43004313355013L50.909090909090914,93.27463319077678L50.909090909090914,93.80388033672551L50.909090909090914,93.17221551178888L50.909090909090914,98.2331861644694L50.909090909090914,90.08273006368707L50.909090909090914,89.78102371128718L50.909090909090914,94.87745729432244L50.909090909090914,87.34813284349238L50.909090909090914,84.87265814980034L50.909090909090914,86.96651215504477L50.909090909090914,91.97471197561771L50.909090909090914,92.5923485007287L50.909090909090914,94.59438133865426L50.909090909090914,92.17992845507028L50.909090909090914,91.27689545214693L50.909090909090914,91.97746185239005L50.909090909090914,91.85970498527726M50.909090909090914,91.74926639329634L50.909090909090914,92.37021978063093L50.909090909090914,94.9144644419938L50.909090909090914,93.39456334894282L50.909090909090914,96.85651963794236L50.909090909090914,99.24707301015707L50.909090909090914,101.98487977056328L50.909090909090914,96.50640441360713L50.909090909090914,96.01150558727365L50.909090909090914,98.33139234307458L50.909090909090914,96.96133977557892L50.909090909090914,95.95538131605618L50.909090909090914,91.84801452661952L50.909090909090914,94.51372878185036L50.909090909090914,96.45665406120803L50.909090909090914,99.9330455181795L50.909090909090914,101.53607143837955L50.909090909090914,102.0592532362613L76.36363636363636,36.67141255316071L76.36363636363636,40.97681763020205L76.36363636363636,42.21506798434595L76.36363636363636,43.08725680638L76.36363636363636,45.241573504055424L76.36363636363636,48.81598682353413M76.36363636363636,47.24861146402472L76.36363636363636,50.4844985911606L76.36363636363636,57.80931617009004L76.36363636363636,56.57430085704992L76.36363636363636,57.01745975210268L76.36363636363636,56.310635768949126L76.36363636363636,63.403140435470846L76.36363636363636,67.56738358070359L76.36363636363636,70.64093891983333L76.36363636363636,66.8085056871697L76.36363636363636,66.25960713545932L76.36363636363636,71.3635002359959L76.36363636363636,70.00722675392298L76.36363636363636,67.89808604473849L76.36363636363636,67.1626080248383L76.36363636363636,66.82187187772281L76.36363636363636,68.35647394563098L76.36363636363636,68.729401243498L76.36363636363636,69.45261021124269L76.36363636363636,69.69481475122535L76.36363636363636,77.46524911932448L76.36363636363636,74.82205301015175L76.36363636363636,73.57670773873994L76.36363636363636,72.84295307262097L76.36363636363636,81.09338229009106L76.36363636363636,77.22920669445679L76.36363636363636,75.64848741008909L76.36363636363636,82.62477592538708L76.36363636363636,88.90007358748251L76.36363636363636,92.95415114124L76.36363636363636,96.49074930130926L76.36363636363636,87.27707730635989L76.36363636363636,83.86013091254698L76.36363636363636,82.40561003690266L76.36363636363636,81.31124639246129L76.36363636363636,81.33019675483204L76.36363636363636,82.26115124781728L76.36363636363636,83.43998113822276L76.36363636363636,92.24813780186936L76.36363636363636,91.47178388470746L76.36363636363636,87.27018176885926L76.36363636363636,93.49798393928687L76.36363636363636,96.31267336518025L76.36363636363636,94.1018347030463L76.36363636363636,98.35693253759479L76.36363636363636,103.98607765521116L76.36363636363636,108.92825498664965L76.36363636363636,107.04077929229423L76.36363636363636,107.58610436671455M76.36363636363636,110.0756666315786ZM76.36363636363636,110.44843759873831L76.36363636363636,108.09061431181213L76.36363636363636,112.2641236926469L76.36363636363636,114.60716088308877L76.36363636363636,115.51236110825181L76.36363636363636,104.23313472213171L76.36363636363636,108.64980657132705M76.36363636363636,112.2452808299719L76.36363636363636,116.85413609657965L76.36363636363636,117.96915998817364L76.36363636363636,106.78746768411443L76.36363636363636,113.22345141892278L76.36363636363636,117.3794078838246L76.36363636363636,119.85551356134904L76.36363636363636,123.33138068127536L76.36363636363636,122.63460463132068L76.36363636363636,123.47404141017441M76.36363636363636,112.10408655524365L76.36363636363636,119.35980519972146L76.36363636363636,123.39606152307331L76.36363636363636,126.07510027718993L76.36363636363636,127.25024372040531L76.36363636363636,131.19306497550403L76.36363636363636,124.19796352419266L76.36363636363636,126.54271105611912L76.36363636363636,127.87474911019268L76.36363636363636,128.8729647404685L76.36363636363636,133.32339324421005M76.36363636363636,136.1829792215214L76.36363636363636,134.9866264484849L76.36363636363636,135.0771294455762L76.36363636363636,138.1079211206052L76.36363636363636,139.3676453888764L101.81818181818183,134.3199677959264L101.81818181818183,42.74102505574376L101.81818181818183,54.92755169010552L101.81818181818183,55.951870171542595L101.81818181818183,61.289951986049246L101.81818181818183,56.27926120110146L101.81818181818183,57.5436992458456L101.81818181818183,62.87610734461717L101.81818181818183,67.72638177679977L101.81818181818183,65.58040990299696L101.81818181818183,68.30127459038339L101.81818181818183,72.04626789380062L101.81818181818183,73.0446708341088L101.81818181818183,73.16220734510415L101.81818181818183,81.67576091334243L101.81818181818183,77.57801758568775L101.81818181818183,74.5779263697494L101.81818181818183,76.95125571180228L101.81818181818183,75.27622715753188L101.81818181818183,80.94405411904539M101.81818181818183,86.72746938349086L101.81818181818183,91.4102565368404L101.81818181818183,85.90481150238514L101.81818181818183,84.55931460005358L101.81818181818183,84.1736528755295M101.81818181818183,89.19224184135129L101.81818181818183,86.00662438807753L101.81818181818183,84.65361811535725L101.81818181818183,83.86827807057011L101.81818181818183,84.90551979779052L101.81818181818183,85.2268488587399L101.81818181818183,85.92366601260595L101.81818181818183,87.39802323758887M101.81818181818183,88.7137324904343L101.81818181818183,95.3668526013235L101.81818181818183,91.45330063870583L101.81818181818183,90.67942577240628L101.81818181818183,99.0065369147734L101.81818181818183,106.259109822925L101.81818181818183,100.4980842132025L101.81818181818183,98.42861413866034L101.81818181818183,97.13334503268472L101.81818181818183,97.00612100618966L101.81818181818183,97.65257402895595L101.81818181818183,95.83082129692367L101.81818181818183,95.81767583916758L101.81818181818183,99.5367171620307L101.81818181818183,104.23777646142311L101.81818181818183,109.73429456978862L101.81818181818183,113.72719452038288L101.81818181818183,112.87585082301635M101.81818181818183,117.95295352580763L101.81818181818183,118.18731396268564L101.81818181818183,119.59389543939227L101.81818181818183,123.85926605645388L101.81818181818183,124.45117885322303L101.81818181818183,125.52770711608534L101.81818181818183,127.56772682658459M101.81818181818183,126.00900725762428L101.81818181818183,125.09480843015879L101.81818181818183,127.93176318430085L101.81818181818183,128.23536996621618L101.81818181818183,132.79470395066727L101.81818181818183,135.22249240102866L101.81818181818183,132.79301476685788L101.81818181818183,132.6851681303665L101.81818181818183,129.74117987178406L101.81818181818183,133.69347459923222L101.81818181818183,136.79937758432834L101.81818181818183,138.77366668651257L101.81818181818183,133.95578863749427L101.81818181818183,135.8864781246178L101.81818181818183,132.7292229757153L101.81818181818183,132.5084191048815M101.81818181818183,132.41200943186618L101.81818181818183,133.1641692038836L101.81818181818183,136.98425964772872L101.81818181818183,137.41634558036458L101.81818181818183,138.29777164229418L101.81818181818183,139.0184580960685L101.81818181818183,139.44795316673282M101.81818181818183,142.37693019167207L101.81818181818183,141.61081092290772L101.81818181818183,141.10394172504957L101.81818181818183,143.72559637541985L101.81818181818183,142.67862138285415L101.81818181818183,140.43292936922262L101.81818181818183,142.94654637864943M101.81818181818183,145.76897617616518L101.81818181818183,142.0941315483143L101.81818181818183,144.9033954800186L101.81818181818183,146.8687768051174L101.81818181818183,149.96634013074575L101.81818181818183,148.57442064540757L127.27272727272727,144.57664231404868M127.27272727272727,58.97683302800563L127.27272727272727,69.12979545733961L127.27272727272727,64.85119801511831M127.27272727272727,55.261972576595724L127.27272727272727,56.27464169957602L127.27272727272727,63.86018993814791L127.27272727272727,68.51730847921034L127.27272727272727,68.36356145299096L127.27272727272727,70.95549851825807L127.27272727272727,76.55247905541437L127.27272727272727,80.41498940065385L127.27272727272727,81.95915635290912L127.27272727272727,84.90418557793484L127.27272727272727,89.3139597678852L127.27272727272727,92.24511944180453L127.27272727272727,97.66422534474077L127.27272727272727,97.14618208468185L127.27272727272727,101.15632885080659L127.27272727272727,99.73388653064893L127.27272727272727,98.11437281863367L127.27272727272727,97.94586434949953M127.27272727272727,102.03328177610601L127.27272727272727,107.27933801239745L127.27272727272727,106.65558240947061L127.27272727272727,106.839673203109L127.27272727272727,108.82009201511408M127.27272727272727,112.17333038286984L127.27272727272727,114.22160519542746M127.27272727272727,116.94726792785738L127.27272727272727,116.67839562301693M127.27272727272727,120.55861655501957L127.27272727272727,120.12656429579016L127.27272727272727,119.86463935524759L127.27272727272727,122.91320323925223L127.27272727272727,127.16607657637691L127.27272727272727,128.1386453190446L127.27272727272727,129.59157856013616L127.27272727272727,126.29522647601559L127.27272727272727,127.5589318357961L127.27272727272727,130.59840877537874M127.27272727272727,128.53613762645304L127.27272727272727,126.66903946220287L127.27272727272727,130.08186376148134L127.27272727272727,133.31755998727147L127.27272727272727,132.32339308477341L127.27272727272727,132.6745327937504L127.27272727272727,132.66916923413174L127.27272727272727,136.13355848523548L127.27272727272727,136.42752033435806L127.27272727272727,136.81821921827736L127.27272727272727,138.5284335109614L127.27272727272727,142.71548885833818L127.27272727272727,130.34286066941638L127.27272727272727,132.69985533584622L127.27272727272727,136.89991927627977L127.27272727272727,138.5795725076944L127.27272727272727,140.727635117308L127.27272727272727,144.48998052280822L127.27272727272727,146.26229119309775L127.27272727272727,146.42588874316897L127.27272727272727,149.77843117973757L127.27272727272727,150.62527525199255L127.27272727272727,148.41028509129535L127.27272727272727,145.83020743946958L127.27272727272727,138.26679932063203L127.27272727272727,141.82686352291424M127.27272727272727,143.9142445331335L127.27272727272727,148.0189251071156M127.27272727272727,148.68928768882068L127.27272727272727,149.26347219013047L127.27272727272727,146.58665233074203M127.27272727272727,148.2225725578613L127.27272727272727,153.19080906544713L127.27272727272727,152.06110820654888L127.27272727272727,152.3580767301189L127.27272727272727,152.96663867261574L127.27272727272727,152.8306502712577L127.27272727272727,152.91159837396557L127.27272727272727,152.55448079153925L127.27272727272727,152.70765746318762L127.27272727272727,153.6171519711831L127.27272727272727,154.80150418484777M127.27272727272727,153.76720464051454L127.27272727272727,153.78555302637764L127.27272727272727,154.6569381752622L127.27272727272727,156.13403327512958L127.27272727272727,160.26378999372037L152.72727272727272,160.1526414737081L152.72727272727272,93.68645511943859L152.72727272727272,81.43306153994476L152.72727272727272,79.07402999757524L152.72727272727272,82.93238977950949L152.72727272727272,87.11320766153952L152.72727272727272,88.37612357340315L152.72727272727272,87.96261634049807L152.72727272727272,88.17487361387619L152.72727272727272,91.01847350938172M152.72727272727272,96.12515817991668L152.72727272727272,96.25475308469808L152.72727272727272,100.98453830905451L152.72727272727272,103.24622007910385L152.72727272727272,104.31934574721826L152.72727272727272,106.28570655408637L152.72727272727272,108.81949516182587L152.72727272727272,112.03624484780963L152.72727272727272,115.00375794672263L152.72727272727272,118.32444730108709L152.72727272727272,120.59201651524094L152.72727272727272,119.00920825800848L152.72727272727272,118.5807476098021L152.72727272727272,118.40314798778249L152.72727272727272,122.85672326393802L152.72727272727272,122.23195088752709L152.72727272727272,121.76374673671202L152.72727272727272,126.97427673116273L152.72727272727272,119.55754438810561L152.72727272727272,121.74324196088943L152.72727272727272,125.36209186935804L152.72727272727272,130.47652796649157L152.72727272727272,132.83408751250977L152.72727272727272,134.3130186398424L152.72727272727272,131.91235785924846L152.72727272727272,130.78318509345144L152.72727272727272,135.53983357891818L152.72727272727272,137.2644722165713L152.72727272727272,126.48803223104875L152.72727272727272,129.8777388798975M152.72727272727272,132.9056421164482L152.72727272727272,138.51864520967152L152.72727272727272,143.11326219061976L152.72727272727272,138.48648041380636L152.72727272727272,136.60119720227095M152.72727272727272,140.68805259264212L152.72727272727272,138.8862248313756M152.72727272727272,139.3514996206105L152.72727272727272,138.91404746171042L152.72727272727272,141.11988751152603L152.72727272727272,142.11502534946123L152.72727272727272,144.27567817617404M152.72727272727272,144.65013793879464L152.72727272727272,143.24139290187577L152.72727272727272,147.8239236428513L152.72727272727272,151.12184836085737L152.72727272727272,144.33223024069753L152.72727272727272,149.05878157196395L152.72727272727272,148.4255267702763L152.72727272727272,146.5681217112533L152.72727272727272,148.6739935937814L152.72727272727272,151.1436811165903M152.72727272727272,151.33922224424626ZM152.72727272727272,135.81879064578197L152.72727272727272,142.44090178127232L152.72727272727272,150.02015981323765L152.72727272727272,150.5143682167807L152.72727272727272,155.80586360608018L152.72727272727272,157.6870048846507L152.72727272727272,138.6521219869234L152.72727272727272,147.39323047140437L152.72727272727272,151.7067419127983L152.72727272727272,155.51409399387958L152.72727272727272,158.32090064269735M152.72727272727272,160.6123935582589L152.72727272727272,156.237391209458M152.72727272727272,157.34261959575392L152.72727272727272,164.719254325172L152.72727272727272,169.2741622595398L152.72727272727272,171.49185584354802L152.72727272727272,169.50818560717062L152.72727272727272,168.43830449639015L152.72727272727272,172.6197459116599M152.72727272727272,175.0642657184068L152.72727272727272,177.24555177813212M178.1818181818182,67.07880765306098L178.1818181818182,70.60614794480048L178.1818181818182,65.68496557507486L178.1818181818182,57.89352746535796L178.1818181818182,58.39818945974517L178.1818181818182,61.69468999539487M178.1818181818182,62.768785803021444L178.1818181818182,65.6726960346836L178.1818181818182,74.72765099122375L178.1818181818182,77.2598769254784M178.1818181818182,83.21314779197853L178.1818181818182,87.8005726163161L178.1818181818182,92.81749062330698L178.1818181818182,96.49180420386351L178.1818181818182,101.63185876612943L178.1818181818182,103.63735362034733L178.1818181818182,105.92936156929089L178.1818181818182,110.22307451822446L178.1818181818182,96.34394139842678L178.1818181818182,104.95197986770192L178.1818181818182,105.06151615537823L178.1818181818182,111.58781486705172L178.1818181818182,110.9558136052066L178.1818181818182,111.2193279363576L178.1818181818182,116.51073442075901L178.1818181818182,121.31993027774334L178.1818181818182,115.20064357021568L178.1818181818182,113.45075115927993L178.1818181818182,104.92677589459514L178.1818181818182,110.36616630405051L178.1818181818182,115.76445670399474L178.1818181818182,122.98109618618989L178.1818181818182,127.04373466608124L178.1818181818182,127.41031739818341L178.1818181818182,130.89273832287705M178.1818181818182,124.95312076270973L178.1818181818182,122.71093256752305L178.1818181818182,129.80677661205402M178.1818181818182,102.93903086332071L178.1818181818182,113.26549694475091L178.1818181818182,118.90196513205238L178.1818181818182,122.40740723578256L178.1818181818182,124.19196848583093L178.1818181818182,125.74621563120193L178.1818181818182,118.91361674159783L178.1818181818182,118.66778472242088L178.1818181818182,119.17349250716012L178.1818181818182,126.66281381821176L178.1818181818182,131.84195392006058L178.1818181818182,135.26275428825295L178.1818181818182,141.43368958344618L178.1818181818182,144.69275816888904L178.1818181818182,141.47268224956701L178.1818181818182,139.96877193700416L178.1818181818182,141.7977473769351L178.1818181818182,143.7254705889045L178.1818181818182,145.25000391860522L178.1818181818182,127.4160654400532L178.1818181818182,136.379512859616L178.1818181818182,141.5082034760643L178.1818181818182,145.03180907994567L178.1818181818182,147.6981787464324M178.1818181818182,149.59280238649097L178.1818181818182,150.4562078393601L178.1818181818182,152.16774579018127L178.1818181818182,153.8716971025605L178.1818181818182,154.121943699259L178.1818181818182,158.3709352700035L178.1818181818182,157.44235439544283M178.1818181818182,161.92880147228442L178.1818181818182,160.53219415545556L178.1818181818182,139.3855146360669M178.1818181818182,146.2615846478765L178.1818181818182,153.38180555285567L178.1818181818182,138.31448611505624L178.1818181818182,147.71526794362782L178.1818181818182,155.70129305970352M178.1818181818182,158.96933071148757L178.1818181818182,160.61122500940849L178.1818181818182,162.83196703247316L178.1818181818182,165.18525189653937L178.1818181818182,165.46523492205486L178.1818181818182,164.32154027262342M178.1818181818182,164.95665360649988L178.1818181818182,165.8790111432162L178.1818181818182,169.3040754144648L178.1818181818182,173.17612920841432L178.1818181818182,169.8482491509677M203.63636363636365,169.6742837005529L203.63636363636365,46.536079721734836L203.63636363636365,57.96397896447233L203.63636363636365,51.14913315130306M203.63636363636365,56.08720343098807L203.63636363636365,66.33967233947902L203.63636363636365,71.5775489276336L203.63636363636365,76.26728007004301L203.63636363636365,80.04315705647416L203.63636363636365,80.74460384065918L203.63636363636365,81.74025508024694L203.63636363636365,83.38631419883355L203.63636363636365,83.22375779747011L203.63636363636365,87.35153641535794L203.63636363636365,88.25329323614835L203.63636363636365,89.77982237621568M203.63636363636365,96.22398589897108L203.63636363636365,98.59641562202043L203.63636363636365,99.84091299875944L203.63636363636365,105.45044157535575L203.63636363636365,110.31102036096327L203.63636363636365,110.25460112685151L203.63636363636365,113.54631700626757L203.63636363636365,113.74874947238584L203.63636363636365,112.75321733830691L203.63636363636365,108.80245203870012L203.63636363636365,108.8571404967826M203.63636363636365,110.18115616084546L203.63636363636365,112.25437201575207M203.63636363636365,110.92855160069179ZM203.63636363636365,114.53122004257665L203.63636363636365,113.86163768592357L203.63636363636365,121.4307821413473L203.63636363636365,118.76744849247802L203.63636363636365,123.56694541864692L203.63636363636365,124.5028860204599L203.63636363636365,126.38501477967384L203.63636363636365,129.9995835602327L203.63636363636365,131.37702393082452L203.63636363636365,131.43099340772392L203.63636363636365,131.7540640797004L203.63636363636365,131.6640706788541L203.63636363636365,133.92530968977232L203.63636363636365,137.96101055506887L203.63636363636365,142.25370249257236M203.63636363636365,142.1094963540942L203.63636363636365,145.42886009667995L203.63636363636365,144.64335788463393L203.63636363636365,143.14041901493363L203.63636363636365,143.41178419011862L203.63636363636365,145.0367339756516L203.63636363636365,149.02854386889882L203.63636363636365,151.73287509670376L203.63636363636365,151.60372548128012L203.63636363636365,150.40146343588003M203.63636363636365,150.91963502096263L203.63636363636365,153.77651909836692L203.63636363636365,153.82060129005202L203.63636363636365,151.89279494658888L203.63636363636365,152.75088143402806M203.63636363636365,153.38229863073556L203.63636363636365,157.63167091489427L203.63636363636365,157.390551757241L203.63636363636365,156.35901760042685L203.63636363636365,156.72217516156283L203.63636363636365,157.6713167816749L203.63636363636365,160.87345639109498L203.63636363636365,161.10269483104582L203.63636363636365,161.17378017401745L203.63636363636365,161.03572273110507L203.63636363636365,159.8733482677743L203.63636363636365,161.12062852227197L203.63636363636365,163.64327614957918L203.63636363636365,166.95743779152184M203.63636363636365,166.11105728084618L203.63636363636365,165.75918552534503L203.63636363636365,164.54543654626292L203.63636363636365,169.29424832686334M203.63636363636365,166.08447616501658L203.63636363636365,165.84545726063888L203.63636363636365,170.51118680855947M203.63636363636365,167.80781054908852L203.63636363636365,167.9835110414165L203.63636363636365,170.9827214953154M203.63636363636365,174.0233826803303ZM203.63636363636365,175.8084240551176L203.63636363636365,171.43705692233462L203.63636363636365,172.97248395347333M229.0909090909091,175.29342982382903L229.0909090909091,50.29366449764548L229.0909090909091,63.19562150367173M229.0909090909091,65.31780553443785L229.0909090909091,62.68048142147843L229.0909090909091,62.20308052877735L229.0909090909091,65.7011151109641M229.0909090909091,73.3555199036222ZM229.0909090909091,79.0658789124212L229.0909090909091,86.12524509175995M229.0909090909091,93.45455035554282L229.0909090909091,100.33525879026779L229.0909090909091,103.83004211858045M229.0909090909091,107.74518513490679ZM229.0909090909091,116.03766469307402ZM229.0909090909091,118.42584534033338L229.0909090909091,121.43877052970463L229.0909090909091,124.2578351486317L229.0909090909091,124.0605162332086L229.0909090909091,128.16939800271135L229.0909090909091,133.00401689837815L229.0909090909091,130.05375331289557L229.0909090909091,132.24220314555438L229.0909090909091,130.86497115571066L229.0909090909091,129.5970152129094L229.0909090909091,130.5906042288944L229.0909090909091,130.55728161496134M229.0909090909091,134.54207482179322L229.0909090909091,135.29225468535577L229.0909090909091,139.13681526470486L229.0909090909091,137.69878614782817L229.0909090909091,140.66093383510616L229.0909090909091,139.31108104355093L229.0909090909091,142.8194577225421L229.0909090909091,143.6157876711518M229.0909090909091,144.810707010605L229.0909090909091,139.80459882381487L229.0909090909091,143.62697681937738L229.0909090909091,144.09063169061267L229.0909090909091,143.53748487983052L229.0909090909091,147.19109606451855L229.0909090909091,145.50814800836022M229.0909090909091,150.97933517848196L229.0909090909091,151.9662038369397L229.0909090909091,151.59117104579565L229.0909090909091,154.9150922326966L229.0909090909091,156.96922778397982L229.0909090909091,159.25304436123102L229.0909090909091,162.24619231849115L229.0909090909091,161.75073942221186L229.0909090909091,143.72258107780144L229.0909090909091,150.68001507914036L229.0909090909091,153.6970634527156L229.0909090909091,153.26794334387566L229.0909090909091,151.95963933988128L229.0909090909091,157.51552364005883M229.0909090909091,157.85278125128102L229.0909090909091,148.3779370318089L229.0909090909091,139.5706042214579L229.0909090909091,149.22614977815084L229.0909090909091,151.47883337733467L229.0909090909091,157.57459836292693L229.0909090909091,150.64957266390076L229.0909090909091,151.14584022931905M229.0909090909091,154.41748301093236ZM229.0909090909091,156.9808777944526L229.0909090909091,151.97921600997634L229.0909090909091,152.2618448037002L229.0909090909091,158.56880973784246L229.0909090909091,164.92179554562793L229.0909090909091,161.38841317257507L229.0909090909091,159.34061214802483M229.0909090909091,162.47350553469212L229.0909090909091,163.95104384660561L229.0909090909091,166.09442737262307L229.0909090909091,170.45704658357838L229.0909090909091,169.19633532592778L229.0909090909091,166.39759702531998M229.0909090909091,170.72095581938916ZM229.0909090909091,171.4503267428586ZM254.54545454545453,172.75402155593054L254.54545454545453,152.53489118423647L254.54545454545453,126.8529247045353L254.54545454545453,103.59791515032656L254.54545454545453,102.75670147762966L254.54545454545453,91.01849883541163L254.54545454545453,99.60678096837935L254.54545454545453,99.30614283787033L254.54545454545453,101.90432938987213M254.54545454545453,102.76130258301204L254.54545454545453,97.93669419613738L254.54545454545453,103.71425182359363L254.54545454545453,108.76282576836061L254.54545454545453,100.21348429188389L254.54545454545453,96.8705873112044L254.54545454545453,98.03949488500788L254.54545454545453,100.87398592898191L254.54545454545453,103.01543324764792L254.54545454545453,106.65278165680986L254.54545454545453,115.66776288632752L254.54545454545453,124.88505824670332L254.54545454545453,120.59248135890606M254.54545454545453,127.888270179225L254.54545454545453,126.1658398714975L254.54545454545453,132.7000046573913L254.54545454545453,129.45438717782304L254.54545454545453,124.66960225062806L254.54545454545453,127.69444249060149L254.54545454545453,130.30074329746378M254.54545454545453,133.53625068890867L254.54545454545453,139.08455866943046M254.54545454545453,144.45939481280197L254.54545454545453,143.02712475441552L254.54545454545453,141.82122220120397L254.54545454545453,141.68815913251407L254.54545454545453,147.72213843140233L254.54545454545453,147.80381576933513L254.54545454545453,147.08291837931446L254.54545454545453,148.5986393277505L254.54545454545453,149.34248558298995M254.54545454545453,155.50830300121837L254.54545454545453,155.31900962884828L254.54545454545453,160.8418632305455L254.54545454545453,159.0400093302991L254.54545454545453,163.15207922029634L254.54545454545453,163.06868803136703L254.54545454545453,164.13954419850572L254.54545454545453,163.2351561894992L254.54545454545453,162.36957985488323L254.54545454545453,163.3890169821983L254.54545454545453,164.4273607128464L254.54545454545453,168.91791044678834L254.54545454545453,167.69990619578851L254.54545454545453,172.99066283894396L254.54545454545453,170.88470515350264L254.54545454545453,173.6320460942729L254.54545454545453,172.52195666937718L254.54545454545453,177.00302127573514L254.54545454545453,179.81588755031544L254.54545454545453,180.84023105981393L254.54545454545453,176.27106093462604M254.54545454545453,174.850650758744L254.54545454545453,173.50552374814043L254.54545454545453,174.10982144464396L254.54545454545453,174.43130357436084L254.54545454545453,175.17825568271297L254.54545454545453,175.49763799353016L254.54545454545453,176.02068896540067L254.54545454545453,181.27237707503923L254.54545454545453,178.45859516617273L254.54545454545453,177.78535044738854L254.54545454545453,183.00383938550942" style="fill: none;" fill="none"></path></g></g></g></g><g opacity="0.2"><g><g><g><path stroke="rgb(255, 112, 67)" stroke-width="2px" d="M25.454545454545457,-2.6609694987823502L25.454545454545457,2.00967227500729L25.454545454545457,-5.874305845393252L25.454545454545457,8.087267617496593L25.454545454545457,-5.418993030837385L25.454545454545457,1.1580382868326922L25.454545454545457,-1.3729433847880443L25.454545454545457,-2.001366931426105L25.454545454545457,4.12942815693475M25.454545454545457,4.754452562720132L25.454545454545457,11.654314364817765L25.454545454545457,11.30430121098064L25.454545454545457,12.41310251456872L25.454545454545457,14.32297981368697M25.454545454545457,14.394058057497773L25.454545454545457,20.405827440516532M25.454545454545457,19.906020084569747ZM25.454545454545457,18.835872612236585L25.454545454545457,23.392892874596413L25.454545454545457,20.83882048827627L25.454545454545457,30.62296694599425L25.454545454545457,20.594106725285684L25.454545454545457,27.33990104930379L25.454545454545457,28.720584391271473L25.454545454545457,25.430807814625894L25.454545454545457,24.258197453395354L25.454545454545457,25.8002507938931L25.454545454545457,27.068629014549288L25.454545454545457,28.408643112612538L25.454545454545457,30.700189364602778L25.454545454545457,34.76786077917561L25.454545454545457,31.718209013978395L25.454545454545457,35.677435763972625L25.454545454545457,36.422224636818356L25.454545454545457,35.74096055815562L25.454545454545457,35.24188785585835L25.454545454545457,37.02832374671948L25.454545454545457,38.70136699549656L25.454545454545457,41.62004917158521L25.454545454545457,39.21302363309104M25.454545454545457,43.26944652308751ZM25.454545454545457,44.492048142247285L25.454545454545457,43.43717217447826L25.454545454545457,42.628430298828874M25.454545454545457,44.88204719422703L25.454545454545457,45.99563063450418L25.454545454545457,43.791616665053084L25.454545454545457,44.417792982995906L25.454545454545457,47.54025059984971L25.454545454545457,46.7952764474735L25.454545454545457,49.556217223112384L25.454545454545457,49.948623318938814M25.454545454545457,49.536769623159415L25.454545454545457,48.71617410869368L25.454545454545457,49.864560013642546L25.454545454545457,41.174467044502194L25.454545454545457,51.78238266097853L25.454545454545457,41.282571238849386M25.454545454545457,45.00249270361675L25.454545454545457,44.933785096167156L25.454545454545457,47.87025220054636L25.454545454545457,48.660216455327884L25.454545454545457,55.34188369318542L25.454545454545457,43.89548049181096M25.454545454545457,56.807665159005L25.454545454545457,46.37359837333571M25.454545454545457,51.10547158085703L25.454545454545457,54.28240140378084L25.454545454545457,57.038047567756095L25.454545454545457,50.129612163055924L25.454545454545457,55.67758065485961L25.454545454545457,51.35773177438904L25.454545454545457,57.96812066307456L25.454545454545457,65.75732829191593L25.454545454545457,63.853917863278156L25.454545454545457,61.59660878445615L25.454545454545457,63.74204928278705L25.454545454545457,59.11212677548238L25.454545454545457,58.57224979392737L25.454545454545457,62.42165482837811L25.454545454545457,66.19741523930739L25.454545454545457,70.49027276173265L25.454545454545457,62.3943918443679L50.909090909090914,66.5992785386959L50.909090909090914,24.641346625007742L50.909090909090914,41.36923741390271L50.909090909090914,35.971754417028535L50.909090909090914,42.6720474911333L50.909090909090914,42.156053664892596L50.909090909090914,47.77563355997785L50.909090909090914,44.891516522351566L50.909090909090914,49.83975131817692L50.909090909090914,53.19679517777355M50.909090909090914,50.11749515410034L50.909090909090914,53.187654051139475L50.909090909090914,53.31822247041251L50.909090909090914,58.508783684895434L50.909090909090914,60.919156237320806L50.909090909090914,56.395004542582186L50.909090909090914,60.3788920616055L50.909090909090914,63.2697830704079L50.909090909090914,65.51068636148746L50.909090909090914,66.75321517099609L50.909090909090914,66.77577279499035L50.909090909090914,66.00911240743517L50.909090909090914,65.05074006738121L50.909090909090914,66.30512244586518L50.909090909090914,70.56769488774192M50.909090909090914,70.79087332563101ZM50.909090909090914,76.04942688554509ZM50.909090909090914,74.27586287375107ZM50.909090909090914,76.9709348569788L50.909090909090914,82.18299107104629L50.909090909090914,83.3483700988849L50.909090909090914,84.94579715099333L50.909090909090914,79.11629522419709L50.909090909090914,83.49931959637988L50.909090909090914,87.88879529726711L50.909090909090914,80.63031619831813L50.909090909090914,85.1845454667161L50.909090909090914,88.56940741409718L50.909090909090914,87.28416038016867L50.909090909090914,84.19375369219281L50.909090909090914,88.29000263472433L50.909090909090914,90.23217833692847L50.909090909090914,89.90862120819627L50.909090909090914,97.80721925382407L50.909090909090914,92.9128837945166L50.909090909090914,101.24446396516701L50.909090909090914,97.02666783039498L50.909090909090914,98.01699815853395L50.909090909090914,101.75307115311793L50.909090909090914,95.50692985606487L50.909090909090914,97.73117962335938M50.909090909090914,96.68660755692717L50.909090909090914,79.54532754394951L50.909090909090914,104.75125989585956L50.909090909090914,91.89563619389045L50.909090909090914,88.61425788031573L50.909090909090914,96.23788308973621L50.909090909090914,94.61308059647914L50.909090909090914,92.24561127796275L50.909090909090914,107.53622075740812L50.909090909090914,80.59062166146167L50.909090909090914,89.33328972699766L50.909090909090914,104.26084196599562L50.909090909090914,78.42824760914509L50.909090909090914,81.45992568213532L50.909090909090914,90.36297412362109L50.909090909090914,101.15867195642018L50.909090909090914,93.53975316244504L50.909090909090914,97.83027628987753L50.909090909090914,88.8446965502435L50.909090909090914,89.96462187856736L50.909090909090914,93.05535292594054L50.909090909090914,91.68380991533361M50.909090909090914,91.58425976907309L50.909090909090914,93.32282810883729L50.909090909090914,99.11567147037191L50.909090909090914,91.23183304373315L50.909090909090914,102.79157197803033L50.909090909090914,103.17041211841016L50.909090909090914,106.54097768928675L50.909090909090914,89.624102547856L50.909090909090914,95.28204780347787L50.909090909090914,102.12811243081188L50.909090909090914,95.00193799679094L50.909090909090914,94.4987088510677L50.909090909090914,86.47057248488247L50.909090909090914,98.93699580701224L50.909090909090914,99.58979844493888L50.909090909090914,105.8964437318273L50.909090909090914,104.08743477228624L50.909090909090914,102.85900257397358L76.36363636363636,8.024307602039727L76.36363636363636,48.62870012241149L76.36363636363636,44.15875517781129L76.36363636363636,44.43773898440972L76.36363636363636,48.74440188254172L76.36363636363636,54.97278927320366M76.36363636363636,45.021890155452894L76.36363636363636,55.98010172247888L76.36363636363636,72.84833141979466L76.36363636363636,54.7999026755397L76.36363636363636,57.69291015035509L76.36363636363636,55.27648789028245L76.36363636363636,77.78988895944526L76.36363636363636,74.92305481068215L76.36363636363636,75.8260838826413L76.36363636363636,61.74816171676851L76.36363636363636,65.45208439910903L76.36363636363636,80.76382021922447L76.36363636363636,68.0666251574301L76.36363636363636,64.95527872394625L76.36363636363636,66.08760728227763L76.36363636363636,66.3169134348626L76.36363636363636,70.79255688181918L76.36363636363636,69.29635733021354L76.36363636363636,70.56626709948077L76.36363636363636,70.06129651472253L76.36363636363636,93.80331031012338L76.36363636363636,71.19787757920601L76.36363636363636,71.78809738600698L76.36363636363636,71.77040706980767L76.36363636363636,98.90670606841768L76.36363636363636,72.131977212447L76.36363636363636,73.40381637917618L76.36363636363636,96.69132605237571L76.36363636363636,101.11621124534382L76.36363636363636,100.0812043767561L76.36363636363636,102.57274863041364L76.36363636363636,76.84917221894872L76.36363636363636,79.28936220908433L76.36363636363636,80.33134128316983L76.36363636363636,79.73135745368579L76.36363636363636,81.35864156868601L76.36363636363636,83.70577252717415L76.36363636363636,85.28626516530613L76.36363636363636,111.88523236543617L76.36363636363636,90.33864549312779L76.36363636363636,81.78527873181774L76.36363636363636,105.59351705846836L76.36363636363636,101.01129017777153L76.36363636363636,91.02744148375132L76.36363636363636,105.90282601563361L76.36363636363636,114.60943728849543L76.36363636363636,117.9640587708077L76.36363636363636,104.38785265785907L76.36363636363636,108.42037728822187M76.36363636363636,114.17761659927584ZM76.36363636363636,111.01515280228236L76.36363636363636,104.8275801278255L76.36363636363636,119.63912572168013L76.36363636363636,118.4452828135764L76.36363636363636,116.91567490700335L76.36363636363636,92.13039181200972L76.36363636363636,116.53780383716949M76.36363636363636,118.44384910539094L76.36363636363636,125.15555222185682L76.36363636363636,119.71133653955502L76.36363636363636,94.75987242820186L76.36363636363636,125.85196201260268L76.36363636363636,124.71780520052147L76.36363636363636,123.93310460508053L76.36363636363636,129.2937486640229L76.36363636363636,121.61480162084513L76.36363636363636,124.77223497082528M76.36363636363636,99.93177159873102L76.36363636363636,134.20308168982234L76.36363636363636,130.48633915525164L76.36363636363636,130.52285919251244L76.36363636363636,129.09049922429477L76.36363636363636,138.09146654616939L76.36363636363636,115.78622341711363L76.36363636363636,130.38389476585218L76.36363636363636,129.97306829691348L76.36363636363636,130.42584153476187L76.36363636363636,141.2834900120802M76.36363636363636,140.96523676874835L76.36363636363636,133.26550966401234L76.36363636363636,135.21332466572898L76.36363636363636,143.21197553698084L76.36363636363636,141.34664072078945L101.81818181818183,127.89725796039633L101.81818181818183,12.264241593727576L101.81818181818183,89.26524899202758L101.81818181818183,57.546905715979776L101.81818181818183,71.22803416380128L101.81818181818183,49.89656000216556L101.81818181818183,59.53045280815785L101.81818181818183,72.80101993546684L101.81818181818183,76.55745402332131L101.81818181818183,62.589845687163574L101.81818181818183,72.82608659990397L101.81818181818183,78.54352046269037L101.81818181818183,74.5978498600714L101.81818181818183,73.3392562208405L101.81818181818183,100.33404526687457L101.81818181818183,72.21158457633368L101.81818181818183,70.51133962311829L101.81818181818183,80.8436672565401L101.81818181818183,72.9051513584549L101.81818181818183,91.65994100109889M101.81818181818183,97.721928658736L101.81818181818183,99.87263613863489L101.81818181818183,78.99412377446777L101.81818181818183,82.63342878202323L101.81818181818183,83.60302027383834M101.81818181818183,98.39959815867206L101.81818181818183,81.71400443682424L101.81818181818183,82.7174768688734L101.81818181818183,82.72238078993547L101.81818181818183,86.52145818540367L101.81818181818183,85.71444776884624L101.81818181818183,86.99564060206201L101.81818181818183,89.73310516610299M101.81818181818183,90.78505056839367L101.81818181818183,108.56353283318663L101.81818181818183,86.29883803204238L101.81818181818183,89.54980864019832L101.81818181818183,117.06335242721362L101.81818181818183,121.09351048263024L101.81818181818183,93.32060840638805L101.81818181818183,95.53737498125798L101.81818181818183,95.27618875231013L101.81818181818183,96.81614869443796L101.81818181818183,98.64522990613095L101.81818181818183,93.26466342556854L101.81818181818183,95.79796691386086L101.81818181818183,105.98185195525168L101.81818181818183,112.74010503930253L101.81818181818183,120.04302352143043L101.81818181818183,120.72824180678134L101.81818181818183,111.6364812700961M101.81818181818183,127.2925062940641L101.81818181818183,118.54182635297613L101.81818181818183,121.81590519948611L101.81818181818183,131.42676411878136L101.81818181818183,125.35826979107802L101.81818181818183,127.20731433428065L101.81818181818183,130.86990864451406M101.81818181818183,123.79393797205074L101.81818181818183,123.76682034215482L101.81818181818183,132.6718211100636L101.81818181818183,128.6957807778268L101.81818181818183,140.98890507205655L101.81818181818183,139.21283686545027L101.81818181818183,129.43867221822504L101.81818181818183,132.5240192893187L101.81818181818183,125.74347180431661L101.81818181818183,140.61125947834987L101.81818181818183,142.0460530052721L101.81818181818183,141.96127363846938L101.81818181818183,127.7830888145647L101.81818181818183,138.99841153705472L101.81818181818183,128.47098592566599L101.81818181818183,132.1798057741454M101.81818181818183,132.2678915005145L101.81818181818183,134.32364345669595L101.81818181818183,143.63298351438766L101.81818181818183,138.07465352355143L101.81818181818183,139.66302408222407L101.81818181818183,140.1281275060133L101.81818181818183,140.102252098721M101.81818181818183,147.28906822092105L101.81818181818183,140.4922137933885L101.81818181818183,140.35715346936695L101.81818181818183,148.0680651894371L101.81818181818183,141.1646885748296L101.81818181818183,137.31364116368775L101.81818181818183,147.09210562776488M101.81818181818183,150.4819911157929L101.81818181818183,137.21798770759074L101.81818181818183,149.5919255792025L101.81818181818183,150.04090200828557L101.81818181818183,155.1971363594077L101.81818181818183,146.58521956596573L127.27272727272727,139.3249525687729M127.27272727272727,28.799491063695513L127.27272727272727,93.74379938009224L127.27272727272727,59.27895191508897M127.27272727272727,44.51600871737227L127.27272727272727,57.850852180034664L127.27272727272727,79.651391780833L127.27272727272727,76.92368012794714L127.27272727272727,68.13420104484662L127.27272727272727,75.24363262074606L127.27272727272727,87.09916440912765L127.27272727272727,87.14970985818763L127.27272727272727,84.41131781512166L127.27272727272727,89.84647445862832L127.27272727272727,97.18725142066569L127.27272727272727,97.16135480158565L127.27272727272727,107.79115501714529L127.27272727272727,96.38322933509424L127.27272727272727,108.1928307331011L127.27272727272727,97.70316375236891L127.27272727272727,95.81760814460726L127.27272727272727,97.69461452105256M127.27272727272727,109.22928914681827L127.27272727272727,117.00468612069236L127.27272727272727,105.74032804552833L127.27272727272727,107.11763945249913L127.27272727272727,112.01835869976946M127.27272727272727,117.89600498983134L127.27272727272727,117.53821829370045M127.27272727272727,121.48093582009312L127.27272727272727,116.2789242934848M127.27272727272727,127.32933478241566L127.27272727272727,119.4883334320737L127.27272727272727,119.47539429287721L127.27272727272727,128.05092331154472L127.27272727272727,134.70729432981545L127.27272727272727,129.6501798222668L127.27272727272727,131.8908550157435L127.27272727272727,121.86895402215796L127.27272727272727,129.54447931737613L127.27272727272727,135.7189093841594M127.27272727272727,125.6542708454061L127.27272727272727,124.04297519287053L127.27272727272727,135.92069641076017L127.27272727272727,138.81279554685437L127.27272727272727,130.88321181418155L127.27272727272727,133.20794369638867L127.27272727272727,132.66112543696116L127.27272727272727,142.07338592507136L127.27272727272727,136.8731493266266L127.27272727272727,137.412576615929L127.27272727272727,141.26161236516378L127.27272727272727,150.11877833974225L127.27272727272727,117.42239499210646L127.27272727272727,136.56297555098735L127.27272727272727,144.33040592231438L127.27272727272727,141.2607596562767L127.27272727272727,144.21943770303307L127.27272727272727,151.0221452623434L127.27272727272727,149.10149021239806L127.27272727272727,146.67272921868457L127.27272727272727,155.49975256828264L127.27272727272727,151.9352834282376L127.27272727272727,145.3305389068551L127.27272727272727,142.285335284835L127.27272727272727,129.31500398601247L127.27272727272727,147.95525325169615M127.27272727272727,147.29934918683372L127.27272727272727,155.25071583314528M127.27272727272727,149.7195621700334L127.27272727272727,150.14282395277286L127.27272727272727,142.92036293240957M127.27272727272727,150.8295723358914L127.27272727272727,162.28498196032714L127.27272727272727,150.43217533798142L127.27272727272727,152.80831264251657L127.27272727272727,153.8998131330265L127.27272727272727,152.62765417172065L127.27272727272727,153.03337297661957L127.27272727272727,152.02555118774845L127.27272727272727,152.93868799429168L127.27272727272727,155.02734790372463L127.27272727272727,156.65682211587765M127.27272727272727,152.2709499713049L127.27272727272727,153.81309367022118L127.27272727272727,156.00613576671574L127.27272727272727,158.47369518415957L127.27272727272727,167.5476558496479L152.72727272727272,159.9865783395689L152.72727272727272,64.93131069791693L152.72727272727272,68.59961879090909L152.72727272727272,75.80945261526735L152.72727272727272,89.65868197445373L152.72727272727272,94.50346751162326L152.72727272727272,90.36037161097221L152.72727272727272,87.35138204609756L152.72727272727272,88.49569507264567L152.72727272727272,95.77091427718777M152.72727272727272,105.53181889200627L152.72727272727272,96.45005048190355L152.72727272727272,109.54980603846295L152.72727272727272,106.93918398859641L152.72727272727272,105.9934312078149L152.72727272727272,109.45953357178252L152.72727272727272,113.00168901142229L152.72727272727272,117.49502889766687L152.72727272727272,119.98834536659633L152.72727272727272,123.98391602952395L152.72727272727272,124.29545355493879L152.72727272727272,116.76172867683408L152.72727272727272,117.94774242073285L152.72727272727272,118.13842849704128L152.72727272727272,130.8235522312932L152.72727272727272,121.31523708591632L152.72727272727272,121.07298935330078L152.72727272727272,136.61799327631985L152.72727272727272,110.74350068379184L152.72727272727272,125.30147637923386L152.72727272727272,131.6071042674362L152.72727272727272,139.90080383623547L152.72727272727272,136.6982200315697L152.72727272727272,136.65575243511125L152.72727272727272,128.59468517408158L152.72727272727272,129.1549842858974L152.72727272727272,144.16410892880685L152.72727272727272,140.0222330381206L152.72727272727272,114.77669267258639L152.72727272727272,135.6714361715112M152.72727272727272,138.0042296786878L152.72727272727272,149.10349547677095L152.72727272727272,151.38380276703805L152.72727272727272,132.52432042249455L152.72727272727272,133.95115903277278M152.72727272727272,147.88289587679563L152.72727272727272,136.34644718795545M152.72727272727272,140.06122988568782L152.72727272727272,138.26796240265887L152.72727272727272,144.7137580396694L152.72727272727272,143.6629366178019L152.72727272727272,147.78968254210255M152.72727272727272,145.2194554785311L152.72727272727272,141.22929262442528L152.72727272727272,156.06828658329295L152.72727272727272,156.73721384952825L152.72727272727272,136.12003002582077L152.72727272727272,157.6169555220711L152.72727272727272,147.49664164690714L152.72727272727272,143.95484797422984L152.72727272727272,152.09155712190528L152.72727272727272,155.20966338062152M152.72727272727272,151.63459964144485ZM152.72727272727272,120.77363495353399L152.72727272727272,155.55565779756813L152.72727272727272,165.79295636749603L152.72727272727272,151.26902949608024L152.72727272727272,165.63602096508058L152.72727272727272,160.71325249990517L152.72727272727272,121.5746123235002L152.72727272727272,166.80440800291714L152.72727272727272,159.3757475629463L152.72727272727272,162.13705531875L152.72727272727272,163.0048637989555M152.72727272727272,164.35843876238133L152.72727272727272,150.5563602625075M152.72727272727272,159.06885774449873L152.72727272727272,179.9060317436113L152.72727272727272,177.45880421590263L152.72727272727272,175.10672426234993L152.72727272727272,166.72894020801377L152.72727272727272,166.89246396517507L152.72727272727272,180.01130795638352M178.1818181818182,35.94890447887764L178.1818181818182,76.66987071258662L178.1818181818182,59.39945139769358L178.1818181818182,48.72978291376879L178.1818181818182,59.169107484989226L178.1818181818182,67.30729913518584M178.1818181818182,64.44444547005381L178.1818181818182,70.53783066069126L178.1818181818182,95.21297734961517L178.1818181818182,81.43923060183698M178.1818181818182,94.62273637620149L178.1818181818182,96.05553222063817L178.1818181818182,102.02108241852545L178.1818181818182,102.84738734702015L178.1818181818182,111.11444378223877L178.1818181818182,106.87928158823236L178.1818181818182,109.6763249409064L178.1818181818182,117.85028135006246L178.1818181818182,82.36661086681742L178.1818181818182,123.92031975731746L178.1818181818182,105.22646664855122L178.1818181818182,124.4510998098597L178.1818181818182,110.02872671720763L178.1818181818182,111.61836073615456L178.1818181818182,126.34068627285133L178.1818181818182,130.06005114397755L178.1818181818182,107.65581086048074L178.1818181818182,110.97989934444963L178.1818181818182,95.09979126727303L178.1818181818182,120.5406031088828L178.1818181818182,125.8427312194284L178.1818181818182,137.71432513532545L178.1818181818182,134.18847452496036L178.1818181818182,127.96749961753383L178.1818181818182,136.86798668219458M178.1818181818182,117.5915658880316L178.1818181818182,119.59615304208882L178.1818181818182,144.20278507118903M178.1818181818182,82.30140254530183L178.1818181818182,138.59186270321112L178.1818181818182,129.54281497555064L178.1818181818182,128.42795657224826L178.1818181818182,127.05214382525887L178.1818181818182,128.2153346202232L178.1818181818182,110.65948746002422L178.1818181818182,118.30224715993619L178.1818181818182,119.94603756114257L178.1818181818182,142.1738664682337L178.1818181818182,141.41377032971167L178.1818181818182,141.11718003271946L178.1818181818182,153.3855806880979L178.1818181818182,150.23303981520615L178.1818181818182,137.1383720568031L178.1818181818182,137.82764174280567L178.1818181818182,144.73413935847327L178.1818181818182,146.8322649629565L178.1818181818182,147.66917408423484L178.1818181818182,110.99721447194898L178.1818181818182,156.54722703575243L178.1818181818182,150.9649062047409L178.1818181818182,151.08816302924504L178.1818181818182,152.12264987012753M178.1818181818182,152.64233281346617L178.1818181818182,151.79265489124953L178.1818181818182,154.90317928002622L178.1818181818182,156.59421111941694L178.1818181818182,154.50070393914106L178.1818181818182,165.90399605468554L178.1818181818182,156.09414314612278M178.1818181818182,169.9660702202734L178.1818181818182,158.5366104279117L178.1818181818182,121.23037670814212M178.1818181818182,160.05519083360608L178.1818181818182,167.84551111721615L178.1818181818182,123.55592437662031L178.1818181818182,169.43550811971107L178.1818181818182,172.69178483101302M178.1818181818182,164.52692206948615L178.1818181818182,163.22834428004526L178.1818181818182,166.4522387854502L178.1818181818182,169.04172501954667L178.1818181818182,165.88945829100035L178.1818181818182,162.6732183323302M178.1818181818182,165.93149106754035L178.1818181818182,167.30983488404553L178.1818181818182,175.16684133833283L178.1818181818182,179.93024039564463L178.1818181818182,165.38409398396828M203.63636363636365,169.41494763986347L203.63636363636365,15.121509230153976L203.63636363636365,88.28325172402826L203.63636363636365,42.9123102028737M203.63636363636365,65.1138208065802L203.63636363636365,91.36001499366756L203.63636363636365,81.28407773745249L203.63636363636365,84.74483370182655L203.63636363636365,86.60258338652963L203.63636363636365,81.82388443789517L203.63636363636365,83.28899456071662L203.63636363636365,86.01049102510962L203.63636363636365,82.98133139960744L203.63636363636365,94.63129021250036L203.63636363636365,89.65109013068425L203.63636363636365,92.2023439292679M203.63636363636365,108.87367020854953L203.63636363636365,102.48721297573441L203.63636363636365,101.7948658462347L203.63636363636365,116.02701069735302L203.63636363636365,119.16496126509688L203.63636363636365,110.17014259374643L203.63636363636365,119.14966838089339L203.63636363636365,114.05461263097727L203.63636363636365,111.31112602719682L203.63636363636365,103.60496980390288L203.63636363636365,108.9393338919341M203.63636363636365,112.26620543912463L203.63636363636365,115.61464311870563M203.63636363636365,109.02956238283568ZM203.63636363636365,120.74407227010337L203.63636363636365,112.88070782809852L203.63636363636365,137.17401336702332L203.63636363636365,115.118039706413L203.63636363636365,132.285642080965L203.63636363636365,125.95551372050991L203.63636363636365,129.41296685354163L203.63636363636365,136.23608302114803L203.63636363636365,133.55059608176117L203.63636363636365,131.5121041289661L203.63636363636365,132.24433671488632L203.63636363636365,131.52951336391462L203.63636363636365,137.6174861764486L203.63636363636365,145.05014287528374L203.63636363636365,149.87875574807055M203.63636363636365,141.89429613408169L203.63636363636365,151.085758327492L203.63636363636365,143.497230424849L203.63636363636365,141.00060177988027L203.63636363636365,143.82282192356618L203.63636363636365,147.6251630189378L203.63636363636365,156.0273520989046L203.63636363636365,156.2271973144407L203.63636363636365,151.41089106480015L203.63636363636365,148.67219392448382M203.63636363636365,151.71158069229799L203.63636363636365,158.55373439632123L203.63636363636365,153.88682895259018L203.63636363636365,149.18680985771098L203.63636363636365,154.07883365252673M203.63636363636365,154.3513314427158L203.63636363636365,165.16553158936992L203.63636363636365,157.03196211982404L203.63636363636365,154.86662178965946L203.63636363636365,157.27408274277315L203.63636363636365,159.14515632797412L203.63636363636365,166.30417130458838L203.63636363636365,161.44939518837722L203.63636363636365,161.28067988160615L203.63636363636365,160.82965323684365L203.63636363636365,158.19917336390066L203.63636363636365,163.07915599908503L203.63636363636365,167.80522897637508L203.63636363636365,172.60425138055987M203.63636363636365,164.87870162740012L203.63636363636365,165.2379291957233L203.63636363636365,162.80032846429904L203.63636363636365,177.90129465981695M203.63636363636365,161.76262265959738L203.63636363636365,165.4899646631658L203.63636363636365,178.93633277352998M203.63636363636365,164.10832346524552L203.63636363636365,168.24872828556227L203.63636363636365,176.02707399658567M203.63636363636365,178.6694219045277L203.63636363636365,165.76011644596377L203.63636363636365,175.40995318444905M229.0909090909091,179.09204234640603L229.0909090909091,18.846382006799274L229.0909090909091,101.89598126985257M229.0909090909091,68.76404271250297L229.0909090909091,59.06367006735073L229.0909090909091,61.49898206611506L229.0909090909091,71.7070782982362M229.0909090909091,89.34905156892954ZM229.0909090909091,89.8839048800901L229.0909090909091,100.42028262704365M229.0909090909091,108.5063294085907L229.0909090909091,114.14143356001875L229.0909090909091,109.82960615861869M229.0909090909091,114.58704681830645ZM229.0909090909091,133.9842367519018ZM229.0909090909091,122.34492144054619L229.0909090909091,126.50903056013141L229.0909090909091,128.9645892856627L229.0909090909091,123.76661002327828L229.0909090909091,135.40990525873394L229.0909090909091,141.80038597545212L229.0909090909091,126.04832866866329L229.0909090909091,135.80530351551107L229.0909090909091,128.89578071154574L229.0909090909091,127.7773314064457L229.0909090909091,132.1360171525568L229.0909090909091,130.50735715970947M229.0909090909091,141.5264753725489L229.0909090909091,136.4485924248305L229.0909090909091,145.8351081505894L229.0909090909091,135.64689285239947L229.0909090909091,145.6354202741721L229.0909090909091,137.37924582189262L229.0909090909091,148.845788068561L229.0909090909091,144.8453545718906M229.0909090909091,146.68332206768198L229.0909090909091,133.4268607600149L229.0909090909091,150.2803301218916L229.0909090909091,144.79784918869927L229.0909090909091,142.72383312370187L229.0909090909091,153.50534608887307L229.0909090909091,143.1264937715249M229.0909090909091,161.2284270455731L229.0909090909091,153.50077976061846L229.0909090909091,151.0360575294747L229.0909090909091,160.5808290174586L229.0909090909091,160.2960921060915L229.0909090909091,162.98540915536717L229.0909090909091,167.27910194055698L229.0909090909091,161.02047914608923L229.0909090909091,127.1948164565553L229.0909090909091,164.69499227745365L229.0909090909091,158.77511803890147L229.0909090909091,152.63397856274176L229.0909090909091,150.08462419502976L229.0909090909091,167.96458950955656M229.0909090909091,158.36484629040885L229.0909090909091,137.7281765255353L229.0909090909091,129.49404669661482L229.0909090909091,171.89306598499505L229.0909090909091,155.15579997101852L229.0909090909091,169.33787066670678L229.0909090909091,142.30562196127136L229.0909090909091,151.90370280149352M229.0909090909091,159.98203570049117ZM229.0909090909091,161.21694879790545L229.0909090909091,145.6062948711732L229.0909090909091,152.69011794762676L229.0909090909091,170.86568278477182L229.0909090909091,177.336462647094L229.0909090909091,156.679164256569L229.0909090909091,156.47759765805287M229.0909090909091,167.77164773947834L229.0909090909091,166.2914472611575L229.0909090909091,169.5779844190149L229.0909090909091,178.2300479093781L229.0909090909091,167.38660257149647L229.0909090909091,162.57936547082204M229.0909090909091,172.57372730017673ZM254.54545454545453,174.80549404944406L254.54545454545453,134.84099929749317L254.54545454545453,106.68342537217434L254.54545454545453,84.45932836372694L254.54545454545453,101.53165007356102L254.54545454545453,78.56704751690566L254.54545454545453,118.50999255110514L254.54545454545453,98.8599772687661L254.54545454545453,106.2038790193333M254.54545454545453,104.08747720189673L254.54545454545453,91.75662318836999L254.54545454545453,114.69451820942729L254.54545454545453,118.03783521404063L254.54545454545453,90.36400237176713L254.54545454545453,92.38841484036392L254.54545454545453,99.86955655455286L254.54545454545453,105.6094545831197L254.54545454545453,106.4955791766953L254.54545454545453,112.93461379495913L254.54545454545453,136.0138877200689L254.54545454545453,145.94314028711065L254.54545454545453,115.00442101386716M254.54545454545453,142.84487409289736L254.54545454545453,123.73153076798536L254.54545454545453,145.58384116441746L254.54545454545453,125.0892335413578L254.54545454545453,118.53318988981911L254.54545454545453,132.78723424502363L254.54545454545453,134.61512331255017M254.54545454545453,139.0311226624458L254.54545454545453,149.51567005689773M254.54545454545453,154.48296183273692L254.54545454545453,140.98305101594676L254.54545454545453,140.08693169534195L254.54545454545453,141.48950915063952L254.54545454545453,159.33143628563369L254.54545454545453,147.92669061363546L254.54545454545453,146.02869550206483L254.54545454545453,151.00301776749947L254.54545454545453,150.48879288588546M254.54545454545453,167.44730700448918L254.54545454545453,155.03697717801265L254.54545454545453,171.21274828392836L254.54545454545453,156.50019705654594L254.54545454545453,170.39920325441838L254.54545454545453,162.94397295557042L254.54545454545453,165.80994747834777L254.54545454545453,161.92097496863082L254.54545454545453,161.11011027132804L254.54545454545453,164.97616238671162L254.54545454545453,166.0450824837214L254.54545454545453,176.96398525205748L254.54545454545453,165.94893394242618L254.54545454545453,182.81911261188557L254.54545454545453,167.94603050764874L254.54545454545453,178.20576920100126L254.54545454545453,170.92022756662195L254.54545454545453,185.02874186779124L254.54545454545453,182.43530706662145L254.54545454545453,170.37285109098485M254.54545454545453,172.82268974831877L254.54545454545453,171.58014322005695L254.54545454545453,175.03631225155186L254.54545454545453,174.9191374624438L254.54545454545453,176.3294810901352L254.54545454545453,175.98224864811203L254.54545454545453,176.82023449844854L254.54545454545453,191.0106911483838L254.54545454545453,174.6216976227208L254.54545454545453,176.79918099287192L254.54545454545453,192.66582008827237" style="fill: none;" fill="none"></path></g></g></g></g></g></g><g transform="translate(50, 178)" clip-path="url(#clip_1)"><clipPath id="clip_1"><rect width="280" height="22"></rect></clipPath><g><g><line x1="0" y1="0" x2="0" y2="5" style="visibility: inherit;" fill="rgb(0, 0, 0)" stroke="rgb(204, 204, 204)" stroke-width="1px"></line><line x1="25.454545454545457" y1="0" x2="25.454545454545457" y2="5" style="visibility: inherit;" fill="rgb(0, 0, 0)" stroke="rgb(204, 204, 204)" stroke-width="1px"></line><line x1="50.909090909090914" y1="0" x2="50.909090909090914" y2="5" style="visibility: inherit;" fill="rgb(0, 0, 0)" stroke="rgb(204, 204, 204)" stroke-width="1px"></line><line x1="76.36363636363636" y1="0" x2="76.36363636363636" y2="5" style="visibility: inherit;" fill="rgb(0, 0, 0)" stroke="rgb(204, 204, 204)" stroke-width="1px"></line><line x1="101.81818181818183" y1="0" x2="101.81818181818183" y2="5" style="visibility: inherit;" fill="rgb(0, 0, 0)" stroke="rgb(204, 204, 204)" stroke-width="1px"></line><line x1="127.27272727272727" y1="0" x2="127.27272727272727" y2="5" style="visibility: inherit;" fill="rgb(0, 0, 0)" stroke="rgb(204, 204, 204)" stroke-width="1px"></line><line x1="152.72727272727272" y1="0" x2="152.72727272727272" y2="5" style="visibility: inherit;" fill="rgb(0, 0, 0)" stroke="rgb(204, 204, 204)" stroke-width="1px"></line><line x1="178.1818181818182" y1="0" x2="178.1818181818182" y2="5" style="visibility: inherit;" fill="rgb(0, 0, 0)" stroke="rgb(204, 204, 204)" stroke-width="1px"></line><line x1="203.63636363636365" y1="0" x2="203.63636363636365" y2="5" style="visibility: inherit;" fill="rgb(0, 0, 0)" stroke="rgb(204, 204, 204)" stroke-width="1px"></line><line x1="229.0909090909091" y1="0" x2="229.0909090909091" y2="5" style="visibility: inherit;" fill="rgb(0, 0, 0)" stroke="rgb(204, 204, 204)" stroke-width="1px"></line><line x1="254.54545454545453" y1="0" x2="254.54545454545453" y2="5" style="visibility: inherit;" fill="rgb(0, 0, 0)" stroke="rgb(204, 204, 204)" stroke-width="1px"></line><line x1="280" y1="0" x2="280" y2="5" style="visibility: inherit;" fill="rgb(0, 0, 0)" stroke="rgb(204, 204, 204)" stroke-width="1px"></line></g><g transform="translate(0, 8)"><text x="0" y="0" dx="0em" dy="0.95em" style="text-anchor: middle; visibility: hidden; font-family: &quot;Helvetica Neue&quot;, sans-serif; font-size: 12px; font-weight: 200;" fill="rgb(50, 49, 63)" stroke="none" stroke-width="1px">-1</text><text x="25.454545454545457" y="0" dx="0em" dy="0.95em" style="text-anchor: middle; visibility: inherit; font-family: &quot;Helvetica Neue&quot;, sans-serif; font-size: 12px; font-weight: 200;" fill="rgb(50, 49, 63)" stroke="none" stroke-width="1px">0</text><text x="50.909090909090914" y="0" dx="0em" dy="0.95em" style="text-anchor: middle; visibility: inherit; font-family: &quot;Helvetica Neue&quot;, sans-serif; font-size: 12px; font-weight: 200;" fill="rgb(50, 49, 63)" stroke="none" stroke-width="1px">1</text><text x="76.36363636363636" y="0" dx="0em" dy="0.95em" style="text-anchor: middle; visibility: inherit; font-family: &quot;Helvetica Neue&quot;, sans-serif; font-size: 12px; font-weight: 200;" fill="rgb(50, 49, 63)" stroke="none" stroke-width="1px">2</text><text x="101.81818181818183" y="0" dx="0em" dy="0.95em" style="text-anchor: middle; visibility: inherit; font-family: &quot;Helvetica Neue&quot;, sans-serif; font-size: 12px; font-weight: 200;" fill="rgb(50, 49, 63)" stroke="none" stroke-width="1px">3</text><text x="127.27272727272727" y="0" dx="0em" dy="0.95em" style="text-anchor: middle; visibility: inherit; font-family: &quot;Helvetica Neue&quot;, sans-serif; font-size: 12px; font-weight: 200;" fill="rgb(50, 49, 63)" stroke="none" stroke-width="1px">4</text><text x="152.72727272727272" y="0" dx="0em" dy="0.95em" style="text-anchor: middle; visibility: inherit; font-family: &quot;Helvetica Neue&quot;, sans-serif; font-size: 12px; font-weight: 200;" fill="rgb(50, 49, 63)" stroke="none" stroke-width="1px">5</text><text x="178.1818181818182" y="0" dx="0em" dy="0.95em" style="text-anchor: middle; visibility: inherit; font-family: &quot;Helvetica Neue&quot;, sans-serif; font-size: 12px; font-weight: 200;" fill="rgb(50, 49, 63)" stroke="none" stroke-width="1px">6</text><text x="203.63636363636365" y="0" dx="0em" dy="0.95em" style="text-anchor: middle; visibility: inherit; font-family: &quot;Helvetica Neue&quot;, sans-serif; font-size: 12px; font-weight: 200;" fill="rgb(50, 49, 63)" stroke="none" stroke-width="1px">7</text><text x="229.0909090909091" y="0" dx="0em" dy="0.95em" style="text-anchor: middle; visibility: inherit; font-family: &quot;Helvetica Neue&quot;, sans-serif; font-size: 12px; font-weight: 200;" fill="rgb(50, 49, 63)" stroke="none" stroke-width="1px">8</text><text x="254.54545454545453" y="0" dx="0em" dy="0.95em" style="text-anchor: middle; visibility: inherit; font-family: &quot;Helvetica Neue&quot;, sans-serif; font-size: 12px; font-weight: 200;" fill="rgb(50, 49, 63)" stroke="none" stroke-width="1px">9</text><text x="280" y="0" dx="0em" dy="0.95em" style="text-anchor: middle; visibility: hidden; font-family: &quot;Helvetica Neue&quot;, sans-serif; font-size: 12px; font-weight: 200;" fill="rgb(50, 49, 63)" stroke="none" stroke-width="1px">10</text></g><line x1="0" y1="0" x2="280" y2="0" fill="rgb(0, 0, 0)" stroke="rgb(204, 204, 204)" stroke-width="1px"></line></g></g></g></g></svg>